<svg xmlns="http://www.w3.org/2000/svg" width="169" height="56" viewBox="0 0 169 56" fill="none"><g clip-path="url(#clip0_1240_25155)"><path d="M31.4097 10.155C31.3337 12.6061 30.9576 15.0652 29.5372 17.0406C28.0968 19.0482 27.8487 21.1526 27.9927 23.4545C28.0247 23.9867 28.0007 24.5269 27.9887 25.0631C27.9727 25.7403 27.4686 25.7403 27.0004 25.7645C26.4883 25.7887 26.0562 25.6557 26.0362 25.0308C26.0202 24.4301 26.0122 23.8214 26.0482 23.2207C26.1882 20.9793 25.7601 19.024 24.5277 16.9922C21.4708 11.953 22.3351 5.04723 26.1002 0.665116C26.8924 -0.25404 27.2885 -0.201632 28.0207 0.70543C30.1014 3.27745 31.4858 6.97424 31.4097 10.155ZM27.0245 17.351C30.3614 13.3317 30.1454 5.94623 26.9524 2.85819C23.8635 7.2524 23.8675 12.9246 27.0245 17.351Z" fill="white"></path><path d="M28.0247 55.2942C27.2924 56.2013 26.8963 56.2537 26.1041 55.3345C22.339 50.9524 21.4747 44.0466 24.5316 39.0074C25.764 36.9796 26.1921 35.0203 26.0521 32.7789C26.0161 32.1782 26.0241 31.5735 26.0401 30.9688C26.0561 30.3439 26.4922 30.2109 27.0044 30.2351C27.4725 30.2552 27.9806 30.2593 27.9926 30.9365C28.0046 31.4727 28.0287 32.0089 27.9966 32.5451C27.8566 34.843 28.1007 36.9473 29.5411 38.959C30.9615 40.9384 31.3336 43.3976 31.4137 45.8446C31.4857 49.0254 30.1013 52.7222 28.0247 55.2942ZM26.9523 53.1414C30.1413 50.0574 30.3573 42.6679 27.0244 38.6486C23.8674 43.0751 23.8634 48.7472 26.9523 53.1414Z" fill="white"></path><path d="M49.4911 42.8657C40.8085 42.8778 33.9265 35.6979 34.4827 27.5948C35.0948 18.6855 42.7411 12.465 51.3997 13.7631C52.628 13.9486 52.9481 14.2066 52.48 15.5168C50.5154 20.9954 45.0178 25.172 39.164 24.9946C36.8514 24.922 36.4793 25.9137 36.4472 27.7077C36.4432 27.9778 36.4192 28.2439 36.4232 28.514C36.4632 31.2271 36.5993 31.3198 39.2241 31.4529C45.4019 31.7633 49.6792 34.8675 52.312 40.4711C53.1042 42.1562 52.6 42.7488 50.9195 42.7851C50.3234 42.7972 49.7272 42.8536 49.4911 42.8657ZM37.6916 22.9749C43.2853 23.5151 48.6589 20.294 50.1233 15.6216C44.9538 15.033 40.0123 17.9034 37.6916 22.9749ZM50.1833 40.7613C47.9787 35.6939 42.305 32.5172 37.8197 33.7145C39.8162 38.4433 44.8297 41.3419 50.1833 40.7613Z" fill="white"></path><path d="M36.7877 11.7114C35.9275 10.8446 35.7714 9.32882 36.4876 8.03878C37.2158 6.72858 40.6569 4.46294 41.049 4.20896C41.241 4.08399 41.4891 4.07593 41.6892 4.1888C41.8892 4.30168 42.0133 4.51938 42.0053 4.74917C41.9933 5.21681 41.8732 9.35704 41.145 10.6672C40.3048 12.179 38.5762 12.82 37.2919 12.0944C37.1038 11.9895 36.9358 11.8605 36.7877 11.7114ZM40.7129 5.94246C39.4165 6.85758 37.912 8.03475 37.5719 8.64752C37.0638 9.55861 37.2118 10.6148 37.9 11.0018C38.5882 11.3889 39.5565 10.9656 40.0647 10.0545C40.4008 9.4417 40.6168 7.53486 40.7129 5.94246Z" fill="white"></path><path d="M37.2919 43.9064C38.5762 43.1808 40.3048 43.8218 41.145 45.3335C41.8732 46.6437 41.9933 50.784 42.0053 51.2516C42.0093 51.4854 41.8892 51.6991 41.6892 51.812C41.4891 51.9249 41.241 51.9168 41.049 51.7918C40.6609 51.5378 37.2198 49.2722 36.4876 47.962C35.7714 46.672 35.9275 45.1561 36.7877 44.2894C36.9358 44.1402 37.1038 44.0112 37.2919 43.9064ZM40.0607 45.9463C39.5525 45.0352 38.5842 44.6119 37.896 44.9989C37.2078 45.3859 37.0638 46.4422 37.5679 47.3533C37.908 47.966 39.4125 49.1432 40.7089 50.0583C40.6168 48.4659 40.4008 46.5591 40.0607 45.9463Z" fill="white"></path><path d="M45.0859 27.6394C45.402 26.4542 46.6223 25.5593 48.0908 25.5431C49.5832 25.523 53.2483 27.3935 53.6644 27.6072C53.8685 27.712 54.0005 27.9257 54.0005 28.1555C54.0045 28.3853 53.8805 28.603 53.6764 28.7118C53.2683 28.9376 49.6512 30.9008 48.1588 30.921C46.4383 30.9452 45.0259 29.7559 45.0059 28.2724C45.0059 28.0507 45.0299 27.841 45.0859 27.6394ZM52.0039 28.1797C50.5715 27.5064 48.807 26.7848 48.1108 26.7929C47.0745 26.805 46.2422 27.4621 46.2502 28.2563C46.2622 29.0504 47.1105 29.6834 48.1468 29.6713C48.843 29.6551 50.5875 28.8892 52.0039 28.1797Z" fill="white"></path><path d="M3.0804 42.7851C1.4039 42.7448 0.899752 42.1562 1.68799 40.4711C4.32077 34.8675 8.59803 31.7633 14.7759 31.4529C17.4006 31.3198 17.5367 31.2271 17.5767 28.514C17.5807 28.2439 17.5567 27.9778 17.5527 27.7077C17.5247 25.9137 17.1486 24.922 14.8359 24.9946C8.98215 25.172 3.48452 20.9954 1.51994 15.5168C1.0518 14.2066 1.37189 13.9486 2.60026 13.7631C11.2588 12.465 18.9051 18.6855 19.5173 27.5948C20.0734 35.6979 13.1914 42.8778 4.50882 42.8657C4.27675 42.8536 3.68058 42.7972 3.0804 42.7851ZM3.88063 15.6216C5.34507 20.294 10.7187 23.5151 16.3123 22.9749C13.9876 17.9034 9.04616 15.033 3.88063 15.6216ZM16.1843 33.7145C11.699 32.5172 6.02527 35.6939 3.82062 40.7613C9.1742 41.3419 14.1877 38.4433 16.1843 33.7145Z" fill="white"></path><path d="M16.7135 12.0944C15.4291 12.82 13.7006 12.179 12.8604 10.6672C12.1321 9.35704 12.0121 5.21681 12.0001 4.74917C11.9961 4.51535 12.1161 4.30168 12.3162 4.1888C12.5163 4.07593 12.7643 4.08399 12.9564 4.20896C13.3445 4.46294 16.7855 6.72858 17.5177 8.03878C18.2339 9.32882 18.0779 10.8446 17.2176 11.7114C17.0696 11.8605 16.9015 11.9895 16.7135 12.0944ZM13.9407 10.0545C14.4488 10.9656 15.4171 11.3889 16.1053 11.0018C16.7935 10.6148 16.9376 9.55861 16.4334 8.64752C16.0933 8.03475 14.5889 6.85758 13.2925 5.94246C13.3885 7.53486 13.6006 9.4417 13.9407 10.0545Z" fill="white"></path><path d="M17.213 44.2894C18.0733 45.1561 18.2293 46.672 17.5131 47.962C16.7849 49.2722 13.3439 51.5378 12.9518 51.7918C12.7597 51.9168 12.5116 51.9249 12.3116 51.812C12.1115 51.6991 11.9875 51.4814 11.9955 51.2516C12.0075 50.784 12.1275 46.6437 12.8557 45.3335C13.696 43.8218 15.4245 43.1808 16.7089 43.9064C16.9009 44.0112 17.069 44.1402 17.213 44.2894ZM13.2919 50.0543C14.5882 49.1392 16.0927 47.962 16.4328 47.3492C16.9409 46.4381 16.7929 45.3819 16.1047 44.9949C15.4165 44.6079 14.4482 45.0312 13.9401 45.9423C13.6 46.5591 13.3879 48.4659 13.2919 50.0543Z" fill="white"></path><path d="M8.99476 28.2685C8.97475 29.752 7.56233 30.9373 5.84182 30.9171C4.34938 30.8969 0.732311 28.9337 0.32419 28.7079C0.12013 28.5991 -0.00390722 28.3854 9.39617e-05 28.1516C0.00409515 27.9218 0.132133 27.7081 0.336193 27.6033C0.748315 27.3896 4.4174 25.5191 5.90984 25.5392C7.37828 25.5594 8.60264 26.4544 8.91473 27.6355C8.97075 27.8412 8.99876 28.0508 8.99476 28.2685ZM5.85783 29.6674C6.89413 29.6795 7.74639 29.0465 7.75439 28.2524C7.76639 27.4582 6.93015 26.8051 5.89384 26.789C5.19763 26.7809 3.43311 27.5025 2.00069 28.1798C3.4131 28.8893 5.16162 29.6553 5.85783 29.6674Z" fill="white"></path></g><path d="M95.612 14.2744C95.4077 23.3207 95.4077 32.367 95.612 41.4133C92.8152 41.7792 90.0312 41.7792 87.2599 41.4133C87.362 35.7862 87.4131 31.5595 87.4131 28.7334C84.3226 28.6577 81.2512 28.6577 78.1989 28.7334C78.1989 31.5469 78.25 35.7736 78.3522 41.4133C75.5553 41.7792 72.7713 41.7792 70 41.4133C70.2043 32.367 70.2043 23.3207 70 14.2744C72.7713 13.9085 75.5553 13.9085 78.3522 14.2744C78.3011 16.987 78.25 21.0623 78.1989 26.5002C81.2639 26.5759 84.3353 26.5759 87.4131 26.5002C87.362 21.0749 87.311 16.9997 87.2599 14.2744C90.0312 13.9085 92.8152 13.9085 95.612 14.2744Z" fill="white"></path><path d="M111.244 20.5576C114.385 20.5576 116.888 21.3146 118.753 22.8287C120.63 24.3427 121.569 26.5443 121.569 29.4336V41.4133H117.948L114.462 35.7546C114.066 37.3822 113.223 38.8332 111.933 40.1075C110.643 41.3692 108.887 42 106.665 42C104.622 42 103.032 41.5269 101.895 40.5806C100.759 39.6343 100.19 38.3853 100.19 36.8334C100.19 34.4867 101.467 32.6698 104.022 31.3829C106.589 30.0834 109.884 29.3579 113.906 29.2065C113.906 28.1467 113.868 27.2319 113.791 26.4623C113.715 25.6801 113.574 24.9104 113.37 24.1534C113.178 23.3838 112.872 22.8034 112.45 22.4123C112.042 22.0086 111.537 21.8067 110.937 21.8067C110.069 21.8067 109.411 22.1663 108.964 22.8854C108.53 23.6046 108.313 24.4436 108.313 25.4025C108.313 26.4876 108.587 27.3013 109.136 27.8439L108.351 28.3548L100.88 26.538C101.276 24.759 102.413 23.3207 104.29 22.223C106.18 21.1128 108.498 20.5576 111.244 20.5576ZM110.113 38.7448C111.237 38.7701 112.138 38.032 112.814 36.5306C113.491 35.0292 113.855 33.0105 113.906 30.4745C111.863 30.6511 110.375 31.2315 109.443 32.2156C108.523 33.1997 108.064 34.4299 108.064 35.906C108.076 37.7986 108.76 38.7448 110.113 38.7448Z" fill="white"></path><path d="M126.377 41.4133C126.581 34.4614 126.569 27.7051 126.339 21.1443H129.71L133.484 26.1406C134.608 22.4186 136.977 20.5576 140.591 20.5576C142.136 20.5576 143.401 21.0308 144.384 21.977C145.38 22.9233 145.878 24.2859 145.878 26.0649C145.878 26.3803 145.827 26.9481 145.725 27.7682L138.905 29.5471L138.388 29.3957C138.835 27.5915 138.95 26.1721 138.733 25.1375C138.529 24.103 138.05 23.5857 137.296 23.5857C136.377 23.5857 135.668 24.1534 135.17 25.2889C134.672 26.4245 134.423 27.9133 134.423 29.7553C134.372 32.2661 134.372 36.1521 134.423 41.4133C131.728 41.2367 129.046 41.2367 126.377 41.4133Z" fill="white"></path><path d="M158.675 20.5576C161.816 20.5576 164.319 21.3146 166.184 22.8287C168.061 24.3427 169 26.5443 169 29.4336V41.4133H165.379L161.893 35.7546C161.497 37.3822 160.654 38.8332 159.364 40.1075C158.075 41.3692 156.319 42 154.096 42C152.053 42 150.463 41.5269 149.326 40.5806C148.19 39.6343 147.622 38.3853 147.622 36.8334C147.622 34.4867 148.899 32.6698 151.453 31.3829C154.02 30.0834 157.315 29.3579 161.337 29.2065C161.337 28.1467 161.299 27.2319 161.223 26.4623C161.146 25.6801 161.005 24.9104 160.801 24.1534C160.61 23.3838 160.303 22.8034 159.882 22.4123C159.473 22.0086 158.968 21.8067 158.368 21.8067C157.5 21.8067 156.842 22.1663 156.395 22.8854C155.961 23.6046 155.744 24.4436 155.744 25.4025C155.744 26.4876 156.018 27.3013 156.568 27.8439L155.782 28.3548L148.311 26.538C148.707 24.759 149.844 23.3207 151.721 22.223C153.611 21.1128 155.929 20.5576 158.675 20.5576ZM157.545 38.7448C158.668 38.7701 159.569 38.032 160.246 36.5306C160.922 35.0292 161.286 33.0105 161.337 30.4745C159.294 30.6511 157.806 31.2315 156.874 32.2156C155.955 33.1997 155.495 34.4299 155.495 35.906C155.508 37.7986 156.191 38.7448 157.545 38.7448Z" fill="white"></path><defs><clipPath id="clip0_1240_25155"><rect width="54" height="56" fill="white"></rect></clipPath></defs></svg>