<svg version="1.2" xmlns="http://www.w3.org/2000/svg" viewBox="0 0 950 133" width="950" height="133">
	<title>LOGO_VIETMUSIC_04c08c92-cfff-4f76-99d8-2d52c91edcdd</title>
	<style>
		.s0 { fill: #ffffff } 
	</style>
	<path id="Path 0" class="s0" d="m50.5 1.3c0.2 0.6 1.9 1.9 3.6 2.7 1.8 0.8 5.5 4 8.3 7 2.8 3 6.5 8 8.3 11 1.7 3 4.1 8.4 5.2 12 1.5 4.4 2.1 9 2.1 14.5 0 4.4-0.6 10.5-1.4 13.5-0.7 3-4.5 13.4-8.4 23-3.9 9.6-8 19.5-9.1 22-1.9 4.4-2 4.4-2.9 2-0.6-1.4-7.1-17.8-14.5-36.5-7.5-18.7-14.1-36.3-14.8-39-0.7-2.9-0.9-6.9-0.5-9.5 0.4-2.5 1.6-5.9 2.6-7.5 1.1-1.7 1.6-3.3 1.2-3.8-0.4-0.4-7.1-0.7-15-0.7-7.8 0-14.4 0.3-14.7 0.7-0.2 0.5 6.9 19.2 15.9 41.8 9 22.6 18.4 46.4 21 53 2.6 6.9 6 13.7 7.9 15.9 1.7 2.1 5 4.9 7.2 6.2 2.2 1.3 6.1 2.7 8.8 3.1 4.1 0.7 4.7 0.6 4.7-0.9 0-1-1.1-4.2-2.5-7-1.4-2.9-2.5-5.9-2.5-6.5 0-0.7 3.2-8.8 7.1-18 3.9-9.3 10.2-23.8 14.1-32.3 3.8-8.5 7.6-17.8 8.5-20.5 1-3.4 1.4-7.8 1.1-13.5-0.2-6.3-0.9-9.6-2.6-13-1.3-2.5-4.2-6.7-6.5-9.4-2.3-2.7-6-5.8-8.2-6.9-2.2-1.1-6.3-2.6-9-3.3-2.8-0.8-7.3-1.4-10.2-1.4-3.7 0-5.1 0.4-4.8 1.2zm53.2-0.1c0.1 0.8 1.5 2 3 2.6 1.5 0.7 4.3 2.7 6 4.5l3.3 3.3c-21.2 25.4-21.8 26.3-22.9 32.5-0.6 3.6-2.5 9.3-4.1 12.8-1.7 3.4-3 6.8-3 7.4 0 0.7 4.1 11.6 9 24.3 5 12.7 9.8 24.8 10.8 27 0.9 2.2 3.5 6 5.7 8.4 2.2 2.4 5.8 5.3 8 6.4 2.8 1.4 6.6 2.2 12.5 2.5 4.7 0.3 9.4 0.2 10.5-0.2 1.8-0.7 1.7-0.9-1-2-1.7-0.7-4.7-2.8-6.9-4.7-2.1-1.9-5.1-5.7-6.6-8.4-1.5-2.8-4.6-9.3-6.8-14.5-2.2-5.2-7.2-17.4-11.2-27-4-9.6-7.9-19.5-8.6-22-0.8-2.5-1.4-6.1-1.3-8 0-1.9 0.3-4.3 0.7-5.2 0.4-0.9 4.7-6.5 9.7-12.4l9-10.7c3.4 7.6 11.2 27.1 19.5 48.3 8.3 21.2 16.1 41 17.2 44 1.2 3 2.8 6.6 3.7 8 0.8 1.4 3.1 4.2 5 6.3 2 2.1 5.4 4.8 7.6 6 3.1 1.6 6.2 2.2 13.7 2.4 5.4 0.2 9.8 0 9.8-0.4 0-0.5-1.1-1.4-2.5-2-1.4-0.7-4.1-2.8-6.1-4.5-2-1.8-5.1-6-6.9-9.3-1.9-3.3-4.7-9.4-6.4-13.5-1.6-4.1-5.8-14-9.1-22-3.4-8-7.5-18.1-9.1-22.5-1.6-4.4-2.9-10-2.9-12.5 0-2.6 0.8-5.7 1.8-7.2 0.9-1.5 5.1-6.8 9.2-11.7 4.1-4.9 7.7-9 8-9.1 0.3 0 1.3 1.6 2.2 3.7 0.9 2.1 9.4 23.4 18.8 47.3 9.4 23.9 17.9 45.3 18.8 47.4 0.9 2.2 3.4 5.6 5.4 7.8 2.1 2.1 5.7 4.8 8 6 3.4 1.7 6.4 2.2 14 2.5 6.1 0.2 9.8-0.1 9.8-0.7 0-0.6-1.7-1.8-3.8-2.9-2-1-5.1-3.6-6.8-5.7-1.7-2.1-4.4-6.4-5.9-9.4-1.5-3-5.2-11.3-8.2-18.5-3-7.2-11.5-28.3-19-47-11.7-29.1-14.3-34.6-17.8-38.3-2.2-2.4-6.5-5.5-9.5-7-4-1.9-7.7-2.8-13.8-3.2-7.6-0.5-8.3-0.3-7.8 1.3 0.3 0.9 1.6 2 2.8 2.4 1.3 0.4 4 2.2 6 4l3.8 3.3c-7.4 8.9-12.3 14.8-15.7 18.8l-6.3 7.2c-2.4-5.8-4.1-10.3-5.3-13.8-1.2-3.5-3.8-8.4-5.7-11-2.5-3.2-5.6-5.8-10-8.1-5.3-2.7-8-3.4-14.6-3.8-6.5-0.5-8-0.3-7.7 0.8zm790.8 22.9c-3.3 1.1-8.2 3.5-11 5.3-2.7 1.8-6.6 5.3-8.6 7.8-2 2.4-4.6 6.2-5.7 8.4-1.1 2.2-2.5 6-3.2 8.5-0.6 2.5-1.1 8.1-1.1 12.5 0 5.2 0.7 10.3 2 14.5 1.2 3.6 3.8 8.9 5.8 11.9 2.1 2.9 6.1 7 8.8 9 2.8 2.1 7.5 4.8 10.5 6.1 3.5 1.4 8.4 2.4 13.5 2.8 4.4 0.2 10.5-0.1 13.5-0.7 3-0.6 8.2-2.4 11.5-4 3.3-1.6 8.1-5.1 10.6-7.8 2.5-2.6 5.5-6.6 6.7-8.8 1.2-2.2 1.8-4.3 1.4-4.8-0.4-0.4-4.4-0.7-8.9-0.7-8.2 0-8.3 0-9.8 3-0.8 1.7-3 4.1-4.7 5.5-1.8 1.4-5.5 3.2-8.3 4-2.7 0.8-6.8 1.5-9 1.5-2.2 0-6.3-0.8-9-1.8-2.8-0.9-6.4-2.8-8.1-4.2-1.7-1.4-4.2-4.1-5.6-6-1.4-1.9-3.4-6.2-4.3-9.5-1.3-4.3-1.6-8-1.2-13 0.3-3.8 1.2-8.8 2.2-11 0.9-2.2 2.9-5.6 4.5-7.5 1.5-1.9 5.2-4.8 8.1-6.5 4.8-2.7 6.3-3 13.9-3 7.2 0 9.2 0.4 13 2.5 2.4 1.4 5.8 4.4 7.5 6.7l3 4.2c12.5 0.1 16.5-0.2 16.8-0.6 0.3-0.5-0.3-2.6-1.5-4.8-1.2-2.2-3.3-5.5-4.7-7.3-1.4-1.8-5.1-4.9-8.1-6.9-3-2.1-8.1-4.5-11.2-5.5-3.8-1.2-8.8-1.8-14.5-1.7-5.8 0-10.8 0.7-14.8 1.9zm-118.8-0.4c-3.1 0.9-6.4 3-9.6 6.2-3.2 3-5.3 6.1-6 8.7-0.6 2.2-1.1 6.3-1.1 9 0 2.8 0.9 6.8 1.8 9 1 2.2 3.6 5.5 5.8 7.2 2.1 1.8 5.7 3.9 7.9 4.7 2.2 0.8 8.5 2.8 14 4.4 8.6 2.6 10.5 3.6 13.4 6.9 3 3.4 3.3 4.3 2.8 7.8-0.4 2.6-1.7 5-3.7 7-2.9 2.8-3.5 3-11 3-7.4 0-8.1-0.2-10.9-3-1.7-1.6-3.3-4.2-3.6-5.7-0.5-2.8-0.6-2.8-8.5-2.8h-8c0 5 1 8.5 2.3 11 1.3 2.5 4.3 6 6.8 7.8 2.4 1.9 6.7 4 9.4 4.8 2.8 0.8 8.1 1.4 12 1.4 4 0 9.3-0.7 12.4-1.7 3-1 7.2-3.4 9.4-5.3 2.2-1.9 5.1-5.7 6.4-8.5 1.5-3.3 2.3-6.9 2.3-10.5 0-3.7-0.7-6.9-2.2-10-1.3-2.5-4.1-5.8-6.3-7.5-2.4-1.9-8.7-4.5-16-6.9-6.6-2.1-13.7-4.8-15.8-6-2.6-1.4-4.1-3.2-4.9-5.6-0.9-2.7-0.8-4.3 0.3-6.9 0.8-1.9 2.8-4.3 4.4-5.3 1.9-1.1 5-1.8 8.5-1.8 3.7 0 6.5 0.6 8.8 2 1.7 1.1 3.9 3.6 4.7 5.5l1.5 3.5h16c-0.9-5.8-2.2-9.4-3.6-11.7-1.4-2.5-4.4-5.6-7.1-7.3-2.7-1.7-6.4-3.5-8.3-4-1.9-0.6-7.1-1-11.5-0.9-4.4 0-10.1 0.7-12.7 1.5zm-506.1 0.1c-0.2 0.4 6.8 20 15.7 43.6l16.1 42.7 17.8-0.5c24.5-65.1 31.7-84.6 31.7-85.3 0-0.9-2.1-1.1-7.6-1l-7.7 0.3c-18.4 51.2-24.1 67.1-24.5 68.5-0.6 2-3.1-4.1-13.4-33l-12.6-35.5c-11.6-0.5-15.2-0.2-15.5 0.2zm93.3 42.8v43.5h15v-87h-15zm33 0v43.5h49v-12h-34v-26h30v-12h-30v-25h34v-12h-49zm61-37.5v6h23v75h15v-75h23v-12h-61zm107 37.5v43.5h15l0.5-57.1 25.3 56.6h11.3l24.4-54.9 0.5 55.4h16v-87h-16.5c-21.6 48.4-28.3 63.5-28.9 64.8-1 2-2.8-1.6-16.1-31.3l-15-33.5h-16.5zm110.2-11.7c0.4 26.3 0.7 32.5 2.1 36.2 0.9 2.5 3.6 6.8 6 9.5 2.7 3.1 6.4 5.9 9.8 7.5 4.7 2.1 6.9 2.5 15.9 2.5 8 0 11.7-0.5 15.5-1.9 2.8-1.1 7-3.8 9.5-6.1 2.5-2.3 5.6-6.6 7-9.6 2.5-5.4 2.5-5.5 2.6-37.6l0.2-32.3h-14.8c0 45.4-0.5 60.2-1 62.3-0.6 2-2.3 5.2-3.9 7-1.5 1.7-4.6 3.8-6.7 4.4-2.1 0.7-5.9 1.3-8.4 1.3-2.7 0-6.2-0.9-8.9-2.2-2.5-1.3-5.3-3.4-6.3-4.8-1-1.4-2.3-5.2-2.8-8.5-0.5-3.3-1-18-1-32.8v-26.7h-15.1zm161.7 11.8v43.4h15v-87h-15z"/>
</svg>