<svg width="1025" height="1024" xmlns="http://www.w3.org/2000/svg" xml:space="preserve" version="1.1">

 <g>
  <title>Layer 1</title>
  <g stroke="null" id="svg_4">
   <path stroke="null" id="svg_1" d="m512.5,1021.61917c-29.54314,0 -59.08628,-12.30964 -83.70556,-34.467l-83.70556,-81.24364c-24.61928,-24.61928 -56.62435,-36.92893 -91.09135,-36.92893l-36.92893,0c-91.09135,0 -167.41113,-73.85785 -167.41113,-164.9492l0,-536.70038c0,-91.09135 73.85785,-164.9492 167.41113,-164.9492l590.86281,0c91.09135,0 167.41113,73.85785 167.41113,164.9492l0,536.70038c0,91.09135 -73.85785,164.9492 -167.41113,164.9492l-36.92893,0c-34.467,0 -66.47207,12.30964 -91.09135,36.92893l-83.70556,83.70556c-24.61928,22.15736 -54.16242,32.00507 -83.70556,32.00507zm-295.4314,-982.30942c-71.39592,0 -130.4822,56.62435 -130.4822,128.02028l0,536.70038c0,71.39592 59.08628,128.02028 130.4822,128.02028l36.92893,0c44.31471,0 86.16749,17.2335 118.17256,49.23857l83.70556,83.70556c32.00507,32.00507 81.24364,32.00507 113.2487,0l83.70556,-83.70556c32.00507,-32.00507 73.85785,-49.23857 118.17256,-49.23857l36.92893,0c71.39592,0 130.4822,-56.62435 130.4822,-128.02028l0,-536.70038c0,-71.39592 -59.08628,-128.02028 -130.4822,-128.02028l-590.86281,0z"/>
   <path stroke="null" id="svg_2" d="m433.7183,617.86292l-132.94413,0c-14.77157,0 -29.54314,-7.38579 -39.39085,-19.69543c-9.84771,-12.30964 -12.30964,-27.08121 -7.38579,-39.39085c14.77157,-46.77664 54.16242,-73.85785 91.09135,-98.47713c36.92893,-24.61928 68.93399,-46.77664 68.93399,-86.16749c0,-36.92893 -29.54314,-64.01014 -64.01014,-64.01014s-64.01014,29.54314 -64.01014,64.01014c0,9.84771 -7.38579,19.69543 -19.69543,19.69543s-19.69543,-7.38579 -19.69543,-19.69543c0,-56.62435 46.77664,-100.93906 100.93906,-100.93906s100.93906,46.77664 100.93906,100.93906c0,59.08628 -46.77664,91.09135 -86.16749,118.17256c-32.00507,22.15736 -64.01014,44.31471 -76.31978,78.78171c0,2.46193 0,4.92386 2.46193,7.38579c2.46193,2.46193 4.92386,4.92386 9.84771,4.92386l132.94413,0c9.84771,0 19.69543,7.38579 19.69543,19.69543s-7.38579,14.77157 -17.2335,14.77157z"/>
   <path stroke="null" id="svg_3" d="m711.9162,617.86292c-9.84771,0 -19.69543,-7.38579 -19.69543,-19.69543l0,-51.7005l-115.71063,0c-17.2335,0 -34.467,-9.84771 -41.85278,-24.61928c-9.84771,-14.77157 -9.84771,-34.467 0,-49.23857c32.00507,-56.62435 71.39592,-123.09642 108.32485,-179.72077c12.30964,-17.2335 32.00507,-27.08121 54.16242,-19.69543c19.69543,4.92386 34.467,24.61928 34.467,44.31471l0,192.03041l27.08121,0c9.84771,0 19.69543,7.38579 19.69543,19.69543c0,9.84771 -7.38579,19.69543 -19.69543,19.69543l-29.54314,0l0,51.7005c0,7.38579 -7.38579,17.2335 -17.2335,17.2335zm-29.54314,-310.20297c-2.46193,0 -7.38579,2.46193 -9.84771,4.92386c-34.467,56.62435 -73.85785,123.09642 -105.86292,179.72077c-2.46193,2.46193 -2.46193,9.84771 0,12.30964c2.46193,4.92386 7.38579,4.92386 12.30964,4.92386l115.71063,0l0,-192.03041c0,-4.92386 -2.46193,-7.38579 -7.38579,-9.84771c-2.46193,0 -2.46193,0 -4.92386,0z"/>
  </g>
 </g>
</svg>