<svg width="1025" height="1024" xmlns="http://www.w3.org/2000/svg" xml:space="preserve" version="1.1">

 <g>
  <title>Layer 1</title>
  <path stroke="null" id="svg_1" fill="#231F20" d="m510.09382,3.09204c-101.05974,0 -190.08855,28.87421 -257.46171,79.40408c-67.37316,48.12368 -110.68447,120.30921 -110.68447,197.3071s43.31132,149.18342 110.68447,199.71329c24.06184,19.24947 52.93605,33.68658 84.21645,45.7175c-40.90513,7.21855 -79.40408,16.84329 -110.68447,28.87421c-36.09276,12.03092 -69.77934,28.87421 -91.435,48.12368c-24.06184,19.24947 -38.49895,43.31132 -38.49895,72.18553l0,125.12158c0,50.52987 36.09276,105.8721 103.46592,149.18342c67.37316,43.31132 170.83908,72.18553 312.80395,72.18553c141.96487,0 245.43079,-31.28039 312.80395,-74.59171s103.46592,-98.65355 103.46592,-149.18342l0,-125.12158c0,-28.87421 -16.84329,-52.93605 -38.49895,-72.18553c-24.06184,-19.24947 -55.34224,-36.09276 -91.435,-48.12368c-33.68658,-12.03092 -69.77934,-21.65566 -110.68447,-28.87421c31.28039,-12.03092 60.1546,-28.87421 84.21645,-45.7175c67.37316,-48.12368 110.68447,-120.30921 110.68447,-199.71329s-43.31132,-149.18342 -110.68447,-197.3071c-72.18553,-45.7175 -161.21434,-76.99789 -262.27408,-76.99789zm0,48.12368c91.435,0 173.24526,26.46803 230.99368,69.77934c57.74842,43.31132 91.435,98.65355 91.435,161.21434c0,62.56079 -33.68658,117.90303 -91.435,161.21434c-57.74842,40.90513 -139.55868,69.77934 -230.99368,69.77934s-173.24526,-26.46803 -230.99368,-69.77934c-57.74842,-43.31132 -91.435,-98.65355 -91.435,-161.21434c0,-62.56079 33.68658,-117.90303 91.435,-161.21434c57.74842,-43.31132 139.55868,-69.77934 230.99368,-69.77934zm4.81237,72.18553c-2.40618,0 -2.40618,0 -2.40618,0c-2.40618,0 -4.81237,2.40618 -7.21855,4.81237l-170.83908,110.68447c-9.62474,7.21855 -14.43711,21.65566 -7.21855,31.28039c7.21855,9.62474 21.65566,14.43711 31.28039,7.21855l170.83908,-110.68447c9.62474,-4.81237 14.43711,-16.84329 12.03092,-26.46803c-4.81237,-12.03092 -16.84329,-19.24947 -26.46803,-16.84329zm129.93395,40.90513c-4.81237,0 -7.21855,2.40618 -9.62474,4.81237l-274.305,175.65145c-7.21855,4.81237 -12.03092,12.03092 -12.03092,21.65566c0,9.62474 4.81237,16.84329 12.03092,19.24947c7.21855,4.81237 16.84329,2.40618 24.06184,-2.40618l271.89881,-175.65145c9.62474,-4.81237 14.43711,-16.84329 12.03092,-26.46803c-2.40618,-9.62474 -12.03092,-16.84329 -24.06184,-16.84329c0,0 0,0 0,0zm28.87421,108.27829c-2.40618,0 -7.21855,2.40618 -9.62474,2.40618l-170.83908,110.68447c-7.21855,4.81237 -12.03092,12.03092 -12.03092,21.65566c0,9.62474 4.81237,16.84329 14.43711,21.65566c7.21855,4.81237 16.84329,2.40618 24.06184,-2.40618l170.83908,-110.68447c9.62474,-4.81237 14.43711,-16.84329 9.62474,-26.46803c-7.21855,-12.03092 -16.84329,-19.24947 -26.46803,-16.84329zm-163.62053,286.33592c105.8721,0 202.11947,14.43711 269.49263,38.49895c33.68658,12.03092 60.1546,26.46803 76.99789,40.90513c16.84329,14.43711 21.65566,26.46803 21.65566,36.09276s-4.81237,21.65566 -21.65566,36.09276c-16.84329,14.43711 -43.31132,28.87421 -76.99789,40.90513c-67.37316,24.06184 -163.62053,38.49895 -269.49263,38.49895c-105.8721,0 -202.11947,-14.43711 -269.49263,-38.49895c-33.68658,-12.03092 -60.1546,-26.46803 -76.99789,-40.90513c-16.84329,-14.43711 -21.65566,-26.46803 -21.65566,-36.09276s4.81237,-21.65566 21.65566,-36.09276c16.84329,-14.43711 43.31132,-28.87421 76.99789,-40.90513c67.37316,-24.06184 163.62053,-38.49895 269.49263,-38.49895zm0,45.7175c-72.18553,0 -137.1525,4.81237 -182.87,14.43711c-24.06184,4.81237 -43.31132,9.62474 -60.1546,16.84329c-7.21855,2.40618 -14.43711,7.21855 -21.65566,12.03092c-7.21855,4.81237 -12.03092,14.43711 -12.03092,26.46803c0,12.03092 7.21855,21.65566 12.03092,26.46803c7.21855,4.81237 12.03092,9.62474 21.65566,12.03092c16.84329,7.21855 36.09276,12.03092 60.1546,16.84329c48.12368,9.62474 113.09066,14.43711 182.87,14.43711s137.1525,-4.81237 182.87,-14.43711c24.06184,-4.81237 43.31132,-9.62474 60.1546,-16.84329c7.21855,-2.40618 14.43711,-7.21855 21.65566,-12.03092c7.21855,-4.81237 12.03092,-14.43711 12.03092,-26.46803c0,-12.03092 -7.21855,-21.65566 -12.03092,-26.46803c-7.21855,-4.81237 -12.03092,-9.62474 -21.65566,-12.03092c-16.84329,-7.21855 -36.09276,-12.03092 -60.1546,-16.84329c-45.7175,-9.62474 -110.68447,-14.43711 -182.87,-14.43711zm0,45.7175c69.77934,0 132.34013,4.81237 175.65145,12.03092c16.84329,2.40618 28.87421,7.21855 38.49895,9.62474c-9.62474,2.40618 -21.65566,7.21855 -38.49895,9.62474c-43.31132,7.21855 -105.8721,12.03092 -175.65145,12.03092c-69.77934,0 -132.34013,-4.81237 -175.65145,-12.03092c-16.84329,-2.40618 -28.87421,-7.21855 -38.49895,-9.62474c9.62474,-2.40618 21.65566,-7.21855 38.49895,-9.62474c43.31132,-7.21855 105.8721,-12.03092 175.65145,-12.03092zm-370.55237,101.05974c21.65566,16.84329 50.52987,31.28039 84.21645,43.31132c74.59171,26.46803 175.65145,40.90513 286.33592,40.90513s211.74421,-14.43711 286.33592,-40.90513c33.68658,-12.03092 62.56079,-26.46803 84.21645,-43.31132l0,48.12368c0,26.46803 -21.65566,72.18553 -81.81026,108.27829c-60.1546,36.09276 -153.99579,67.37316 -288.7421,67.37316c-134.74632,0 -228.5875,-28.87421 -288.7421,-67.37316c-57.74842,-36.09276 -81.81026,-81.81026 -81.81026,-110.68447l0,-45.7175z" class="st0"/>
 </g>
</svg>