<?xml version="1.0" encoding="utf-8"?>
<!-- Generator: Adobe Illustrator 17.0.0, SVG Export Plug-In . SVG Version: 6.00 Build 0)  -->
<!DOCTYPE svg PUBLIC "-//W3C//DTD SVG 1.1//EN" "http://www.w3.org/Graphics/SVG/1.1/DTD/svg11.dtd">
<svg version="1.1" id="Layer_1" xmlns="http://www.w3.org/2000/svg" xmlns:xlink="http://www.w3.org/1999/xlink" x="0px" y="0px"
	 width="1025px" height="1024px" viewBox="0 0 1025 1024" enable-background="new 0 0 1025 1024" xml:space="preserve">
<g><path d="M102.691 987.274c-4.847-0.001-9.511-0.786-13.872-2.234l0.311 0.089c-12.289-4.059-21.955-13.11-26.754-24.689l-0.106-0.288c-22.074-54.476-34.882-117.662-34.882-183.84 0-15.773 0.728-31.377 2.151-46.778l-0.147 1.976c1.17-14.369 9.192-26.642 20.758-33.656l0.193-0.109 179.366-108.032c16.473-10.066 35.792-17.349 56.443-20.638l0.901-0.118 250.617-38.746c2.94-0.475 6.329-0.746 9.782-0.746 31.907 0 58.405 23.159 63.602 53.584l0.054 0.382c0 0.083 0.221 1.384 0.221 1.522 0.544 3.174 0.854 6.829 0.854 10.558 0 30.103-20.257 55.474-47.884 63.226l-0.462 0.111c-48.502 13.215-123.835 34-160.062 44.018-1.933 0.509-3.512 1.754-4.451 3.41l-0.019 0.036c-0.571 1.025-0.908 2.249-0.908 3.552 0 0.792 0.124 1.555 0.355 2.271l-0.015-0.052c6.081 19.122 22.935 33.040 43.259 34.707l0.178 0.012c1.104 0.078 2.391 0.123 3.69 0.123 2.083 0 4.14-0.115 6.163-0.339l-0.249 0.022 164.615-18.972c3.003-0.401 6.061-0.83 9.147-1.384 19.281-3.9 36.257-11.843 50.686-22.935l-0.289 0.213 205.16-157.571c11.961-9.194 27.148-14.735 43.628-14.735 18.121 0 34.678 6.699 47.329 17.755l-0.084-0.072c14.964 13.209 24.352 32.435 24.352 53.853 0 20.683-8.755 39.322-22.762 52.411l-0.041 0.038-86.639 80.619-140.828 122.811c-19.796 17.341-42.798 31.663-67.901 41.898l-1.62 0.584-85.587 34.193c-25.848 10.995-55.914 17.386-87.473 17.386-10.749 0-21.325-0.741-31.679-2.176l1.198 0.136-181.58-27.468c-7.2-1.133-15.504-1.78-23.959-1.78-31.641 0-61.165 9.062-86.119 24.731l0.676-0.396-56.32 34.954c-6.522 4.125-14.46 6.573-22.97 6.573-0.010 0-0.020-0-0.030-0l0.002 0zM547.536 557.001c-2.007 0.005-3.972 0.166-5.888 0.471l0.215-0.028-250.645 38.746c-17.769 2.829-33.693 8.849-47.845 17.485l0.575-0.326-179.325 108.101c-4.254 2.547-7.17 6.95-7.634 12.061l-0.004 0.061c-1.231 12.824-1.933 27.725-1.933 42.791 0 62.401 12.045 121.988 33.937 176.564l-1.131-3.194c1.796 4.32 5.327 7.611 9.699 9.046l0.112 0.032c1.485 0.503 3.195 0.794 4.974 0.794 3.119 0 6.029-0.893 8.488-2.438l-0.067 0.039 56.375-34.968c28.418-17.891 62.979-28.505 100.021-28.505 9.908 0 19.638 0.759 29.137 2.223l-1.060-0.134 180.791 27.385c8.115 1.157 17.487 1.818 27.013 1.818 27.902 0 54.48-5.669 78.645-15.918l-1.321 0.498 85.601-34.179c23.683-9.583 44.067-22.277 61.852-37.864l-0.246 0.211 140.496-122.506 86.293-80.259c8.658-8.050 14.058-19.504 14.058-32.218 0-24.272-19.677-43.949-43.949-43.949-10.153 0-19.502 3.443-26.943 9.225l0.099-0.074-205.174 157.35c-17.427 13.389-38.348 23.157-61.139 27.775l-0.966 0.163c-3.695 0.678-7.196 1.176-10.849 1.647l-31.827 3.736c-0.304 0-0.623 0-0.927 0.083l-132.262 15.222c-2.709 0.305-5.85 0.478-9.032 0.478-1.993 0-3.97-0.068-5.928-0.202l0.265 0.015c-31.996-2.635-58.298-24.352-67.654-53.64l-0.151-0.549c-1-3.101-1.576-6.668-1.576-10.37 0-16.035 10.814-29.544 25.547-33.632l0.245-0.058c36.144-9.991 111.533-30.789 160.048-44.004 16.234-4.609 27.925-19.301 27.925-36.723 0-2.2-0.186-4.357-0.544-6.455l0.032 0.225s-0.208-1.384-0.221-1.494c-3.051-17.455-18.092-30.554-36.192-30.554-0.003 0-0.006 0-0.009 0l0-0z"></path><path d="M678.884 514.048c-88.302-0.087-159.863-71.638-159.965-159.928l-0-0.010c0-83.857 142.322-301.9 148.369-311.144 2.651-3.56 6.847-5.84 11.575-5.84s8.925 2.281 11.548 5.802l0.027 0.038c6.047 9.244 148.369 227.286 148.369 311.144-0.102 88.285-71.64 159.828-159.913 159.938l-0.011 0zM678.884 76.122c-45.457 71.735-132.29 220.575-132.29 277.988 0.765 72.47 59.691 130.923 132.269 130.923s131.504-58.453 132.268-130.85l0.001-0.073c0.014-57.413-86.805-206.253-132.248-278.002z"></path><path d="M678.884 414.789c-7.642 0-13.838-6.195-13.838-13.838v0-103.784c0-7.642 6.195-13.838 13.838-13.838s13.838 6.195 13.838 13.838v0 103.784c0 7.642-6.195 13.838-13.838 13.838v0z"></path><path d="M730.776 362.883h-103.784c-7.642 0-13.838-6.195-13.838-13.838s6.195-13.838 13.838-13.838v0h103.784c7.642 0 13.838 6.195 13.838 13.838s-6.195 13.838-13.838 13.838v0z"></path></g>
</svg>
