<svg width="1025" height="1024" xmlns="http://www.w3.org/2000/svg" xml:space="preserve" version="1.1">

 <g>
  <title>Layer 1</title>
  <g stroke="null" id="svg_6">
   <path stroke="null" id="svg_1" d="m512.49999,1021.21584c-227.67824,0 -416.18603,-186.05964 -416.18603,-416.18603c0,-271.745 261.95238,-501.87139 374.56743,-587.55675c24.48153,-19.58522 58.75567,-19.58522 83.23721,0l0,0c88.13351,68.54829 374.56743,310.91545 374.56743,587.55675c0,230.12639 -186.05964,416.18603 -416.18603,416.18603zm0,-979.26125c-7.34446,0 -12.24077,2.44815 -19.58522,7.34446c-83.23721,63.65198 -359.87851,293.77837 -357.43035,555.73076c0,208.09301 168.92256,379.46373 379.46373,379.46373c208.09301,0 379.46373,-168.92256 379.46373,-377.01558c-2.44815,-261.95238 -279.08946,-494.52693 -362.32666,-560.62706l0,0c-7.34446,-4.89631 -12.24077,-4.89631 -19.58522,-4.89631z"/>
   <path stroke="null" id="svg_2" d="m512.49999,1021.21584c-9.79261,0 -19.58522,-7.34446 -19.58522,-19.58522l0,-979.26125c0,-9.79261 7.34446,-19.58522 19.58522,-19.58522s19.58522,7.34446 19.58522,19.58522l0,979.26125c0,9.79261 -9.79261,19.58522 -19.58522,19.58522z"/>
   <path stroke="null" id="svg_3" d="m512.49999,871.8785c-7.34446,0 -12.24077,-4.89631 -17.13707,-9.79261c-4.89631,-9.79261 0,-19.58522 7.34446,-24.48153l377.01558,-183.61148c9.79261,-4.89631 19.58522,0 24.48153,7.34446c4.89631,9.79261 0,19.58522 -7.34446,24.48153l-377.01558,183.61148c-2.44815,0 -4.89631,2.44815 -7.34446,2.44815z"/>
   <path stroke="null" id="svg_4" d="m512.49999,627.06319c-7.34446,0 -12.24077,-4.89631 -17.13707,-9.79261c-4.89631,-9.79261 0,-19.58522 7.34446,-24.48153l359.87851,-176.26702c9.79261,-4.89631 19.58522,0 24.48153,7.34446c4.89631,9.79261 0,19.58522 -7.34446,24.48153l-359.87851,176.26702c-2.44815,0 -4.89631,2.44815 -7.34446,2.44815z"/>
   <path stroke="null" id="svg_5" d="m512.49999,382.24788c-7.34446,0 -12.24077,-4.89631 -17.13707,-9.79261c-4.89631,-9.79261 0,-19.58522 7.34446,-24.48153l247.26346,-119.9595c9.79261,-4.89631 19.58522,0 24.48153,7.34446c4.89631,9.79261 0,19.58522 -7.34446,24.48153l-247.26346,119.9595c-2.44815,0 -4.89631,2.44815 -7.34446,2.44815z"/>
  </g>
 </g>
</svg>