<svg width="1025" height="1024" xmlns="http://www.w3.org/2000/svg" style="vector-effect: non-scaling-stroke;" stroke="null" xml:space="preserve" version="1.1">

 <g stroke="null">
  <title stroke="null">Layer 1</title>
  <g stroke="null" id="svg_4">
   <path stroke="null" id="svg_1" d="m436.87279,805.66947c-2.46393,0 -7.39178,0 -9.8557,-2.46393c-4.92785,-2.46393 -7.39178,-9.8557 -7.39178,-14.78356c0,-9.8557 0,-17.24748 -2.46393,-24.63926c-4.92785,-39.42282 -22.17533,-73.91778 -51.74245,-103.4849c-29.56711,-29.56711 -66.526,-49.27852 -105.94882,-54.20637l-4.92785,0c-7.39178,0 -14.78356,0 -19.71141,0c-7.39178,0 -12.31963,-2.46393 -17.24748,-7.39178s-4.92785,-12.31963 -2.46393,-17.24748c7.39178,-17.24748 14.78356,-34.49497 27.10319,-46.8146l76.38171,-96.09312c128.12416,-160.1552 389.30032,-354.80536 581.48656,-431.18707c34.49497,-12.31963 71.45386,-4.92785 96.09312,19.71141c24.63926,24.63926 34.49497,61.59815 19.71141,93.62919c-76.38171,192.18624 -271.03187,453.3624 -431.18707,581.48656l-96.09312,78.84564c-12.31963,9.8557 -27.10319,17.24748 -44.35067,24.63926c-4.92785,0 -4.92785,0 -7.39178,0zm17.24748,-19.71141l0,0l0,0zm-194.65016,-216.8255l0,0c49.27852,7.39178 93.62919,29.56711 130.58808,64.06208c34.49497,34.49497 56.6703,76.38171 61.59815,123.19631c0,0 0,0 0,0c4.92785,-2.46393 7.39178,-4.92785 12.31963,-7.39178l96.09312,-76.38171c155.22734,-125.66023 344.94965,-379.44462 418.86744,-566.703c0,0 0,0 0,0c7.39178,-19.71141 2.46393,-39.42282 -12.31963,-54.20637c-14.78356,-14.78356 -34.49497,-19.71141 -56.6703,-12.31963c-187.25838,73.91778 -441.04277,263.64009 -566.703,418.86744l-76.38171,96.09312c0,7.39178 -4.92785,9.8557 -7.39178,14.78356z"/>
   <path stroke="null" id="svg_2" d="m123.95418,1022.49496c-32.03104,0 -64.06208,-12.31963 -86.23741,-36.95889c-27.10319,-27.10319 -39.42282,-64.06208 -34.49497,-101.02097l12.31963,-120.73238c12.31963,-110.87667 103.4849,-192.18624 216.8255,-194.65016c9.8557,0 22.17533,0 32.03104,0c49.27852,7.39178 93.62919,29.56711 128.12416,64.06208c34.49497,34.49497 56.6703,76.38171 61.59815,123.19631l0,9.8557c0,7.39178 0,12.31963 0,19.71141c0,59.13423 -22.17533,115.80453 -64.06208,157.69127c-34.49497,34.49497 -78.84564,56.6703 -130.58808,61.59815l-120.73238,12.31963c-4.92785,4.92785 -9.8557,4.92785 -14.78356,4.92785zm115.80453,-416.40351c-2.46393,0 -4.92785,0 -7.39178,0c-81.30956,2.46393 -167.54698,59.13423 -179.86661,162.61912l-12.31963,120.73238c-2.46393,27.10319 4.92785,51.74245 24.63926,71.45386c19.71141,19.71141 44.35067,27.10319 68.98993,24.63926l120.73238,-12.31963c41.88674,-4.92785 81.30956,-24.63926 108.41275,-51.74245c34.49497,-34.49497 54.20637,-81.30956 54.20637,-133.05201c0,-4.92785 0,-12.31963 0,-17.24748l0,-9.8557c-4.92785,-36.95889 -22.17533,-71.45386 -51.74245,-101.02097c-29.56711,-29.56711 -66.526,-49.27852 -105.94882,-54.20637c-7.39178,0 -12.31963,0 -19.71141,0z"/>
   <path stroke="null" id="svg_3" d="m624.13118,650.44212c-9.8557,0 -19.71141,-7.39178 -19.71141,-19.71141c0,-118.26845 -96.09312,-214.36157 -214.36157,-214.36157c-9.8557,0 -19.71141,-7.39178 -19.71141,-19.71141s7.39178,-19.71141 19.71141,-19.71141c137.97986,0 251.32046,113.3406 251.32046,251.32046c0,14.78356 -7.39178,22.17533 -17.24748,22.17533z"/>
  </g>
 </g>
</svg>