<?xml version="1.0" encoding="utf-8"?>
<!-- Generator: Adobe Illustrator 17.0.0, SVG Export Plug-In . SVG Version: 6.00 Build 0)  -->
<!DOCTYPE svg PUBLIC "-//W3C//DTD SVG 1.1//EN" "http://www.w3.org/Graphics/SVG/1.1/DTD/svg11.dtd">
<svg version="1.1" id="Layer_1" xmlns="http://www.w3.org/2000/svg" xmlns:xlink="http://www.w3.org/1999/xlink" x="0px" y="0px"
	 width="1025px" height="1024px" viewBox="0 0 1025 1024" enable-background="new 0 0 1025 1024" xml:space="preserve">
<g>
    <path d="M277.7 587.9c-26.9 44.9-89.7 55.3-142 23.9-44.9-26.8-122.7-151-130.2-164.4-4.5-7.5-4.5-15 0-22.4s12-10.5 19.4-10.5c16.4 1.5 161.5 9 206.3 35.9s67.3 76.3 55.3 116.6c-1.4 7.5-4.3 13.5-8.8 20.9v0zM158.1 574.5c31.4 19.4 68.8 15 82.2-9 13.5-23.9 0-58.3-31.4-77.8-20.9-12-88.2-22.4-143.5-26.9 31.3 46.4 71.7 100.2 92.7 113.7v0z"></path>
    <path d="M715.8 553.6c13.5 49.3 73.3 76.3 131.6 59.8 50.8-15 157-113.6 169-125.6 6-6 9-13.5 6-22.4-1.5-7.5-9-13.5-16.4-15-16.4-3-158.5-32.9-209.3-17.9-49.3 15-83.7 55.3-83.7 98.7-0.2 7.4 1.3 14.9 2.8 22.4v0zM835.4 571.5c-35.9 10.5-70.3-3-77.8-29.9s15-56.8 50.8-67.3c23.9-7.5 89.7 1.5 145 10.5-41.7 37.4-94.1 80.7-118 86.7v0z"></path>
    <path d="M491.5 643.3c-52.3 0-92.7-50.8-92.7-110.6 1.5-52.3 70.3-180.9 77.8-194.4 4.5-7.5 12-12 19.4-12s15 4.5 19.4 12c7.5 15 71.8 143.5 71.8 195.9-1.5 52.3-32.9 95.7-73.3 106.2-7.5 1.4-14.9 2.9-22.4 2.9v0zM442.2 532.6c0 35.9 20.9 65.8 49.3 67.3 28.4 0 50.8-29.9 50.8-65.8 0-23.9-23.9-86.7-47.8-137.6-23.9 49.4-50.9 110.7-52.3 136.1v0z"></path>
</g>
</svg>
