<svg width="1025" height="1024" xmlns="http://www.w3.org/2000/svg" xmlns:xlink="http://www.w3.org/1999/xlink" xml:space="preserve" version="1.1">
 <g>
	<path fill="rgb(0, 0, 0)" d="M687.335 0c-34.094 0-63.926 12.785-89.496 38.355l-554.021 554.021c-55.402 55.402-59.664 153.421-4.262 208.823v0l42.617 46.879c0 4.262 0 4.262 4.262 4.262 0 0 0 0 0 0s0 0 0 0l161.945 161.945c8.523 8.523 21.309 8.523 29.832 0s8.523-21.309 0-29.832l-153.421-149.16c4.262-8.523 12.785-25.57 21.309-42.617l161.945 161.945c8.523 8.523 21.309 8.523 29.832 0s8.523-21.309 0-29.832l-161.945-161.945 34.094-29.832 161.945 161.945c8.523 8.523 21.309 8.523 29.832 0s8.523-21.309 0-29.832l-161.945-161.945 34.094-34.094 161.945 161.945c8.523 8.523 21.309 8.523 29.832 0s8.523-21.309 0-29.832l-166.206-161.945 34.094-34.094 161.945 161.945c8.523 8.523 21.309 8.523 29.832 0s8.523-21.309 0-29.832l-161.945-161.945 34.094-34.094 161.945 161.945c8.523 8.523 21.309 8.523 29.832 0s8.523-21.309 0-29.832l-166.206-153.421 29.832-34.094 161.945 161.945c8.523 8.523 21.309 8.523 29.832 0s8.523-21.309 0-29.832l-161.945-161.945 34.094-29.832 161.945 161.945c8.523 8.523 21.309 8.523 29.832 0s8.523-21.309 0-29.832l-161.945-161.945 34.094-34.094 161.945 161.945c8.523 8.523 21.309 8.523 29.832 0s8.523-21.309 0-29.832l-161.945-161.945 25.57-29.832 161.945 161.945c8.523 8.523 21.309 8.523 29.832 0s8.523-21.309 0-29.832l-161.945-161.945 29.832-34.094 161.945 161.945c8.523 8.523 21.309 8.523 29.832 0s8.523-21.309 0-29.832l-157.683-157.683 34.094-34.094 157.683 161.945c8.523 8.523 21.309 8.523 29.832 0s8.523-21.309 0-29.832l-161.945-161.945c17.047-8.523 29.832-17.047 42.617-21.309l153.421 153.421c8.523 8.523 21.309 8.523 29.832 0s8.523-21.309 0-29.832l-166.206-161.945c0 0 0 0 0 0s0 0 0 0 0 0 0 0 0 0 0 0v0c0 0 0 0 0 0l-51.14-46.879c-29.832-29.832-63.926-42.617-98.019-42.617-4.262 0-8.523 0-12.785 0zM695.858 42.617c25.57 0 55.402 12.785 68.187 25.57 0 0 0 0 0 0l34.094 29.832c-17.047 8.523-34.094 21.309-46.879 34.094 0 0 0 0 0 0l-622.209 622.209c-12.785 12.785-25.57 34.094-34.094 46.879l-29.832-29.832c0 0 0 0 0 0-34.094-34.094-34.094-110.804 4.262-149.16l554.021-554.021c21.309-21.309 46.879-29.832 72.449-25.57z"></path>
 </g>
</svg>