<svg width="1025" height="1024" xmlns="http://www.w3.org/2000/svg" xml:space="preserve" version="1.1">

 <g>
  <title>Layer 1</title>
  <g stroke="null" id="svg_7">
   <path stroke="null" id="svg_1" d="m521.95984,857.28467c-18.91971,0 -37.83941,-14.18978 -37.83941,-37.83941l0,-99.32846c0,-18.91971 14.18978,-37.83941 37.83941,-37.83941s37.83941,14.18978 37.83941,37.83941l0,99.32846c-4.72993,23.64963 -18.91971,37.83941 -37.83941,37.83941z"/>
   <path stroke="null" id="svg_2" d="m791.56566,1022.8321l-543.94157,0l0,-85.13868c0,-70.9489 56.75912,-132.43795 132.43795,-132.43795l283.7956,0c70.9489,0 132.43795,56.75912 132.43795,132.43795l0,85.13868l-4.72993,0zm-472.99267,-70.9489l402.04377,0l0,-14.18978c0,-33.10949 -28.37956,-61.48905 -61.48905,-61.48905l-283.7956,0c-33.10949,0 -61.48905,28.37956 -61.48905,61.48905l0,14.18978l4.72993,0z"/>
   <path stroke="null" id="svg_3" d="m805.75544,1022.8321l-567.5912,0c-18.91971,0 -37.83941,-14.18978 -37.83941,-37.83941s14.18978,-37.83941 37.83941,-37.83941l567.5912,0c18.91971,0 37.83941,14.18978 37.83941,37.83941s-18.91971,37.83941 -37.83941,37.83941z"/>
   <path stroke="null" id="svg_4" d="m512.49998,739.0365c-203.38685,0 -368.93428,-165.54743 -368.93428,-368.93428l0,-141.8978c0,-122.97809 99.32846,-227.03648 227.03648,-227.03648l283.7956,0c122.97809,0 227.03648,99.32846 227.03648,227.03648l0,141.8978c0,203.38685 -165.54743,368.93428 -368.93428,368.93428zm-141.8978,-662.18974c-85.13868,0 -151.35765,66.21897 -151.35765,151.35765l0,141.8978c0,160.81751 132.43795,297.98538 297.98538,297.98538s297.98538,-132.43795 297.98538,-297.98538l0,-141.8978c0,-85.13868 -70.9489,-156.08758 -156.08758,-156.08758l-288.52553,0l0,4.72993z"/>
   <path stroke="null" id="svg_5" d="m205.05475,530.91973c-4.72993,0 -9.45985,0 -9.45985,0c-42.56934,-14.18978 -75.67883,-37.83941 -108.78831,-66.21897c-52.02919,-61.48905 -80.40875,-127.70802 -80.40875,-193.92699c0,-85.13868 66.21897,-156.08758 156.08758,-156.08758l28.37956,0c14.18978,0 23.64963,4.72993 28.37956,14.18978c9.45985,9.45985 9.45985,23.64963 4.72993,33.10949c-9.45985,18.91971 -14.18978,37.83941 -14.18978,61.48905l0,141.8978c0,42.56934 9.45985,80.40875 23.64963,118.24817c4.72993,14.18978 4.72993,28.37956 -4.72993,37.83941c-4.72993,4.72993 -14.18978,9.45985 -23.64963,9.45985zm-61.48905,-345.28465c-37.83941,9.45985 -66.21897,42.56934 -66.21897,85.13868c0,52.02919 18.91971,99.32846 61.48905,146.62773c0,0 4.72993,4.72993 4.72993,4.72993c0,-18.91971 -4.72993,-37.83941 -4.72993,-56.75912l0,-141.8978c0,-14.18978 4.72993,-23.64963 4.72993,-37.83941z"/>
   <path stroke="null" id="svg_6" d="m819.94522,530.91973c-9.45985,0 -18.91971,-4.72993 -28.37956,-9.45985c-9.45985,-9.45985 -9.45985,-23.64963 -4.72993,-37.83941c14.18978,-37.83941 23.64963,-75.67883 23.64963,-118.24817l0,-141.8978c0,-18.91971 -4.72993,-37.83941 -9.45985,-56.75912c-4.72993,-14.18978 -4.72993,-23.64963 4.72993,-37.83941s18.91971,-14.18978 28.37956,-14.18978l28.37956,0c85.13868,0 156.08758,66.21897 156.08758,156.08758c0,70.9489 -28.37956,137.16787 -80.40875,193.92699c-33.10949,33.10949 -66.21897,56.75912 -108.78831,66.21897c0,0 -4.72993,0 -9.45985,0zm61.48905,-345.28465c0,9.45985 4.72993,23.64963 4.72993,33.10949l0,141.8978c0,18.91971 0,37.83941 -4.72993,56.75912c4.72993,-4.72993 4.72993,-4.72993 9.45985,-9.45985c37.83941,-42.56934 61.48905,-94.59853 61.48905,-146.62773c-4.72993,-33.10949 -33.10949,-66.21897 -70.9489,-75.67883z"/>
  </g>
 </g>
</svg>