<?xml version="1.0" encoding="utf-8"?>
<!-- Generator: Adobe Illustrator 17.0.0, SVG Export Plug-In . SVG Version: 6.00 Build 0)  -->
<!DOCTYPE svg PUBLIC "-//W3C//DTD SVG 1.1//EN" "http://www.w3.org/Graphics/SVG/1.1/DTD/svg11.dtd">
<svg version="1.1" id="Layer_1" xmlns="http://www.w3.org/2000/svg" xmlns:xlink="http://www.w3.org/1999/xlink" x="0px" y="0px"
	 width="1025px" height="1024px" viewBox="0 0 1025 1024" enable-background="new 0 0 1025 1024" xml:space="preserve">
<g><path d="M1014.448 534.202c-30.741-40.988-61.482-40.988-136.627-1.707l-75.145 46.309v-399.831c0-27.325-22.201-51.235-51.235-51.235h-153.704v-17.078c0-10.247-6.831-17.078-17.078-17.078h-170.782c-10.247 0-17.078 6.831-17.078 17.078v17.078h-153.704c-27.325 0-51.235 22.201-51.235 51.235v307.412c-26.704 10.749-50.904 24.653-68.312 35.774v-35.776h-119.549v444.035h119.547v-51.235h222.016c34.157 0 70.021-3.416 104.177-5.123l222.016-34.157c8.54 0 17.078-1.707 23.91-3.416 20.494-3.416 39.281-13.663 56.358-29.034l257.881-204.939c20.496-17.078 23.912-47.818 8.542-68.312zM426.955 127.739h136.627v134.917l-58.065-46.111c-5.123-5.123-13.663-5.123-20.494 0l-58.065 46.111v-134.917zM222.016 178.973c0-8.54 6.831-17.078 17.078-17.078h153.704v104.177c0 11.954 6.831 23.91 18.787 29.034 3.28 1.641 8.138 3.264 13.055 3.392 7.429 0.576 14.61-1.397 21.102-6.807l49.528-39.281 46.111 39.281c6.677 4.451 14.078 6.709 21.731 6.338 5.18 0.28 10.509-0.636 15.841-2.922 11.954-5.123 18.787-17.078 18.787-29.034v-104.179h150.288c8.54 0 17.078 6.831 17.078 17.078v421.834l-35.864 22.201c-20.222 11.796-65.378 15.276-107.591 15.366 8.536-15.37 5.119-34.155-10.249-56.354-27.325-39.281-73.436-63.189-122.963-63.189h-66.605c-35.864 0-70.021-10.247-97.346-30.741-15.677-11.756-33.603-17.254-52.39-18.442-2.972-0.224-6.002-0.344-9.092-0.344-11.954 0-25.617 1.707-40.988 5.123v-295.454zM85.392 896.259h-51.235v-375.721h51.235v375.721zM985.414 578.604l-259.588 201.525-1.707 1.707c-10.247 11.954-23.91 18.787-39.281 20.494-6.831 1.707-11.954 1.707-18.787 1.707l-225.433 34.157c-32.448 5.123-66.605 6.831-99.053 6.831h-222.018v-281.791c19.797-14.024 52.341-34.019 86.090-46.716 2.043-0.030 4.089-0.42 6.132-1.103 40.988-13.663 71.729-13.663 92.223 1.707 32.448 23.91 73.436 37.571 117.84 37.571h66.605c39.281 0 75.145 17.078 95.639 49.528 8.362 10.033 10.163 20.050 8.632 23.67-0.032 0.078-0.058 0.168-0.094 0.24-1.581 2.634-4.633 4.779-8.738 6.538-0.090 0.038-0.172 0.076-0.262 0.114-0.508 0.214-1.055 0.412-1.595 0.614-0.478 0.176-0.945 0.356-1.453 0.526-0.162 0.056-0.334 0.106-0.5 0.16-2.736 0.893-5.874 1.709-9.432 2.434-0.020 0.004-0.040 0.008-0.058 0.012-1.143 0.232-2.334 0.452-3.558 0.664-0.22 0.038-0.442 0.076-0.664 0.112-1.077 0.182-2.185 0.356-3.324 0.524-0.262 0.038-0.524 0.078-0.789 0.116-5.654 0.803-12.038 1.429-19.153 1.847-3.534 0-7.027 0-10.247 0-2.474 0-4.791 0-6.831 0h-158.828c-52.942 0-85.392 25.617-85.392 68.312 0 10.247 6.831 17.078 17.078 17.078s17.078-6.831 17.078-17.078c0-8.54 0-34.157 51.235-34.157h157.12c5.123 0 11.954 0 22.201 0 1.707 0 5.123 0 8.54 0 80.268 1.707 155.411 0 194.692-20.494l146.876-90.513c71.729-35.864 78.559-27.325 92.223-6.831 3.416 5.121 3.416 15.368-3.416 20.492z"></path></g>
</svg>
