<?xml version="1.0" encoding="utf-8"?>
<!-- Generator: Adobe Illustrator 17.0.0, SVG Export Plug-In . SVG Version: 6.00 Build 0)  -->
<!DOCTYPE svg PUBLIC "-//W3C//DTD SVG 1.1//EN" "http://www.w3.org/Graphics/SVG/1.1/DTD/svg11.dtd">
<svg version="1.1" id="Layer_1" xmlns="http://www.w3.org/2000/svg" xmlns:xlink="http://www.w3.org/1999/xlink" x="0px" y="0px"
	 width="1025px" height="1024px" viewBox="0 0 1025 1024" enable-background="new 0 0 1025 1024" xml:space="preserve">
<g><path d="M757.765 308.188v-120.056c0-77.39-62.96-140.349-140.346-140.349h-215.26c-77.386 0-140.346 62.96-140.346 140.349v120.064c-130.355 14.595-232.026 125.465-232.026 259.643v333.746c0 37.326 30.359 67.688 67.685 67.688h824.638c37.322 0 67.677-30.362 67.677-67.688v-333.746c0-134.178-101.668-245.048-232.023-259.651zM289.942 188.131c0-61.874 50.34-112.225 112.218-112.225h215.26c61.874 0 112.222 50.351 112.222 112.225v118.423c-5.247-0.023-29.683-0.004-41.953-0.019v-118.404c0-38.746-31.527-70.272-70.269-70.272h-215.26c-38.742 0-70.269 31.527-70.269 70.272v61.54c0 7.775 6.302 14.062 14.062 14.062 7.771 0 14.062-6.287 14.062-14.062v-61.54c0-23.23 18.911-42.148 42.145-42.148h215.26c23.241 0 42.141 18.918 42.141 42.148v118.404c-37.476 0.015-364.864-0.004-369.619 0.019zM94.997 941.018c-20.439-1.529-37.082-18.618-37.082-39.97v-54.888h145.217c7.763 0 14.062-6.302 14.062-14.062 0-7.767-6.299-14.069-14.062-14.069h-145.217v-250.19c0-128.567 104.601-233.179 233.176-233.179h437.401c128.293 0 233.172 104.372 233.172 233.179v250.19h-689.224c-7.756 0-14.062 6.302-14.062 14.069 0 7.76 6.306 14.062 14.062 14.062h689.224c-0.023 60.011 0.060 54.975-0.124 57.9-1.581 21.108-19.361 36.792-38.888 37.063-0.398 0.008-824.004 0.124-827.654-0.105zM94.997 941.018z"></path><path d="M361.108 663.384h79.688v79.696c0 7.763 6.295 14.062 14.062 14.062h109.863c7.763 0 14.062-6.299 14.062-14.062v-79.696h79.688c7.771 0 14.062-6.295 14.062-14.062v-109.855c0-7.767-6.291-14.062-14.062-14.062h-79.688v-79.696c0-7.763-6.299-14.062-14.062-14.062h-109.863c-7.767 0-14.062 6.299-14.062 14.062v79.696h-79.688c-7.767 0-14.062 6.295-14.062 14.062v109.855c0 7.767 6.295 14.062 14.062 14.062zM375.174 553.529h79.684c7.771 0 14.062-6.299 14.062-14.062v-79.696h81.739v79.696c0 7.763 6.295 14.062 14.062 14.062h79.688v81.731h-79.688c-7.767 0-14.062 6.299-14.062 14.062v79.692h-81.739v-79.692c0-7.763-6.291-14.062-14.062-14.062h-79.684zM375.174 553.529z"></path></g>
</svg>
