<?xml version="1.0" encoding="utf-8"?>
<!-- Generator: Adobe Illustrator 17.0.0, SVG Export Plug-In . SVG Version: 6.00 Build 0)  -->
<!DOCTYPE svg PUBLIC "-//W3C//DTD SVG 1.1//EN" "http://www.w3.org/Graphics/SVG/1.1/DTD/svg11.dtd">
<svg version="1.1" id="Layer_1" xmlns="http://www.w3.org/2000/svg" xmlns:xlink="http://www.w3.org/1999/xlink" x="0px" y="0px"
	 width="1025px" height="1024px" viewBox="0 0 1025 1024" enable-background="new 0 0 1025 1024" xml:space="preserve">
<g><path d="M782.087 714.254h-337.768c-34.281-0.039-62.059-27.823-62.090-62.101l-0-0.003v-482.525c0.039-34.276 27.815-62.051 62.087-62.090l80.139-0c4.891-45.097 42.757-79.889 88.749-79.889s83.858 34.792 88.714 79.493l0.035 0.396h80.135c34.276 0.039 62.051 27.815 62.090 62.087l0 0.004v482.525c-0.031 34.282-27.81 62.065-62.087 62.104l-0.004 0zM444.319 135.21c-18.997 0.024-34.391 15.417-34.415 34.412l-0 0.002v482.525c0.016 19.003 15.413 34.405 34.412 34.429l337.77 0c19.002-0.024 34.399-15.425 34.415-34.427l0-0.002v-482.525c-0.024-18.997-15.417-34.391-34.412-34.415l-93.491-0c-7.642 0-13.838-6.195-13.838-13.838v0-4.456c0-34.009-27.57-61.578-61.578-61.578s-61.578 27.57-61.578 61.578l0 0v4.456c0 7.642-6.195 13.838-13.838 13.838v0z"></path><path d="M680.683 774.573h-134.96c-7.642 0-13.838-6.195-13.838-13.838v0-60.319c0-7.642 6.195-13.838 13.838-13.838v0h134.96c7.642 0 13.838 6.195 13.838 13.838v0 60.319c0 7.642-6.195 13.838-13.838 13.838v0zM559.561 746.897h107.285v-32.643h-107.285z"></path><path d="M613.196 91.676c-16.981 0-30.748 13.766-30.748 30.748s13.766 30.748 30.748 30.748c16.981 0 30.748-13.766 30.748-30.748h-0c0-16.981-13.766-30.748-30.748-30.748h-0z"></path><path d="M613.196 160.090c-20.797-0.008-37.653-16.869-37.653-37.667 0-20.803 16.864-37.667 37.667-37.667s37.667 16.864 37.667 37.667l0 0c-0.024 20.798-16.881 37.651-37.679 37.667l-0.002 0zM613.196 98.595c-13.154 0.008-23.815 10.673-23.815 23.829 0 13.16 10.668 23.829 23.829 23.829s23.829-10.668 23.829-23.829l-0 0c-0.016-13.159-10.683-23.821-23.842-23.829l-0.001-0z"></path><path d="M438.895 414.955h-42.828c-7.642 0-13.838-6.195-13.838-13.838s6.195-13.838 13.838-13.838v0h42.828c7.642 0 13.838 6.195 13.838 13.838s-6.195 13.838-13.838 13.838v0z"></path><path d="M462.862 514.311h-66.795c-7.642 0-13.838-6.195-13.838-13.838s6.195-13.838 13.838-13.838v0h66.795c7.642 0 13.838 6.195 13.838 13.838s-6.195 13.838-13.838 13.838v0z"></path><path d="M438.895 613.653h-42.828c-7.642 0-13.838-6.195-13.838-13.838s6.195-13.838 13.838-13.838v0h42.828c7.642 0 13.838 6.195 13.838 13.838s-6.195 13.838-13.838 13.838v0z"></path><path d="M830.27 331.043h-434.162c-7.642 0-13.838-6.195-13.838-13.838s6.195-13.838 13.838-13.838v0h434.162c7.642 0 13.838 6.195 13.838 13.838s-6.195 13.838-13.838 13.838v0z"></path><path d="M685.125 594.764c-36.033-0.039-65.234-29.24-65.273-65.269l-0-0.004c0-31.080 44.821-98.871 53.815-112.156 2.647-3.484 6.792-5.71 11.458-5.71s8.811 2.227 11.432 5.675l0.026 0.035c8.981 13.284 53.815 81.076 53.815 112.156-0.039 36.033-29.24 65.234-65.269 65.273l-0.004 0zM685.125 450.505c-18.211 29.156-37.597 65.301-37.597 78.986 0 20.764 16.833 37.597 37.597 37.597s37.597-16.833 37.597-37.597v-0c0-13.686-19.387-49.83-37.597-78.986z"></path><path d="M403.428 996.324c-123.407-0.181-223.395-100.193-223.536-223.592l-0-0.014v-539.413c0-7.642 6.195-13.838 13.838-13.838s13.838 6.195 13.838 13.838v0 539.413c-0 108.209 87.721 195.93 195.93 195.93s195.93-87.721 195.93-195.93v0-11.984c0-7.642 6.195-13.838 13.838-13.838s13.838 6.195 13.838 13.838v0 11.984c-0.142 123.461-100.208 223.503-223.665 223.606l-0.010 0z"></path></g>
</svg>
