<svg width="1025" height="1024" xmlns="http://www.w3.org/2000/svg" xml:space="preserve" version="1.1">

 <g>
  <title>Layer 1</title>
  <g stroke="null" id="svg_6">
   <path stroke="null" id="svg_1" d="m876.70491,483.98424l-190.50718,0c-95.25359,0 -145.68196,-50.42837 -145.68196,-145.68196l0,-190.50718c0,-95.25359 50.42837,-145.68196 145.68196,-145.68196l190.50718,0c95.25359,0 145.68196,50.42837 145.68196,145.68196l0,190.50718c0,95.25359 -50.42837,145.68196 -145.68196,145.68196zm-190.50718,-397.82383c-50.42837,0 -61.63468,11.2063 -61.63468,61.63468l0,190.50718c0,50.42837 11.2063,61.63468 61.63468,61.63468l190.50718,0c50.42837,0 61.63468,-11.2063 61.63468,-61.63468l0,-190.50718c0,-50.42837 -11.2063,-61.63468 -61.63468,-61.63468l-190.50718,0z"/>
   <path stroke="null" id="svg_2" d="m338.80228,483.98424c0,0 0,0 0,0l-190.50718,0c-95.25359,0 -145.68196,-44.82522 -145.68196,-134.47566l0,-212.91979c0,-89.65044 50.42837,-134.47566 145.68196,-134.47566l190.50718,0c95.25359,0 145.68196,44.82522 145.68196,134.47566l0,212.91979c0,44.82522 -11.2063,72.84098 -33.61891,100.85674c-22.41261,22.41261 -61.63468,33.61891 -112.06305,33.61891zm-190.50718,-397.82383c-61.63468,0 -61.63468,16.80946 -61.63468,50.42837l0,212.91979c0,33.61891 0,50.42837 61.63468,50.42837l190.50718,0c28.01576,0 44.82522,-5.60315 50.42837,-11.2063c11.2063,-5.60315 11.2063,-28.01576 11.2063,-39.22207l0,-212.91979c0,-33.61891 0,-50.42837 -61.63468,-50.42837l-190.50718,0z"/>
   <path stroke="null" id="svg_3" d="m338.80228,1021.88688l-190.50718,0c-95.25359,0 -145.68196,-50.42837 -145.68196,-145.68196l0,-190.50718c0,-95.25359 50.42837,-145.68196 145.68196,-145.68196l190.50718,0c95.25359,0 145.68196,50.42837 145.68196,145.68196l0,190.50718c0,95.25359 -50.42837,145.68196 -145.68196,145.68196zm-190.50718,-397.82383c-50.42837,0 -61.63468,11.2063 -61.63468,61.63468l0,190.50718c0,50.42837 11.2063,61.63468 61.63468,61.63468l190.50718,0c50.42837,0 61.63468,-11.2063 61.63468,-61.63468l0,-190.50718c0,-50.42837 -11.2063,-61.63468 -61.63468,-61.63468l-190.50718,0z"/>
   <path stroke="null" id="svg_4" d="m910.32383,808.96708l-280.15762,0c-22.41261,0 -44.82522,-16.80946 -44.82522,-44.82522s16.80946,-44.82522 44.82522,-44.82522l280.15762,0c22.41261,0 44.82522,16.80946 44.82522,44.82522s-22.41261,44.82522 -44.82522,44.82522z"/>
   <path stroke="null" id="svg_5" d="m770.24502,949.0459c-22.41261,0 -44.82522,-16.80946 -44.82522,-44.82522l0,-280.15762c0,-22.41261 16.80946,-44.82522 44.82522,-44.82522s44.82522,16.80946 44.82522,44.82522l0,280.15762c-5.60315,28.01576 -22.41261,44.82522 -44.82522,44.82522z"/>
  </g>
 </g>
</svg>