<svg width="1025" height="1024" xmlns="http://www.w3.org/2000/svg" xml:space="preserve" version="1.1">

 <g>
  <title>Layer 1</title>
  <path stroke="null" id="svg_1" d="m529.22378,65.26511c-95.50152,0 -207.9811,29.71159 -299.23811,61.54543c-91.25701,31.83384 -161.29146,63.66768 -174.025,72.15671c-48.81189,25.46707 -70.03445,87.0125 -42.44512,137.94665c25.46707,48.81189 87.0125,70.03445 137.94665,42.44512c23.34482,-12.73354 101.86829,-59.42317 195.24756,-103.99055s195.24756,-87.0125 248.30396,-87.0125c214.34786,0 394.73963,157.04695 394.73963,157.04695c4.24451,4.24451 8.48902,4.24451 14.85579,4.24451c4.24451,0 10.61128,-2.12226 12.73354,-6.36677c4.24451,-4.24451 6.36677,-8.48902 6.36677,-14.85579c0,-4.24451 -2.12226,-10.61128 -4.24451,-14.85579c0,0 -2.12226,-2.12226 -2.12226,-2.12226c-10.61128,-2.12226 -233.44817,-246.18171 -488.1189,-246.18171zm0,40.32287c78.52348,0 150.68018,29.71159 218.59238,65.78994c-48.81189,-14.85579 -101.86829,-25.46707 -157.04695,-25.46707c-70.03445,0 -171.90274,44.56738 -265.28201,91.25701c-93.37927,46.68963 -178.26951,95.50152 -195.24756,106.1128c-29.71159,14.85579 -65.78994,4.24451 -82.76799,-25.46707c-14.85579,-29.71159 -4.24451,-65.78994 25.46707,-82.76799c8.48902,-4.24451 80.64573,-38.20061 169.78049,-67.91219c89.13476,-31.83384 197.36982,-61.54543 286.50457,-61.54543zm-21.22256,284.38232c-288.62683,0 -435.0625,256.79299 -443.55152,271.64878c0,0 0,0 0,0c-2.12226,4.24451 -4.24451,8.48902 -4.24451,12.73354c0,4.24451 2.12226,10.61128 6.36677,12.73354c12.73354,23.34482 159.16921,271.64878 443.55152,271.64878c282.26006,0 428.69573,-246.18171 443.55152,-271.64878c4.24451,-4.24451 6.36677,-8.48902 6.36677,-12.73354c0,-4.24451 -2.12226,-10.61128 -4.24451,-12.73354c0,0 0,0 0,0c-12.73354,-14.85579 -159.16921,-271.64878 -447.79603,-271.64878zm0,42.44512c180.39177,0 297.11585,106.1128 358.66128,180.39177c-42.44512,-21.22256 -97.62378,-46.68963 -161.29146,-67.91219c-59.42317,-19.1003 -127.33537,-31.83384 -197.36982,-31.83384c-70.03445,0 -137.94665,12.73354 -197.36982,31.83384c-63.66768,19.1003 -118.84634,44.56738 -161.29146,67.91219c61.54543,-74.27896 178.26951,-180.39177 358.66128,-180.39177zm-65.78994,125.21311c-10.61128,8.48902 -19.1003,21.22256 -25.46707,33.9561c-6.36677,12.73354 -8.48902,27.58933 -8.48902,42.44512c0,27.58933 10.61128,53.0564 29.71159,72.15671c19.1003,19.1003 44.56738,29.71159 72.15671,29.71159c27.58933,0 53.0564,-10.61128 72.15671,-29.71159c19.1003,-19.1003 29.71159,-44.56738 29.71159,-72.15671c0,-14.85579 -2.12226,-29.71159 -8.48902,-42.44512c-6.36677,-12.73354 -14.85579,-25.46707 -25.46707,-33.9561c38.20061,4.24451 74.27896,12.73354 108.23506,23.34482c6.36677,16.97805 8.48902,36.07835 8.48902,55.17866c0,101.86829 -82.76799,182.51402 -182.51402,182.51402c-101.86829,0 -182.51402,-82.76799 -182.51402,-182.51402c0,-19.1003 2.12226,-38.20061 8.48902,-55.17866c29.71159,-10.61128 65.78994,-16.97805 103.99055,-23.34482zm-154.92469,38.20061c-2.12226,12.73354 -4.24451,25.46707 -4.24451,40.32287c0,123.09085 99.74604,224.95915 224.95915,224.95915c123.09085,0 224.95915,-99.74604 224.95915,-224.95915c0,-12.73354 -2.12226,-27.58933 -4.24451,-40.32287c84.89024,29.71159 150.68018,67.91219 178.26951,87.0125c-23.34482,40.32287 -154.92469,237.69268 -398.98414,237.69268s-375.63933,-197.36982 -398.98414,-237.69268c27.58933,-19.1003 93.37927,-57.30091 178.26951,-87.0125z"/>
 </g>
</svg>