<svg width="1025" height="1024" xmlns="http://www.w3.org/2000/svg" xml:space="preserve" version="1.1">

 <g>
  <title>Layer 1</title>
  <g id="svg_1">
   <path id="svg_2" d="m422.30099,1001.52627c-9.8,0 -17.9,-2 -24,-4.3c-19.7,-7.4 -52.8,-30.9 -52.8,-104.4l0,-283l-98.4,0c-63.6,0 -87,-30.6 -95.4,-48.8c-8.3,-18.3 -16.1,-56.1 25.8,-104.3c0.1,-0.1 0.1,-0.1 0.2,-0.2l340,-386.2c48.7,-55.2 89,-51 108.7,-43.5c19.7,7.4 52.8,30.9 52.8,104.4l0,282.9l98.4,0c21.2,0 39.7,3.5 55.2,10.3c18.9,8.4 33,21.9 40.7,39c7.7,17 8.4,36.5 2.2,56.2c-5.1,16 -14.7,32.2 -28.7,48l-340,386c-33.5,38 -63.1,47.9 -84.7,47.9zm9.3,-76.9l0,0l0,0zm-204.3,-398.1c3.5,1.2 9.7,2.5 19.8,2.5l138.8,0c22.3,0 40.4,18.1 40.4,40.4l0,323.4c0,10.9 1.1,18.7 2.3,23.9c4.4,-3.1 10.4,-8.3 17.7,-16.5l340,-386.2c0,0 0.1,-0.1 0.1,-0.1c6.7,-7.5 9.8,-13.1 11.3,-16.5c-3.6,-1.2 -9.9,-2.5 -20.1,-2.5l-138.8,0c-22.3,0 -40.4,-18.1 -40.4,-40.4l0,-323.5c0,-10.9 -1.1,-18.7 -2.3,-23.9c-4.4,3.1 -10.4,8.3 -17.7,16.5l-339.9,386.1c-6.6,7.7 -9.7,13.4 -11.2,16.8z"/>
  </g>
 </g>
</svg>