<?xml version="1.0" encoding="utf-8"?>
<!-- Generator: Adobe Illustrator 17.0.0, SVG Export Plug-In . SVG Version: 6.00 Build 0)  -->
<!DOCTYPE svg PUBLIC "-//W3C//DTD SVG 1.1//EN" "http://www.w3.org/Graphics/SVG/1.1/DTD/svg11.dtd">
<svg version="1.1" id="Layer_1" xmlns="http://www.w3.org/2000/svg" xmlns:xlink="http://www.w3.org/1999/xlink" x="0px" y="0px"
	 width="1025px" height="1024px" viewBox="0 0 1025 1024" enable-background="new 0 0 1025 1024" xml:space="preserve">
<g><path d="M811.714 360.728c-4.654-6.982-11.636-11.636-20.946-11.636h-172.218l146.618-316.51c2.328-6.982 2.328-16.29-2.328-23.272-4.654-6.982-11.636-9.31-18.616-9.31h-256c-13.964 0-23.272 9.31-23.272 23.272s9.31 23.272 23.272 23.272h218.764l-146.618 316.51c-2.328 6.982-2.328 16.29 2.328 23.272 4.654 6.982 11.636 9.31 18.618 9.31h165.236l-328.148 491.054 69.82-323.49c2.328-6.982 0-13.964-4.654-18.618-4.654-6.982-11.636-9.31-18.618-9.31h-202.474l155.928-505.018c4.654-11.636-2.328-25.6-16.29-27.928-11.636-4.654-25.6 2.328-27.928 16.29l-162.91 535.272c-2.328 4.654-2.328 11.636 2.328 18.618 4.654 4.654 11.636 9.31 18.618 9.31h204.8l-88.436 414.254c-2.328 11.636 2.328 20.946 13.964 25.6 2.326 2.33 6.98 2.33 9.308 2.33 6.982 0 13.964-4.654 18.618-9.31l418.91-628.364c4.654-9.308 6.98-16.29 2.326-25.598z"></path><path d="M425.386 211.782c-11.636-4.654-25.6 2.328-27.928 13.964l-69.816 209.454c-4.654 11.636 2.328 25.6 13.964 30.254 2.328 0 4.654 2.328 6.982 2.328 9.31 0 18.618-6.982 20.946-16.29l69.818-209.454c4.652-11.638-2.328-25.602-13.966-30.256z"></path></g>
</svg>
