<?xml version="1.0" encoding="utf-8"?>
<!-- Generator: Adobe Illustrator 17.0.0, SVG Export Plug-In . SVG Version: 6.00 Build 0)  -->
<!DOCTYPE svg PUBLIC "-//W3C//DTD SVG 1.1//EN" "http://www.w3.org/Graphics/SVG/1.1/DTD/svg11.dtd">
<svg version="1.1" id="Layer_1" xmlns="http://www.w3.org/2000/svg" xmlns:xlink="http://www.w3.org/1999/xlink" x="0px" y="0px"
	 width="1025px" height="1024px" viewBox="0 0 1025 1024" enable-background="new 0 0 1025 1024" xml:space="preserve">
<g><path d="M972.8 460.816h-32.64c4.16-12.16 7.040-24.8 7.040-38.080 0-56.8-43.2-115.52-115.36-115.52-76.96 0-121.44 76.32-140.64 120.48-18.24-41.6-59.040-111.040-128-118.88v-1.6c0-28.32-22.88-51.2-51.2-51.2h-98.24l49.12-35.2c11.52-8.16 14.24-24.16 5.92-35.68l-14.88-20.8c-8.16-11.52-24.16-14.24-35.68-5.92l-51.2 36.64 18.4-48.96c4.96-13.28-1.76-28-15.040-32.96l-24-8.96c-13.28-4.96-28 1.76-32.96 15.040l-31.84 84.8-31.84-84.96c-4.96-13.28-19.68-20-32.96-15.040l-24 8.96c-13.28 4.96-20 19.68-15.040 32.96l18.4 48.96-51.2-36.48c-11.52-8.16-27.52-5.6-35.68 5.92l-14.88 20.8c-8.16 11.52-5.6 27.52 5.92 35.68l49.12 35.2h-98.24c-28.32 0-51.2 22.88-51.2 51.2v563.2c0 28.32 22.88 51.2 51.2 51.2h921.6c28.32 0 51.2-22.88 51.2-51.2v-358.4c0-28.32-22.88-51.2-51.2-51.2zM831.84 384.016c28.32 0 38.56 23.2 38.56 38.72 0 8.16-2.4 20.16-14.080 30.4-3.36 2.88-7.2 5.44-11.52 7.68h-84.16c14.080-32.48 41.44-76.8 71.2-76.8zM550.56 384.016c29.92 0 56.96 43.84 71.2 76.8h-84.16c-4.32-2.24-8.16-4.8-11.52-7.68-11.68-10.24-14.080-22.080-14.080-30.4 0-15.52 10.24-38.72 38.56-38.72zM358.4 512.016v332.8h-281.6v-512h401.12c-27.2 22.4-42.72 56.32-42.72 89.92 0 13.28 2.72 25.92 7.040 38.080h-32.64c-28.32 0-51.2 22.88-51.2 51.2zM652.8 844.816h-217.6v-115.2h217.6v115.2zM652.8 652.816h-217.6v-115.2h217.6v115.2zM690.080 460.816l1.12-0.32 1.12 0.32h-2.24zM947.2 844.816h-217.6v-115.2h217.6v115.2zM947.2 652.816h-217.6v-115.2h217.6v115.2z"></path></g>
</svg>
