<?xml version="1.0" encoding="utf-8"?>
<!-- Generator: Adobe Illustrator 17.0.0, SVG Export Plug-In . SVG Version: 6.00 Build 0)  -->
<!DOCTYPE svg PUBLIC "-//W3C//DTD SVG 1.1//EN" "http://www.w3.org/Graphics/SVG/1.1/DTD/svg11.dtd">
<svg version="1.1" id="Layer_1" xmlns="http://www.w3.org/2000/svg" xmlns:xlink="http://www.w3.org/1999/xlink" x="0px" y="0px"
	 width="1025px" height="1024px" viewBox="0 0 1025 1024" enable-background="new 0 0 1025 1024" xml:space="preserve">
<g><path d="M937.411 188.795h-117.287c1.057-3.516 1.625-7.271 1.625-11.302 0-2.83 0.138-6.905 0.295-11.624 1.261-37.672 3.61-107.796-31.596-144.201-13.911-14.375-31.77-21.669-53.090-21.669-54.885 0-124.396 50.348-151.736 71.992-10.579 8.375-51.583 41.752-73.623 72.548-22.038-30.797-63.044-64.173-73.623-72.548-27.337-21.644-96.851-71.992-151.736-71.992-21.32 0-39.182 7.293-53.088 21.671-35.206 36.406-32.857 106.529-31.598 144.201 0.157 4.719 0.295 8.791 0.295 11.624 0 4.030 0.568 7.785 1.625 11.302h-117.287c-23.727 0-43.033 19.306-43.033 43.033v106.664c0 23.727 19.306 43.033 43.033 43.033h34.554v453.011c0 18.305 14.892 33.197 33.197 33.197h254.382v136.308c0 4.638 1.557 9.133 4.384 12.657 3.723 4.64 9.275 7.303 15.238 7.303 3.531-0.002 7.052-0.959 10.195-2.779l73.458-42.583 73.473 42.592c3.13 1.81 6.652 2.769 10.183 2.769 11.004 0 19.623-8.766 19.623-19.96v-136.308h254.382c18.305 0 33.197-14.892 33.197-33.197v-453.013h34.554c23.727 0 43.033-19.306 43.033-43.033v-106.664c0.002-23.727-19.303-43.033-43.030-43.033zM612.421 97.851c49.156-38.174 95.86-60.966 124.937-60.966 11.248 0 19.692 3.315 26.575 10.429 24.332 25.161 22.168 89.746 21.246 117.324-0.167 5.051-0.315 9.408-0.315 12.858 0 0.039 0 0.074 0 0.106-0.802 0.873-6.361 5.838-31.153 8.643-20.877 2.361-167.004 2.361-187.876 0-23.604-2.67-29.774-7.298-31.001-8.488 3.381-10.011 30.865-43.618 77.587-79.905zM270.292 186.243c-24.794-2.806-30.354-7.768-31.156-8.643 0-0.032 0-0.066 0-0.106 0-3.448-0.148-7.807-0.315-12.858-0.922-27.578-3.086-92.161 21.246-117.324 6.883-7.111 15.327-10.426 26.575-10.426 29.078 0 75.782 22.793 124.937 60.966 46.721 36.288 74.206 69.895 77.592 79.903-1.23 1.19-7.399 5.818-31.001 8.488-20.877 2.361-167.001 2.361-187.878 0zM86.589 344.64c-3.332 0-6.148-2.816-6.148-6.148v-106.664c0-3.332 2.816-6.148 6.148-6.148h322.133v118.959h-322.133zM158.028 830.847v-449.322h250.693v449.322h-250.693zM578.393 974.49l-55.008-31.888c-3.384-1.965-7.32-3.002-11.385-3.002s-8.002 1.038-11.378 2.998l-55.015 31.893v-748.81h132.786v748.81zM865.972 830.847h-250.693v-449.322h250.693v449.322zM943.558 338.492c0 3.332-2.816 6.148-6.148 6.148h-322.133v-118.959h322.133c3.332 0 6.148 2.816 6.148 6.148v106.664z"></path></g>
</svg>
