<svg width="1025" height="1024" xmlns="http://www.w3.org/2000/svg" xml:space="preserve" version="1.1">

 <g>
  <title>Layer 1</title>
  <g stroke="null" id="svg_3">
   <path stroke="null" id="svg_1" d="m704.80694,1021.59207l-378.20328,0c-98.23462,0 -166.99885,-27.01452 -203.83683,-81.04356c-34.38212,-54.02904 -34.38212,-130.16087 4.91173,-218.57203l196.46924,-449.42338c-31.92625,-2.45587 -61.39664,-17.19106 -83.49943,-39.29385c-24.55865,-24.55865 -39.29385,-58.94077 -39.29385,-95.77875c0,-73.67596 61.39664,-135.0726 135.0726,-135.0726l348.7329,0c36.83798,0 68.76423,14.73519 95.77875,39.29385c34.38212,34.38212 46.66144,81.04356 36.83798,127.705c-12.27933,54.02904 -61.39664,93.32289 -117.88154,100.69048l196.46924,449.42338c39.29385,88.41116 41.74971,164.54299 4.91173,218.57203c-19.64692,36.83798 -73.67596,83.49943 -196.46924,83.49943zm-363.46809,-982.34619c-54.02904,0 -98.23462,44.20558 -98.23462,98.23462c0,27.01452 9.82346,51.57318 29.47039,68.76423c17.19106,17.19106 44.20558,29.47039 68.76423,29.47039l14.73519,0c7.3676,0 12.27933,2.45587 14.73519,7.3676c2.45587,4.91173 4.91173,12.27933 2.45587,17.19106l-208.74857,473.98204c-34.38212,76.13183 -36.83798,142.4402 -9.82346,184.18991c27.01452,41.74971 85.95529,63.8525 171.91058,63.8525l375.74742,0c83.49943,0 142.4402,-22.10279 171.91058,-66.30837c27.01452,-41.74971 24.55865,-108.05808 -7.3676,-184.18991l-206.2927,-473.98204c-2.45587,-4.91173 -2.45587,-12.27933 2.45587,-17.19106s9.82346,-7.3676 14.73519,-7.3676l7.3676,0c46.66144,0 90.86702,-31.92625 100.69048,-73.67596c7.3676,-34.38212 -2.45587,-68.76423 -27.01452,-93.32289c-19.64692,-19.64692 -44.20558,-29.47039 -68.76423,-29.47039l-348.7329,0l0,2.45587z"/>
   <path stroke="null" id="svg_2" d="m606.57232,640.93292c-31.92625,0 -63.8525,-4.91173 -95.77875,-14.73519c-142.4402,-46.66144 -289.79213,-41.74971 -292.24799,-41.74971c-9.82346,0 -19.64692,-7.3676 -19.64692,-17.19106c0,-9.82346 7.3676,-19.64692 17.19106,-19.64692c7.3676,0 154.71953,-4.91173 304.52732,44.20558c137.52847,46.66144 270.1452,-41.74971 270.1452,-41.74971c7.3676,-4.91173 19.64692,-2.45587 24.55865,4.91173c4.91173,7.3676 2.45587,19.64692 -4.91173,24.55865c-2.45587,4.91173 -90.86702,61.39664 -203.83683,61.39664z"/>
  </g>
 </g>
</svg>