<?xml version="1.0" encoding="utf-8"?>
<!-- Generator: Adobe Illustrator 17.0.0, SVG Export Plug-In . SVG Version: 6.00 Build 0)  -->
<!DOCTYPE svg PUBLIC "-//W3C//DTD SVG 1.1//EN" "http://www.w3.org/Graphics/SVG/1.1/DTD/svg11.dtd">
<svg version="1.1" id="Layer_1" xmlns="http://www.w3.org/2000/svg" xmlns:xlink="http://www.w3.org/1999/xlink" x="0px" y="0px"
	 width="1025px" height="1024px" viewBox="0 0 1025 1024" enable-background="new 0 0 1025 1024" xml:space="preserve">
<g><path d="M512 64c-282.96 0-512 228.994-512 512v99.428c0 17.931 9.832 33.566 24.399 41.808l0.239 0.124 39.404 21.954c1.774 122.182 101.354 220.686 223.958 220.686h48c26.51 0 48-21.49 48-48v-352c0-26.51-21.49-48-48-48h-48c-81.488 0-152.804 43.516-192 108.574v-44.574c0-229.382 186.618-416 416-416s416 186.618 416 416v44.574c-39.196-65.058-110.512-108.574-192-108.574h-48c-26.51 0-48 21.49-48 48v352c0 26.51 21.49 48 48 48h48c122.604 0 222.184-98.504 223.958-220.688l39.404-21.954c14.806-8.366 24.638-24.001 24.638-41.932l-0 0v-99.426c0-282.96-228.994-512-512-512zM288 608v256c-70.58 0-128-57.42-128-128s57.42-128 128-128zM736 864v-256c70.58 0 128 57.42 128 128s-57.42 128-128 128z"></path></g>
</svg>
