<svg width="1025" height="1024" xmlns="http://www.w3.org/2000/svg" xml:space="preserve" version="1.1">

 <g>
  <title>Layer 1</title>
  <g stroke="null" id="svg_4">
   <path stroke="null" id="svg_1" d="m512.49999,1020.9829c-26.94976,0 -53.89951,-9.79991 -73.49934,-26.94976l-78.39929,-66.1494c-12.24989,-9.79991 -34.29969,-19.59982 -48.99956,-19.59982l-85.74923,0c-61.24945,0 -112.69898,-51.44954 -112.69898,-112.69898l0,-83.29925c0,-14.69987 -7.34993,-36.74967 -17.14985,-48.99956l-66.1494,-78.39929c-34.29969,-41.64962 -34.29969,-105.34905 0,-146.99867l66.1494,-75.94931c9.79991,-12.24989 17.14985,-34.29969 17.14985,-48.99956l0,-83.29925c0,-61.24945 51.44954,-112.69898 112.69898,-112.69898l85.74923,0c14.69987,0 39.19965,-9.79991 48.99956,-19.59982l78.39929,-68.59938c0,0 0,0 0,0c39.19965,-34.29969 105.34905,-34.29969 146.99867,0l78.39929,66.1494c12.24989,9.79991 34.29969,19.59982 48.99956,19.59982l83.29925,0c61.24945,0 112.69898,51.44954 112.69898,112.69898l0,83.29925c0,14.69987 9.79991,39.19965 19.59982,48.99956l66.1494,78.39929c34.29969,39.19965 34.29969,105.34905 0,146.99867l-66.1494,78.39929c-9.79991,12.24989 -19.59982,34.29969 -19.59982,48.99956l0,83.29925c0,61.24945 -51.44954,112.69898 -112.69898,112.69898l-83.29925,0c-14.69987,0 -39.19965,9.79991 -48.99956,19.59982l-78.39929,66.1494c-19.59982,17.14985 -46.54958,26.94976 -73.49934,26.94976zm-284.19743,-869.74215c-41.64962,0 -75.94931,34.29969 -75.94931,75.94931l0,83.29925c0,24.49978 -12.24989,53.89951 -26.94976,73.49934l-68.59938,78.39929c-22.0498,26.94976 -22.0498,71.04936 0,97.99911l66.1494,78.39929c14.69987,19.59982 26.94976,48.99956 26.94976,73.49934l0,83.29925c0,41.64962 34.29969,75.94931 75.94931,75.94931l85.74923,0c24.49978,0 56.34949,12.24989 73.49934,26.94976l78.39929,66.1494c26.94976,22.0498 73.49934,22.0498 100.44909,0l78.39929,-66.1494c17.14985,-14.69987 48.99956,-26.94976 73.49934,-26.94976l83.29925,0c41.64962,0 75.94931,-34.29969 75.94931,-75.94931l0,-83.29925c0,-24.49978 12.24989,-56.34949 26.94976,-73.49934l66.1494,-78.39929c22.0498,-26.94976 22.0498,-73.49934 0,-100.44909l-66.1494,-78.39929c-14.69987,-17.14985 -26.94976,-48.99956 -26.94976,-73.49934l0,-83.29925c0,-41.64962 -34.29969,-75.94931 -75.94931,-75.94931l-83.29925,0c-24.49978,0 -56.34949,-12.24989 -73.49934,-26.94976l-80.84927,-63.69942c-26.94976,-22.0498 -73.49934,-22.0498 -100.44909,0l-78.39929,66.1494c-17.14985,14.69987 -48.99956,26.94976 -73.49934,26.94976l-80.84927,0z"/>
   <path stroke="null" id="svg_2" d="m610.4991,736.78546l-85.74923,0c-14.69987,0 -41.64962,-4.89996 -56.34949,-19.59982l-68.59938,-53.89951l22.0498,-29.39973l71.04936,53.89951c4.89996,4.89996 19.59982,9.79991 31.84971,9.79991l85.74923,0c19.59982,0 41.64962,-17.14985 46.54958,-34.29969l56.34949,-169.04847c2.44998,-9.79991 2.44998,-19.59982 -2.44998,-24.49978c-4.89996,-7.34993 -14.69987,-9.79991 -24.49978,-9.79991l-90.64918,0c-12.24989,0 -24.49978,-4.89996 -31.84971,-14.69987c-7.34993,-9.79991 -12.24989,-22.0498 -9.79991,-34.29969l12.24989,-73.49934c2.44998,-12.24989 -4.89996,-26.94976 -17.14985,-29.39973c-9.79991,-4.89996 -24.49978,2.44998 -29.39973,9.79991l-93.09916,139.64874l-34.29969,-19.59982l93.09916,-139.64874c12.24989,-19.59982 44.0996,-34.29969 71.04936,-22.0498c29.39973,9.79991 46.54958,41.64962 41.64962,71.04936l-12.24989,73.49934c0,0 0,2.44998 0,4.89996c0,0 2.44998,2.44998 2.44998,2.44998l90.64918,0c22.0498,0 41.64962,9.79991 53.89951,26.94976c12.24989,17.14985 14.69987,36.74967 7.34993,58.79947l-53.89951,166.5985c-2.44998,29.39973 -39.19965,56.34949 -75.94931,56.34949z"/>
   <path stroke="null" id="svg_3" d="m360.60136,712.28568l-22.0498,0c-44.0996,0 -63.69942,-19.59982 -63.69942,-61.24945l0,-225.39796c0,-41.64962 22.0498,-61.24945 63.69942,-61.24945l22.0498,0c44.0996,0 63.69942,19.59982 63.69942,61.24945l0,225.39796c2.44998,39.19965 -19.59982,61.24945 -63.69942,61.24945zm-22.0498,-311.14719c-24.49978,0 -26.94976,4.89996 -26.94976,24.49978l0,225.39796c0,19.59982 2.44998,24.49978 26.94976,24.49978l22.0498,0c24.49978,0 26.94976,-4.89996 26.94976,-24.49978l0,-225.39796c0,-19.59982 -2.44998,-24.49978 -26.94976,-24.49978l-22.0498,0z"/>
  </g>
 </g>
</svg>