<?xml version="1.0" encoding="utf-8"?>
<!-- Generator: Adobe Illustrator 17.0.0, SVG Export Plug-In . SVG Version: 6.00 Build 0)  -->
<!DOCTYPE svg PUBLIC "-//W3C//DTD SVG 1.1//EN" "http://www.w3.org/Graphics/SVG/1.1/DTD/svg11.dtd">
<svg version="1.1" id="Layer_1" xmlns="http://www.w3.org/2000/svg" xmlns:xlink="http://www.w3.org/1999/xlink" x="0px" y="0px"
	 width="1025px" height="1024px" viewBox="0 0 1025 1024" enable-background="new 0 0 1025 1024" xml:space="preserve">
<g>
	<path fill="rgb(0, 0, 0)" d="M612.267 0c-157.867 23.467-219.733 134.4-219.733 134.4-2.133 2.133-2.133 6.4-2.133 8.533v81.067c-10.667 0-21.333 4.267-29.867 10.667-8.533 8.533-10.667 19.2-10.667 29.867v388.267c-34.133 0-61.867 27.733-61.867 61.867v245.333c0 34.133 27.733 61.867 61.867 61.867h328.533c34.133 0 61.867-27.733 61.867-61.867v-243.2c0-34.133-27.733-61.867-61.867-61.867v-388.267c0-10.667-4.267-21.333-10.667-29.867-8.533-8.533-19.2-10.667-29.867-10.667v-204.8c0-6.4-2.133-12.8-6.4-14.933-8.533-6.4-14.933-6.4-19.2-6.4zM593.067 49.067v177.067h-164.267v-76.8c4.267-4.267 49.067-74.667 164.267-100.267zM388.267 266.667h245.333v388.267h-245.333v-388.267zM347.733 695.467h328.533c10.667 0 21.333 8.533 21.333 21.333v245.333c0 10.667-8.533 21.333-21.333 21.333h-328.533c-10.667 0-21.333-8.533-21.333-21.333v-245.333c2.133-10.667 10.667-21.333 21.333-21.333z"></path>
</g>
</svg>
