<?xml version="1.0" encoding="utf-8"?>
<!-- Generator: Adobe Illustrator 17.0.0, SVG Export Plug-In . SVG Version: 6.00 Build 0)  -->
<!DOCTYPE svg PUBLIC "-//W3C//DTD SVG 1.1//EN" "http://www.w3.org/Graphics/SVG/1.1/DTD/svg11.dtd">
<svg version="1.1" id="Layer_1" xmlns="http://www.w3.org/2000/svg" xmlns:xlink="http://www.w3.org/1999/xlink" x="0px" y="0px"
	 width="1025px" height="1024px" viewBox="0 0 1025 1024" enable-background="new 0 0 1025 1024" xml:space="preserve">
<g><path d="M448 1024h-341.333c-58.795 0-106.667-47.872-106.667-106.667v-469.333c0-58.795 47.872-106.667 106.667-106.667h426.667c58.795 0 106.667 47.872 106.667 106.667v128c0 11.776-9.557 21.333-21.333 21.333s-21.333-9.557-21.333-21.333v-128c0-35.285-28.715-64-64-64h-426.667c-35.285 0-64 28.715-64 64v469.333c0 35.285 28.715 64 64 64h341.333c11.776 0 21.333 9.557 21.333 21.333s-9.557 21.333-21.333 21.333z"></path><path d="M490.667 384c-11.776 0-21.333-9.557-21.333-21.333v-85.333c0-11.776-9.557-21.333-21.333-21.333h-256c-11.776 0-21.333 9.557-21.333 21.333v85.333c0 11.776-9.557 21.333-21.333 21.333s-21.333-9.557-21.333-21.333v-85.333c0-35.285 28.715-64 64-64h256c35.285 0 64 28.715 64 64v85.333c0 11.776-9.557 21.333-21.333 21.333z"></path><path d="M256 256c-11.776 0-21.333-9.557-21.333-21.333v-117.333c0-11.776 9.557-21.333 21.333-21.333s21.333 9.557 21.333 21.333v117.333c0 11.776-9.557 21.333-21.333 21.333z"></path><path d="M384 256c-11.776 0-21.333-9.557-21.333-21.333v-117.333c0-11.776 9.557-21.333 21.333-21.333s21.333 9.557 21.333 21.333v117.333c0 11.776-9.557 21.333-21.333 21.333z"></path><path d="M448 128h-426.667c-8.619 0-16.427-5.205-19.712-13.184-3.328-7.979-1.493-17.109 4.608-23.253 59.093-59.051 137.6-91.563 221.141-91.563h220.629c35.285 0 64 28.715 64 64s-28.715 64-64 64zM81.493 85.333h366.507c11.776 0 21.333-9.557 21.333-21.333s-9.557-21.333-21.333-21.333h-220.629c-52.523 0-102.741 14.891-145.877 42.667z"></path><path d="M746.667 1024c-6.101 0-11.904-2.603-15.957-7.168-121.6-136.789-121.6-275.541 0-412.331 8.064-9.131 23.808-9.131 31.872 0 121.6 136.789 121.6 275.541 0 412.331-4.011 4.565-9.813 7.168-15.915 7.168zM746.667 651.733c-85.12 106.752-85.12 211.072 0 317.824 85.12-106.709 85.12-211.072 0-317.824z"></path><path d="M745.429 1024c-0.64 0-1.28 0-1.92-0.085-171.392-15.531-263.595-112.981-274.091-289.621-0.384-6.101 1.877-12.032 6.229-16.341s10.581-6.229 16.341-6.229c75.861 4.523 137.6 24.32 183.509 58.837 9.429 7.083 11.307 20.437 4.224 29.867-7.083 9.387-20.437 11.307-29.867 4.224-34.176-25.728-79.744-41.899-135.68-48.213 15.701 138.539 92.203 212.224 233.216 224.981 11.733 1.067 20.395 11.435 19.328 23.168-1.067 11.093-10.368 19.413-21.291 19.413z"></path><path d="M747.904 1024c-10.923 0-20.224-8.32-21.248-19.413-1.067-11.733 7.595-22.101 19.328-23.168 141.013-12.757 217.557-86.443 233.216-224.981-55.979 6.315-101.504 22.528-135.68 48.213-9.429 7.125-22.784 5.205-29.867-4.224s-5.205-22.784 4.224-29.867c45.909-34.56 107.605-54.315 183.509-58.837 5.931-0.256 12.032 1.877 16.341 6.229 4.309 4.309 6.571 10.283 6.229 16.341-10.496 176.64-102.699 274.091-274.091 289.621-0.64 0.085-1.323 0.085-1.963 0.085z"></path></g>
</svg>
