<svg width="1025" height="1024" xmlns="http://www.w3.org/2000/svg" xml:space="preserve" version="1.1">

 <g>
  <title>Layer 1</title>
  <g stroke="null" id="svg_3">
   <path stroke="null" id="svg_1" d="m563.2555,1012.10151c-34.84435,0 -69.6887,-27.3777 -99.55528,-74.66646l-87.11087,-141.86628c-12.44441,-22.39994 -47.28876,-39.82211 -72.17758,-37.33323l-166.7551,7.46665c-62.22205,2.48888 -107.02193,-12.44441 -121.95522,-47.28876c-17.42217,-34.84435 -2.48888,-79.64423 37.33323,-126.93299l99.55528,-114.48857c14.93329,-17.42217 22.39994,-54.75541 14.93329,-77.15534l-49.77764,-161.77733c-14.93329,-49.77764 -9.95553,-92.08864 14.93329,-116.97746c24.88882,-24.88882 67.19982,-29.86658 116.97746,-14.93329l146.84404,47.28876c22.39994,7.46665 54.75541,2.48888 72.17758,-9.95553l154.31069,-109.51081c44.79988,-32.35547 87.11087,-39.82211 116.97746,-22.39994c32.35547,17.42217 49.77764,57.24429 47.28876,109.51081l-2.48888,189.15504c0,22.39994 14.93329,52.26652 32.35547,64.71093l124.4441,94.57752c42.311,32.35547 62.22205,69.6887 54.75541,104.53305c-4.97776,34.84435 -37.33323,64.71093 -87.11087,79.64423l-161.77733,49.77764c-22.39994,9.95553 -47.28876,34.84435 -52.26652,59.73317l-37.33323,146.84404c-14.93329,62.22205 -44.79988,97.0664 -82.13311,102.04416c-4.97776,0 -9.95553,0 -12.44441,0zm-256.35485,-278.75479c34.84435,0 72.17758,22.39994 92.08864,49.77764l87.11087,141.86628c27.3777,44.79988 57.24429,67.19982 84.62199,62.22205c27.3777,-4.97776 49.77764,-34.84435 62.22205,-84.62199l37.33323,-146.84404c7.46665,-29.86658 39.82211,-64.71093 69.6887,-74.66646l161.77733,-49.77764c42.311,-12.44441 67.19982,-34.84435 69.6887,-59.73317c4.97776,-24.88882 -12.44441,-54.75541 -47.28876,-79.64423l-124.4441,-94.57752c-24.88882,-17.42217 -42.311,-54.75541 -42.311,-84.62199l2.48888,-189.15504c0,-44.79988 -12.44441,-74.66646 -34.84435,-87.11087c-22.39994,-12.44441 -57.24429,-4.97776 -92.08864,22.39994l-149.33292,107.02193c-24.88882,17.42217 -64.71093,24.88882 -94.57752,14.93329l-146.84404,-47.28876c-39.82211,-12.44441 -74.66646,-9.95553 -92.08864,7.46665c-17.42217,17.42217 -22.39994,52.26652 -9.95553,92.08864l49.77764,161.77733c9.95553,29.86658 0,74.66646 -19.91106,99.55528l-99.55528,114.48857c-32.35547,39.82211 -47.28876,74.66646 -34.84435,99.55528c12.44441,24.88882 47.28876,37.33323 99.55528,32.35547l166.7551,-7.46665c2.48888,0 4.97776,0 4.97776,0z"/>
   <rect stroke="null" id="svg_2" height="8.6" width="1" transform="matrix(17.6014 -17.5964 17.5964 17.6014 -512.368 934.376)" y="36.80775" x="40.46507"/>
  </g>
 </g>
</svg>