<svg width="1025" height="1024" xmlns="http://www.w3.org/2000/svg" xml:space="preserve" version="1.1">

 <g>
  <title>Layer 1</title>
  <path stroke="null" id="svg_1" d="m119.88665,3.8c-63.09057,0 -116.08665,52.99608 -116.08665,116.08665l0,784.84672c0,63.09057 52.99608,116.08665 116.08665,116.08665l784.84672,0c63.09057,0 116.08665,-52.99608 116.08665,-116.08665l0,-784.84672c0,-63.09057 -52.99608,-116.08665 -116.08665,-116.08665l-784.84672,0zm0,50.47246l784.84672,0c37.85434,0 68.13782,30.28347 68.13782,68.13782l0,784.84672c0,37.85434 -30.28347,68.13782 -68.13782,68.13782l-784.84672,0c-37.85434,0 -68.13782,-30.28347 -68.13782,-68.13782l0,-787.37034c2.52362,-35.33072 32.8071,-65.6142 68.13782,-65.6142zm186.74809,70.66144c-100.94492,0 -181.70085,80.75593 -181.70085,181.70085c0,100.94492 80.75593,181.70085 181.70085,181.70085c100.94492,0 181.70085,-80.75593 181.70085,-181.70085c0,-98.42129 -80.75593,-181.70085 -181.70085,-181.70085zm413.87415,0c-100.94492,0 -181.70085,80.75593 -181.70085,181.70085c0,100.94492 80.75593,181.70085 181.70085,181.70085c100.94492,0 181.70085,-80.75593 181.70085,-181.70085c0,-98.42129 -83.27956,-181.70085 -181.70085,-181.70085zm-413.87415,50.47246c10.09449,0 17.66536,0 25.23623,2.52362l-156.46462,156.46462c-2.52362,-7.57087 -2.52362,-17.66536 -2.52362,-25.23623c2.52362,-75.70869 60.56695,-133.75201 133.75201,-133.75201zm413.87415,0c73.18506,0 133.75201,60.56695 133.75201,133.75201c0,73.18506 -60.56695,133.75201 -133.75201,133.75201c-73.18506,0 -133.75201,-60.56695 -133.75201,-133.75201c0,-75.70869 58.04333,-133.75201 133.75201,-133.75201zm-348.25996,15.14174c22.71261,12.61811 40.37797,30.28347 52.99608,52.99608l-181.70085,181.70085c-22.71261,-12.61811 -40.37797,-30.28347 -52.99608,-52.99608l181.70085,-181.70085zm65.6142,90.85042c2.52362,7.57087 2.52362,17.66536 2.52362,25.23623c0,73.18506 -60.56695,133.75201 -133.75201,133.75201c-10.09449,0 -17.66536,0 -25.23623,-2.52362l156.46462,-156.46462zm-131.22839,257.40954c-100.94492,0 -181.70085,80.75593 -181.70085,181.70085c0,100.94492 80.75593,181.70085 181.70085,181.70085c100.94492,0 181.70085,-80.75593 181.70085,-181.70085c0,-100.94492 -80.75593,-181.70085 -181.70085,-181.70085zm413.87415,0c-100.94492,0 -181.70085,80.75593 -181.70085,181.70085c0,100.94492 80.75593,181.70085 181.70085,181.70085c100.94492,0 181.70085,-80.75593 181.70085,-181.70085c0,-100.94492 -83.27956,-181.70085 -181.70085,-181.70085zm-413.87415,47.94883c73.18506,0 133.75201,60.56695 133.75201,133.75201c0,73.18506 -60.56695,133.75201 -133.75201,133.75201c-73.18506,0 -133.75201,-60.56695 -133.75201,-133.75201c2.52362,-75.70869 60.56695,-133.75201 133.75201,-133.75201zm413.87415,0c10.09449,0 17.66536,0 25.23623,2.52362l-156.46462,156.46462c-2.52362,-7.57087 -2.52362,-17.66536 -2.52362,-25.23623c0,-75.70869 58.04333,-133.75201 133.75201,-133.75201zm63.09057,15.14174c22.71261,12.61811 40.37797,30.28347 52.99608,52.99608l-181.70085,181.70085c-22.71261,-12.61811 -40.37797,-30.28347 -52.99608,-52.99608l181.70085,-181.70085zm65.6142,90.85042c2.52362,7.57087 2.52362,17.66536 2.52362,25.23623c0,73.18506 -60.56695,133.75201 -133.75201,133.75201c-10.09449,0 -17.66536,0 -25.23623,-2.52362l156.46462,-156.46462z"/>
 </g>
</svg>