<svg width="1025" height="1024" xmlns="http://www.w3.org/2000/svg" xml:space="preserve" version="1.1">

 <g>
  <title>Layer 1</title>
  <g stroke="null" id="svg_4">
   <path stroke="null" id="svg_1" d="m319.2392,1001.59402c-11.04347,0 -22.08695,-3.68116 -33.13042,-7.36232c-22.08695,-11.04347 -36.81158,-33.13042 -36.81158,-58.89853l0,-88.34779c-147.24632,-7.36232 -246.63759,-110.43474 -246.63759,-265.04338l0,-294.49265c0,-158.2898 106.75358,-265.04338 265.04338,-265.04338l489.59402,0c158.2898,0 265.04338,106.75358 265.04338,265.04338l0,294.49265c0,158.2898 -106.75358,265.04338 -265.04338,265.04338l-191.42022,0l-213.50717,143.56516c-7.36232,7.36232 -22.08695,11.04347 -33.13042,11.04347zm-51.53621,-938.69531c-136.20285,0 -228.2318,88.34779 -228.2318,228.2318l0,294.49265c0,136.20285 88.34779,228.2318 228.2318,228.2318c11.04347,0 18.40579,7.36232 18.40579,18.40579l0,103.07243c0,11.04347 7.36232,22.08695 14.72463,25.76811c11.04347,3.68116 22.08695,3.68116 33.13042,0l217.18833,-143.56516c3.68116,-3.68116 7.36232,-3.68116 11.04347,-3.68116l195.10138,0c136.20285,0 228.2318,-88.34779 228.2318,-228.2318l0,-294.49265c0,-136.20285 -88.34779,-228.2318 -228.2318,-228.2318l-489.59402,0z"/>
   <path stroke="null" id="svg_2" d="m514.34058,500.95652c-11.04347,0 -18.40579,-7.36232 -18.40579,-18.40579l0,-11.04347c0,-47.85505 33.13042,-69.942 47.85505,-80.98548c18.40579,-14.72463 33.13042,-25.76811 33.13042,-47.85505c0,-33.13042 -29.44926,-62.57969 -62.57969,-62.57969s-62.57969,29.44926 -62.57969,62.57969c0,11.04347 -7.36232,18.40579 -18.40579,18.40579s-18.40579,-7.36232 -18.40579,-18.40579c0,-55.21737 44.1739,-99.39127 99.39127,-99.39127c55.21737,0 99.39127,44.1739 99.39127,99.39127c0,47.85505 -33.13042,69.942 -47.85505,77.30432c-22.08695,14.72463 -33.13042,25.76811 -33.13042,51.53621l0,11.04347c0,11.04347 -7.36232,18.40579 -18.40579,18.40579z"/>
   <path stroke="null" id="svg_3" d="m514.34058,618.75358c-11.04347,0 -18.40579,-7.36232 -18.40579,-18.40579s7.36232,-18.40579 18.40579,-18.40579l0,0c11.04347,0 18.40579,7.36232 18.40579,18.40579s-7.36232,18.40579 -18.40579,18.40579z"/>
  </g>
 </g>
</svg>