<svg width="1025" height="1024" xmlns="http://www.w3.org/2000/svg" xml:space="preserve" version="1.1">

 <g>
  <title>Layer 1</title>
  <g stroke="null" id="svg_6">
   <path stroke="null" id="svg_1" d="m555.08929,715.48223l-89.91075,0c-61.51788,0 -113.57147,-52.05359 -113.57147,-118.30361c0,-18.92858 14.19643,-37.85716 37.85716,-37.85716s37.85716,14.19643 37.85716,37.85716c0,28.39287 18.92858,47.32145 42.5893,47.32145l85.1786,0c18.92858,0 33.12501,-14.19643 33.12501,-37.85716c0,-23.66072 -9.46429,-28.39287 -23.66072,-33.12501l-141.96434,-47.32145c-28.39287,-9.46429 -70.98217,-33.12501 -70.98217,-104.10718c0,-61.51788 47.32145,-108.83932 104.10718,-108.83932l89.91075,0c61.51788,0 113.57147,52.05359 113.57147,118.30361c0,18.92858 -14.19643,37.85716 -37.85716,37.85716s-37.85716,-14.19643 -37.85716,-37.85716c0,-28.39287 -18.92858,-47.32145 -42.5893,-47.32145l-80.44646,0c-18.92858,0 -33.12501,14.19643 -33.12501,37.85716c0,23.66072 4.73214,28.39287 23.66072,33.12501l141.96434,47.32145c28.39287,9.46429 70.98217,33.12501 70.98217,104.10718c0,56.78573 -47.32145,108.83932 -108.83932,108.83932z"/>
   <path stroke="null" id="svg_2" d="m507.76784,762.80368c-18.92858,0 -37.85716,-14.19643 -37.85716,-37.85716l0,-425.89301c0,-18.92858 14.19643,-37.85716 37.85716,-37.85716s37.85716,14.19643 37.85716,37.85716l0,425.89301c0,18.92858 -18.92858,37.85716 -37.85716,37.85716z"/>
   <path stroke="null" id="svg_3" d="m507.76784,1023.07163c-279.19653,0 -506.33947,-231.87508 -506.33947,-511.07161s227.14294,-506.33947 506.33947,-506.33947c18.92858,0 37.85716,14.19643 37.85716,37.85716s-18.92858,33.12501 -37.85716,33.12501c-241.33937,0 -440.08944,194.01793 -440.08944,440.08944s194.01793,440.08944 440.08944,440.08944s440.08944,-194.01793 440.08944,-440.08944c0,-18.92858 14.19643,-37.85716 37.85716,-37.85716s37.85716,14.19643 37.85716,37.85716c-4.73214,274.46438 -236.60723,506.33947 -515.80376,506.33947z"/>
   <path stroke="null" id="svg_4" d="m980.9823,265.9285c-18.92858,0 -37.85716,-14.19643 -37.85716,-37.85716l0,-151.42863l-151.42863,0c-18.92858,0 -37.85716,-14.19643 -37.85716,-37.85716s14.19643,-37.85716 37.85716,-37.85716l189.28578,0c18.92858,0 37.85716,14.19643 37.85716,37.85716l0,189.28578c0,18.92858 -18.92858,37.85716 -37.85716,37.85716z"/>
   <path stroke="null" id="svg_5" d="m744.37507,313.24995c-9.46429,0 -18.92858,-4.73214 -23.66072,-9.46429c-14.19643,-14.19643 -14.19643,-37.85716 0,-52.05359l236.60723,-236.60723c14.19643,-14.19643 37.85716,-14.19643 52.05359,0s14.19643,37.85716 0,52.05359l-236.60723,236.60723c-9.46429,4.73214 -18.92858,9.46429 -28.39287,9.46429z"/>
  </g>
 </g>
</svg>