<?xml version="1.0" encoding="utf-8"?>
<!-- Generator: Adobe Illustrator 17.0.0, SVG Export Plug-In . SVG Version: 6.00 Build 0)  -->
<!DOCTYPE svg PUBLIC "-//W3C//DTD SVG 1.1//EN" "http://www.w3.org/Graphics/SVG/1.1/DTD/svg11.dtd">
<svg version="1.1" id="Layer_1" xmlns="http://www.w3.org/2000/svg" xmlns:xlink="http://www.w3.org/1999/xlink" x="0px" y="0px"
	 width="1025px" height="1024px" viewBox="0 0 1025 1024" enable-background="new 0 0 1025 1024" xml:space="preserve">
<g><path d="M776.816 716.774h67.984c14.138 0 25.6-11.462 25.6-25.6v0-67.936c0-0.002 0-0.005 0-0.008 0-14.136-5.729-26.935-14.992-36.2l-370.32-370.304-114.72 114.72 370.224 370.32c9.267 9.272 22.071 15.008 36.216 15.008 0.003 0 0.006-0 0.009-0l-0 0zM334.208 295.286l114.72-114.88-66.88-66.832c-6.963-6.891-16.544-11.149-27.12-11.149s-20.157 4.257-27.123 11.152l0.003-0.003-60.608 60.592c-6.882 6.938-11.135 16.492-11.135 27.040s4.253 20.102 11.137 27.043l-0.002-0.003 67.008 67.040zM217.6 780.774h25.6c7.069 0 12.8-5.731 12.8-12.8v0-25.792c37.792-1.008 68.272-32.864 68.272-72.112 0-32-20.8-60.496-50.528-69.424l-72-21.6c-8.256-2.464-14.032-10.848-14.032-20.368 0-11.632 8.48-21.104 18.88-21.104h44.976c7.61 0.005 14.701 2.222 20.666 6.044l-0.154-0.092c2.153 1.385 4.777 2.217 7.594 2.24l0.006 0c0.026 0 0.057 0 0.088 0 3.305 0 6.308-1.298 8.524-3.413l-0.005 0.005 18.8-17.936c2.482-2.34 4.028-5.65 4.028-9.322 0-4.094-1.922-7.738-4.912-10.081l-0.028-0.021c-13.872-10.489-31.159-17.154-49.949-18.15l-0.227-0.010v-26.064c0-7.069-5.731-12.8-12.8-12.8v0h-25.6c-7.069 0-12.8 5.731-12.8 12.8v0 25.792c-37.792 1.008-68.272 32.88-68.272 72.112 0 32 20.8 60.496 50.528 69.424l72 21.6c8.256 2.464 14.032 10.848 14.032 20.368 0 11.632-8.48 21.104-18.88 21.104h-44.976c-7.582-0.029-14.641-2.243-20.587-6.044l0.155 0.092c-2.153-1.385-4.777-2.217-7.594-2.24l-0.006-0c-0.030-0-0.066-0-0.101-0-3.301 0-6.3 1.299-8.511 3.413l-18.875 17.932c-2.482 2.34-4.028 5.65-4.028 9.322 0 4.094 1.922 7.738 4.912 10.081l0.028 0.021c13.875 10.482 31.159 17.146 49.947 18.15l0.229 0.010v26.064c0 7.069 5.731 12.8 12.8 12.8v0zM409.6 588.774h145.6l-76.8-76.8h-68.8c-14.138 0-25.6 11.462-25.6 25.6v0 25.6c0 14.138 11.462 25.6 25.6 25.6v0zM384 691.174c0 14.138 11.462 25.6 25.6 25.6v0h273.6l-76.8-76.8h-196.8c-14.138 0-25.6 11.462-25.6 25.6v0 25.6zM972.8 307.174h-324.8l76.8 76.8h222.4v460.8h-870.4v-460.8h273.68l-76.8-76.8h-222.48c-28.277 0-51.2 22.923-51.2 51.2v0 512c0 28.277 22.923 51.2 51.2 51.2v0h921.6c28.277 0 51.2-22.923 51.2-51.2v0-512c0-28.277-22.923-51.2-51.2-51.2v0z"></path></g>
</svg>
