<svg width="1025" height="1024" xmlns="http://www.w3.org/2000/svg" xml:space="preserve" version="1.1">

 <g>
  <title>Layer 1</title>
  <path stroke="null" id="svg_1" d="m514.81569,1.39121c-39.36667,0 -76.41765,4.63137 -108.83725,11.57843c-67.1549,16.2098 -113.46863,74.10196 -113.46863,143.57255l0,175.99215c-104.20588,81.04902 -134.3098,219.99019 -134.3098,356.61568l0,333.45882l43.99804,0l0,-331.14313c0,-115.78431 20.84118,-226.93725 87.99608,-298.72352l0,351.98431l6.94706,6.94706c0,0 81.04902,71.78627 215.35882,71.78627c131.99411,0 215.35882,-71.78627 215.35882,-71.78627l6.94706,-6.94706l0,-358.93137c67.1549,67.1549 87.99608,175.99215 87.99608,303.3549l0,333.45882l43.99804,0l0,-331.14313c0,-148.20392 -27.78823,-287.14509 -134.3098,-361.24705l0,-173.67647c0,-67.1549 -46.31372,-127.36274 -113.46863,-143.57255c-27.78823,-4.63137 -64.83921,-11.57843 -104.20588,-11.57843zm0,43.99804c34.73529,0 69.47059,4.63137 99.57451,11.57843c46.31372,11.57843 78.73333,50.9451 78.73333,99.57451l0,565.02744c-9.26274,9.26274 -69.47059,55.57647 -178.30784,55.57647c-108.83725,0 -169.04509,-48.62941 -178.30784,-55.57647l0,-565.02744c0,-48.62941 32.41961,-87.99608 78.73333,-99.57451c30.10392,-4.63137 64.83921,-11.57843 99.57451,-11.57843zm87.99608,111.15294l0,518.71371c-16.2098,6.94706 -94.94314,39.36667 -192.20196,-2.31569l-18.52549,39.36667c127.36274,55.57647 240.83137,0 240.83137,0l11.57843,-6.94706l0,-548.81764l-41.68235,0z"/>
 </g>
</svg>