<?xml version="1.0" encoding="utf-8"?>
<!-- Generator: Adobe Illustrator 17.0.0, SVG Export Plug-In . SVG Version: 6.00 Build 0)  -->
<!DOCTYPE svg PUBLIC "-//W3C//DTD SVG 1.1//EN" "http://www.w3.org/Graphics/SVG/1.1/DTD/svg11.dtd">
<svg version="1.1" id="Layer_1" xmlns="http://www.w3.org/2000/svg" xmlns:xlink="http://www.w3.org/1999/xlink" x="0px" y="0px"
	 width="1025px" height="1024px" viewBox="0 0 1025 1024" enable-background="new 0 0 1025 1024" xml:space="preserve">
<g><path d="M149.333 599.893c-58.837 0-106.667-47.829-106.667-106.667s47.829-106.667 106.667-106.667v42.667c-35.285 0-64 28.715-64 64 0 35.925 30.251 64.256 65.92 64 1.92 0 3.84-0.043 5.76-0.256l5.163 42.325c-4.309 0.555-8.533 0.597-12.843 0.597z"></path><path d="M874.667 599.893c-4.309 0-8.533-0.043-12.843-0.597l5.163-42.325c2.56 0.299 5.077 0.256 7.68 0.256 35.285 0 64-28.715 64-64s-28.715-64-64-64v-42.667c58.837 0 106.667 47.829 106.667 106.667s-47.829 106.667-106.667 106.667z"></path><path d="M416 882.347c-1.963 0-3.968-0.256-5.973-0.853-131.755-38.315-238.72-154.795-272.512-296.704-6.315-28.203-9.515-57.344-9.515-86.869v-198.827c0-205.525 199.040-299.093 384-299.093s384 93.568 384 299.093v198.827c0 29.525-3.2 58.667-9.515 86.571-26.069 109.013-113.067 251.947-272.725 297.045-11.136 3.243-23.125-3.371-26.325-14.763-3.2-11.349 3.413-23.125 14.763-26.325 132.736-37.504 217.6-160.427 242.731-265.6 5.589-24.576 8.405-50.56 8.405-76.928v-198.827c0-176.171-176.896-256.427-341.333-256.427s-341.333 80.256-341.333 256.427v198.827c0 26.368 2.816 52.395 8.405 77.269 30.251 127.019 125.611 231.253 242.859 265.344 11.307 3.285 17.835 15.104 14.549 26.453-2.688 9.301-11.221 15.36-20.48 15.36z"></path><path d="M871.68 426.453l-119.467-17.067c-111.787-15.957-217.771-66.176-301.141-142.293-57.899 75.989-140.501 127.744-235.093 146.688l-62.464 12.459-8.363-41.813 62.507-12.501c91.691-18.389 170.752-71.296 222.592-149.077 3.541-5.333 9.301-8.747 15.659-9.429 5.931-0.341 12.672 1.621 17.152 6.187 79.317 79.317 184.107 131.712 295.125 147.541l119.467 17.067z"></path><path d="M352 547.328c-27.733 0-53.12-16.085-71.424-45.355-6.229-9.941-3.2-23.125 6.784-29.355 9.941-6.229 23.125-3.2 29.355 6.784 20.437 32.597 50.091 32.597 70.485 0 6.272-9.984 19.499-13.013 29.355-6.784 9.984 6.229 13.056 19.413 6.784 29.355-18.219 29.269-43.605 45.355-71.339 45.355z"></path><path d="M672 547.328c-27.733 0-53.12-16.085-71.424-45.355-6.229-9.941-3.2-23.125 6.784-29.355 9.899-6.229 23.125-3.2 29.355 6.784 20.437 32.597 50.091 32.597 70.485 0 6.229-9.984 19.499-13.013 29.355-6.784 9.984 6.229 13.056 19.413 6.784 29.355-18.219 29.269-43.605 45.355-71.339 45.355z"></path><path d="M512 938.667c-70.571 0-128-54.229-128-120.875 0-11.947 1.835-23.723 5.419-34.987l40.917-128c11.008-34.389 43.776-57.472 81.664-57.472s70.656 23.083 81.664 57.472l40.917 128c3.584 11.307 5.419 23.040 5.419 34.987 0 66.645-57.429 120.875-128 120.875zM512 640c-18.901 0-35.797 11.435-41.003 27.776l-40.917 128c-2.304 7.083-3.413 14.464-3.413 22.016 0 43.136 38.272 78.208 85.333 78.208s85.333-35.072 85.333-78.208c0-7.552-1.109-14.933-3.413-22.016l-40.917-128c-5.205-16.341-22.101-27.776-41.003-27.776zM450.688 661.291h0.427z"></path><path d="M512 1024c-11.776 0-21.333-9.557-21.333-21.333v-170.667c0-11.776 9.557-21.333 21.333-21.333s21.333 9.557 21.333 21.333v170.667c0 11.776-9.557 21.333-21.333 21.333z"></path></g>
</svg>
