<svg width="1025" height="1024" xmlns="http://www.w3.org/2000/svg" xml:space="preserve" version="1.1">

 <g>
  <title>Layer 1</title>
  <path stroke="null" id="svg_1" d="m797.84405,2.29269c-172.58713,0 -299.15103,96.64879 -317.56032,110.45576l-34.51743,0c0,-36.81859 -29.9151,-66.73369 -66.73369,-66.73369c-36.81859,0 -66.73369,29.9151 -66.73369,66.73369l0,66.73369c0,6.90349 2.30116,11.50581 6.90349,16.10813c4.60232,4.60232 9.20465,6.90349 16.10813,6.90349l23.01162,0l0,43.72207l-66.73369,0c-6.90349,0 -11.50581,2.30116 -16.10813,6.90349c-4.60232,4.60232 -6.90349,9.20465 -6.90349,16.10813l0,200.20107c-2.30116,0 -2.30116,0 -4.60232,2.30116c-101.25112,43.72207 -170.28597,142.67203 -172.58713,257.73012c0,2.30116 0,6.90349 0,9.20465c2.30116,98.94996 55.22788,186.3941 133.46738,234.7185l0,25.31278c0,6.90349 2.30116,11.50581 6.90349,16.10813c4.60232,4.60232 9.20465,6.90349 16.10813,6.90349l264.6336,0c6.90349,0 11.50581,-2.30116 16.10813,-6.90349s6.90349,-9.20465 6.90349,-16.10813l0,-27.61394c78.2395,-50.62556 131.16622,-135.76854 133.46738,-234.7185c0,-2.30116 0,-6.90349 0,-9.20465c-2.30116,-115.05809 -71.33601,-214.00804 -172.58713,-257.73012c-2.30116,0 -2.30116,0 -4.60232,-2.30116l0,-200.20107c0,-6.90349 -2.30116,-11.50581 -6.90349,-16.10813c-4.60232,-4.60232 -9.20465,-6.90349 -16.10813,-6.90349l-69.03485,0l0,-43.72207l23.01162,0c6.90349,0 11.50581,-2.30116 16.10813,-6.90349s6.90349,-6.90349 6.90349,-13.80697l0,-23.01162l36.81859,0c18.40929,13.80697 142.67203,110.45576 317.56032,110.45576c73.63718,0 133.46738,-59.83021 133.46738,-133.46738c-2.30116,-71.33601 -62.13137,-131.16622 -135.76854,-131.16622zm0,43.72207c48.3244,0 87.44415,39.11975 87.44415,87.44415s-39.11975,87.44415 -87.44415,87.44415c-140.37087,0 -234.7185,-64.43253 -266.93476,-87.44415c32.21626,-23.01162 126.5639,-87.44415 266.93476,-87.44415zm-418.81144,46.02324c11.50581,0 23.01162,9.20465 23.01162,23.01162l0,43.72207l-43.72207,0l0,-46.02324c-2.30116,-11.50581 6.90349,-20.71046 20.71046,-20.71046zm-66.73369,197.89991l133.46738,0l0,177.18946l-85.14299,0c-2.30116,0 -2.30116,0 -4.60232,0c0,0 -2.30116,0 -2.30116,0l-41.42091,0l0,-177.18946zm-34.51743,220.91153l11.50581,0l43.72207,0c-4.60232,36.81859 -20.71046,59.83021 -39.11975,87.44415c-18.40929,29.9151 -41.42091,62.13137 -46.02324,112.75693l-110.45576,0c6.90349,-89.74531 64.43253,-165.68365 140.37087,-200.20107zm98.94996,0l89.74531,0l11.50581,0c78.2395,34.51743 133.46738,110.45576 142.67203,197.89991l-329.06613,0c4.60232,-36.81859 20.71046,-59.83021 39.11975,-87.44415c18.40929,-27.61394 41.42091,-62.13137 46.02324,-110.45576zm-239.32082,243.92315l110.45576,0c11.50581,108.1546 96.64879,172.58713 96.64879,172.58713c2.30116,2.30116 4.60232,2.30116 6.90349,4.60232s4.60232,0 9.20465,0c2.30116,0 4.60232,-2.30116 9.20465,-2.30116c2.30116,-2.30116 4.60232,-2.30116 6.90349,-6.90349c2.30116,-2.30116 2.30116,-4.60232 4.60232,-6.90349c0,-2.30116 0,-4.60232 0,-9.20465c0,-2.30116 -2.30116,-4.60232 -2.30116,-9.20465c-2.30116,-2.30116 -2.30116,-4.60232 -6.90349,-6.90349c0,0 -66.73369,-50.62556 -78.2395,-138.06971l329.06613,0c-6.90349,80.54066 -52.92672,149.57551 -119.66041,188.69526c-2.30116,2.30116 -6.90349,4.60232 -9.20465,9.20465c-2.30116,2.30116 -2.30116,6.90349 -2.30116,11.50581l0,13.80697l-220.91153,0l0,-13.80697c0,-4.60232 0,-6.90349 -2.30116,-11.50581s-4.60232,-6.90349 -9.20465,-9.20465c-69.03485,-36.81859 -115.05809,-105.85344 -121.96157,-186.3941z"/>
 </g>
</svg>