<svg width="1025" height="1024" xmlns="http://www.w3.org/2000/svg" xml:space="preserve" version="1.1">

 <g>
  <title>Layer 1</title>
  <g stroke="null" id="svg_6">
   <path stroke="null" id="svg_1" d="m599.67419,996.83191l-229.28011,0c-71.65003,0 -138.5234,-28.66001 -186.29009,-78.81504c-47.76669,-50.15502 -69.2617,-119.41672 -64.48503,-191.06676l0,0c16.71834,-186.29009 181.51342,-339.14349 367.80351,-339.14349c171.96008,0 336.75516,138.5234 365.41517,308.09515c14.33001,78.81504 -4.77667,155.24174 -54.93169,212.56177c-47.76669,54.93169 -117.02839,88.36838 -198.23176,88.36838zm-441.84188,-267.49346c-4.77667,62.0967 14.33001,119.41672 54.93169,162.40674c40.60169,42.99002 97.92171,66.87337 160.01841,66.87337l229.28011,0c69.2617,0 131.3584,-26.27168 171.96008,-76.4267c40.60169,-47.76669 57.32003,-114.64005 45.37835,-181.51342c-26.27168,-152.85341 -174.34842,-277.0468 -329.59016,-277.0468c-169.57175,0 -317.64848,136.13506 -331.97849,305.70681l0,0z"/>
   <path stroke="null" id="svg_2" d="m427.71411,304.21492c-76.4267,0 -138.5234,-62.0967 -138.5234,-138.5234s62.0967,-138.5234 138.5234,-138.5234s138.5234,62.0967 138.5234,138.5234s-62.0967,138.5234 -138.5234,138.5234zm0,-238.83345c-54.93169,0 -102.69838,45.37835 -102.69838,102.69838s45.37835,102.69838 102.69838,102.69838s102.69838,-45.37835 102.69838,-102.69838s-45.37835,-102.69838 -102.69838,-102.69838z"/>
   <path stroke="null" id="svg_3" d="m754.91593,361.53495c-62.0967,0 -114.64005,-50.15502 -114.64005,-114.64005s50.15502,-114.64005 114.64005,-114.64005s114.64005,50.15502 114.64005,114.64005s-52.54336,114.64005 -114.64005,114.64005zm0,-191.06676c-42.99002,0 -78.81504,35.82502 -78.81504,78.81504s35.82502,78.81504 78.81504,78.81504s78.81504,-35.82502 78.81504,-78.81504s-35.82502,-78.81504 -78.81504,-78.81504z"/>
   <path stroke="null" id="svg_4" d="m931.65268,552.6017c-50.15502,0 -90.75671,-40.60169 -90.75671,-90.75671s40.60169,-90.75671 90.75671,-90.75671s90.75671,40.60169 90.75671,90.75671s-40.60169,90.75671 -90.75671,90.75671zm0,-143.30007c-28.66001,0 -54.93169,23.88334 -54.93169,54.93169s23.88334,54.93169 54.93169,54.93169s54.93169,-23.88334 54.93169,-54.93169s-26.27168,-54.93169 -54.93169,-54.93169z"/>
   <path stroke="null" id="svg_5" d="m117.23063,457.06832c-62.0967,0 -114.64005,-50.15502 -114.64005,-114.64005s50.15502,-114.64005 114.64005,-114.64005s114.64005,50.15502 114.64005,114.64005s-50.15502,114.64005 -114.64005,114.64005zm0,-191.06676c-42.99002,0 -78.81504,35.82502 -78.81504,78.81504s35.82502,78.81504 78.81504,78.81504s78.81504,-35.82502 78.81504,-78.81504s-35.82502,-78.81504 -78.81504,-78.81504z"/>
  </g>
 </g>
</svg>