<?xml version="1.0" encoding="utf-8"?>
<!-- Generator: Adobe Illustrator 17.0.0, SVG Export Plug-In . SVG Version: 6.00 Build 0)  -->
<!DOCTYPE svg PUBLIC "-//W3C//DTD SVG 1.1//EN" "http://www.w3.org/Graphics/SVG/1.1/DTD/svg11.dtd">
<svg version="1.1" id="Layer_1" xmlns="http://www.w3.org/2000/svg" xmlns:xlink="http://www.w3.org/1999/xlink" x="0px" y="0px"
	 width="1025px" height="1024px" viewBox="0 0 1025 1024" enable-background="new 0 0 1025 1024" xml:space="preserve">
<g><path d="M426.697 682.663c0 12.8 11.306 23.040 24.534 21.12 10.666-1.494 18.134-11.094 18.134-21.76v-129.281c151.041-17.706 277.122-158.721 277.336-317.868 0-11.946-9.386-21.546-21.334-21.546h-576.005c-11.734 0-21.334 9.6-21.334 21.334 0 166.827 138.455 312.962 298.668 319.362v128.639zM171.547 255.994h531.63c-11.306 138.667-130.561 256.002-265.816 256.002s-254.506-117.335-265.814-256.002z"></path><path d="M532.724 981.332h-63.36v-106.027c0-10.666-7.68-20.266-18.134-21.76-13.226-1.92-24.534 8.32-24.534 21.12v106.667h-63.36c-10.666 0-20.266 7.68-21.76 18.134-1.92 13.226 8.32 24.534 21.12 24.534h170.667c12.8 0 23.040-11.306 21.12-24.534-1.492-10.454-11.092-18.134-21.758-18.134z"></path><path d="M844.833 122.659c-96.641-111.787-306.774-124.587-423.255-122.455-29.014 0.64-68.055 5.974-88.321 28.586-9.6 10.454-14.294 24.534-13.014 38.614 1.066 18.986 10.026 36.694 24.534 48.854 25.6 21.76 70.401 29.654 136.321 23.894 91.095-7.894 162.561-59.306 180.055-73.175 60.16 16 115.627 42.026 151.467 83.415 35.84 41.386 47.786 93.015 37.12 158.081-40.106 241.708-287.576 266.668-298.028 267.522-11.734 0.426-20.906 10.454-20.48 22.186 0.426 11.734 10.454 20.906 22.186 20.48 0.64 0 1.28 0 1.92 0 2.986-0.214 290.776-28.374 336.217-302.936 13.012-77.441-2.774-142.293-46.722-193.068zM477.47 97.485c-66.561 5.76-93.867-4.48-105.175-13.866-5.76-4.906-9.386-11.946-9.6-19.626-0.426-2.346 0.426-4.906 2.134-6.614 7.466-8.106 30.506-14.080 57.6-14.506 7.466-0.214 15.146-0.214 23.254-0.214 45.654 0 101.761 2.56 157.867 11.946-29.226 17.28-74.453 38.614-126.081 42.88z"></path><path d="M489.844 757.544c-136.107-8.32-162.775-41.814-167.895-55.894-10.88-29.226 27.306-67.415 27.734-67.841 8.534-8.106 8.746-21.76 0.64-30.080-8.106-8.534-21.76-8.746-30.080-0.64-2.346 2.346-58.88 57.386-38.4 113.281 17.92 49.066 85.121 76.375 205.442 83.841 116.695 7.040 144.427 36.48 150.827 53.546 11.52 31.36-26.24 77.227-40.32 90.881-8.32 8.32-8.32 21.974 0.214 30.080 8.106 8.106 21.12 8.32 29.44 0.64 7.68-7.254 73.815-73.387 50.774-136.321-17.92-48.212-79.575-74.667-188.375-81.493z"></path></g>
</svg>
