<?xml version="1.0" encoding="utf-8"?>
<!-- Generator: Adobe Illustrator 17.0.0, SVG Export Plug-In . SVG Version: 6.00 Build 0)  -->
<!DOCTYPE svg PUBLIC "-//W3C//DTD SVG 1.1//EN" "http://www.w3.org/Graphics/SVG/1.1/DTD/svg11.dtd">
<svg version="1.1" id="Layer_1" xmlns="http://www.w3.org/2000/svg" xmlns:xlink="http://www.w3.org/1999/xlink" x="0px" y="0px"
	 width="1025px" height="1024px" viewBox="0 0 1025 1024" enable-background="new 0 0 1025 1024" xml:space="preserve">
<g><path d="M640.297 977.445c-60.469 49.93-146.969 56.023-238.141 25.422-88.070-29.563-181.109-93.711-258.398-185.492-0.578-0.609-1.117-1.25-1.609-1.914-77.016-92.109-124.047-194.891-137.844-286.727-14.367-95.641 7.023-180.203 67.578-231.016l0.406-0.328c15.016-12.203 37.688-9.219 62.289 5.547 18.766 11.25 40.188 29.859 59.945 53.227 0.563 0.594 1.078 1.211 1.555 1.844 19.18 23.031 39.852 54.211 53.867 81.422 17.805 34.563 24.352 66.195 7.898 80-18.695 15.688-29.281 37.656-31.273 60.414-1.992 22.781 4.633 46.289 20.344 65.016l83.102 99.031c15.688 18.703 37.656 29.289 60.414 31.281 22.781 1.992 46.289-4.633 65.016-20.344 16.391-13.758 46.383-1.797 77.313 21.727 43.086 32.773 94.602 85.375 114.492 137.297 10.023 26.188 9.273 48.625-4.492 61.484-0.773 0.781-1.594 1.477-2.461 2.109zM749.984 847.687c59.055-29.922 110.172-73.211 149.359-125.883 52.672-70.781 83.844-158.57 83.844-253.703 0-117.438-47.602-223.766-124.563-300.727s-183.281-124.563-300.727-124.563c-81.883 0-158.273 23.055-223.031 63-45.781 28.258-85.945 65.031-118.125 108.148-15.219 20.375-47.523-4.289-32.563-24.305 35.234-47.219 79.195-87.5 129.328-118.438 71.141-43.891 154.859-69.219 244.391-69.219 128.703 0 245.234 52.172 329.578 136.523 84.352 84.344 136.523 200.875 136.523 329.578 0 104.109-34.195 200.289-91.977 277.938-42.961 57.734-98.953 105.18-163.609 137.977-9.805 4.977-21.875 0.875-26.969-9.148-5.086-10.031-1.266-22.195 8.539-27.172zM685.516 875.203c-11.047 0-20 8.953-20 20s8.953 20 20 20c11.039 0 20-8.953 20-20s-8.961-20-20-20zM158.836 248.789c11.039 0 20 8.953 20 20s-8.961 20-20 20c-11.047 0-20-8.953-20-20s8.953-20 20-20zM836.953 488.508h24.75c11.266 0 20.406-9.133 20.406-20.406 0-11.266-9.141-20.406-20.406-20.406h-24.75v-130.102c0-11.266-9.133-20.406-20.406-20.406-6.977 0-13.133 3.5-16.813 8.844l-124.227 149.078c-7.18 8.633-6 21.445 2.625 28.617 3.805 3.156 8.414 4.703 12.992 4.695l105.016 0.086v89.969c0 11.266 9.141 20.406 20.406 20.406 11.273 0 20.406-9.141 20.406-20.406zM796.141 447.703h-61.555l61.555-73.875zM500.813 397.867c0-16.531 6.695-31.5 17.531-42.336 10.828-10.828 25.797-17.531 42.328-17.531 16.539 0 31.508 6.703 42.336 17.531 10.836 10.836 17.531 25.805 17.531 42.336 0 15.797-6.039 27.297-16.125 36.875-12.031 11.422-30.359 21.242-51.539 31.805-51.273 25.578-90.453 102.383-90.563 102.602-5.148 9.992-1.227 22.273 8.766 27.422 2.992 1.539 6.188 2.273 9.328 2.266v0.047h160.539c11.266 0 20.406-9.133 20.406-20.406s-9.141-20.406-20.406-20.406h-124.57c13.414-19.867 33.125-44.266 54.68-55.016 24.109-12.023 45.273-23.5 61.414-38.82 18.070-17.156 28.883-37.836 28.883-66.367 0-27.797-11.266-52.969-29.492-71.188-18.219-18.219-43.383-29.492-71.188-29.492-27.797 0-52.961 11.273-71.18 29.492-18.227 18.219-29.492 43.391-29.492 71.188 0 11.266 9.133 20.406 20.406 20.406 11.266 0 20.406-9.141 20.406-20.406zM415.070 964.289c78.305 26.289 151.195 22.055 200.094-18.922l0.094-0.078c0.188-0.156-2.156-6.609-6.109-16.93-16.891-44.109-64.742-91.906-100.945-119.445-16.133-12.273-30.391-19.773-31.539-18.813-27.367 22.953-56.656 28.617-89.742 25.719-33.125-2.898-65.172-18.391-88.156-45.781l-83.102-99.031c-22.961-27.367-32.641-61.586-29.742-94.672 2.898-33.117 15.906-63.031 43.297-86.016-11.109-34.438-57.133-97.523-65.148-107.070-17.109-20.383-35.102-36.242-50.375-45.398-9.070-5.438-14.93-8.797-15.609-8.891-0.266 0.219-0.531 0.438-0.805 0.641-48.258 41.078-64.859 111.789-52.648 193.078 12.797 85.18 56.984 181.109 129.547 267.578l0.008 0.008c72.555 86.469 159.289 146.633 240.883 174.023zM415.070 964.289z"></path></g>
</svg>
