<?xml version="1.0" encoding="utf-8"?>
<!-- Generator: Adobe Illustrator 17.0.0, SVG Export Plug-In . SVG Version: 6.00 Build 0)  -->
<!DOCTYPE svg PUBLIC "-//W3C//DTD SVG 1.1//EN" "http://www.w3.org/Graphics/SVG/1.1/DTD/svg11.dtd">
<svg version="1.1" id="Layer_1" xmlns="http://www.w3.org/2000/svg" xmlns:xlink="http://www.w3.org/1999/xlink" x="0px" y="0px"
	 width="1025px" height="1024px" viewBox="0 0 1025 1024" enable-background="new 0 0 1025 1024" xml:space="preserve">
<g><path d="M873.984 149.906c-199.978-199.918-524.16-199.87-724.078 0.11s-199.87 524.16 0.11 724.078 524.16 199.87 724.078-0.11c96.012-96.042 149.936-226.292 149.906-362.094-0.028-135.78-53.99-265.988-150.016-361.984zM775.406 713.21c-0.022 0.022-0.044 0.046-0.068 0.068v-0.17l-25.942 25.77c-33.55 33.974-82.412 47.952-128.854 36.864-46.79-12.524-91.27-32.46-131.754-59.050-37.612-24.038-72.468-52.138-103.936-83.798-28.954-28.742-54.966-60.302-77.654-94.208-24.816-36.484-44.458-76.228-58.368-118.102-15.946-49.192-2.732-103.17 34.134-139.434l30.378-30.378c8.446-8.484 22.17-8.514 30.652-0.068 0.022 0.022 0.046 0.044 0.068 0.068l95.914 95.914c8.484 8.446 8.514 22.17 0.068 30.652-0.022 0.022-0.044 0.044-0.068 0.068l-56.32 56.32c-16.16 15.984-18.192 41.384-4.778 59.734 20.37 27.956 42.912 54.262 67.414 78.678 27.318 27.436 57.016 52.394 88.746 74.582 18.334 12.788 43.19 10.632 59.050-5.12l54.442-55.296c8.446-8.484 22.17-8.514 30.652-0.068 0.022 0.022 0.044 0.044 0.068 0.068l96.086 96.256c8.486 8.444 8.516 22.166 0.070 30.65z"></path></g>
</svg>
