<?xml version="1.0" encoding="utf-8"?>
<!-- Generator: Adobe Illustrator 17.0.0, SVG Export Plug-In . SVG Version: 6.00 Build 0)  -->
<!DOCTYPE svg PUBLIC "-//W3C//DTD SVG 1.1//EN" "http://www.w3.org/Graphics/SVG/1.1/DTD/svg11.dtd">
<svg version="1.1" id="Layer_1" xmlns="http://www.w3.org/2000/svg" xmlns:xlink="http://www.w3.org/1999/xlink" x="0px" y="0px"
	 width="1025px" height="1024px" viewBox="0 0 1025 1024" enable-background="new 0 0 1025 1024" xml:space="preserve">
<g><path d="M627.82 416.88l-153.856 145.32-73.84-75.965c-8.186-8.428-21.665-8.619-30.084-0.433-8.428 8.194-8.619 21.665-0.433 30.093l88.561 90.912c8.228 8.278 21.523 8.561 30.093 0.634l169.228-159.617c4.11-3.876 6.51-9.228 6.669-14.871s-1.934-11.12-5.818-15.221c-8.236-8.561-21.815-8.936-30.518-0.85zM627.82 416.88z"></path><path d="M513.651 193.235c-175.838 0-318.816 142.978-318.816 318.816 0 175.847 142.978 318.825 318.816 318.825 175.847 0 318.825-142.978 318.825-318.825 0-175.838-142.978-318.816-318.825-318.816zM513.651 788.196c-152.364 0-276.136-123.989-276.136-276.145s123.772-276.136 276.136-276.136c152.514 0 276.145 123.63 276.145 276.136s-123.63 276.145-276.145 276.145zM513.651 788.196z"></path><path d="M952.404 394.682l7.044-126.548c0.492-8.494-4.126-16.472-11.737-20.273l-112.677-56.976-56.976-112.677c-3.876-7.544-11.804-12.137-20.273-11.737l-126.765 6.835-105.633-69.788c-7.119-4.693-16.347-4.693-23.474 0l-105.633 69.788-126.54-7.044c-8.503-0.5-16.472 4.118-20.273 11.737l-56.984 112.677-112.669 56.976c-7.552 3.868-12.137 11.795-11.737 20.273l7.036 126.548-69.78 105.633c-4.693 7.119-4.693 16.347 0 23.474l69.572 105.841-7.044 126.548c-0.492 8.494 4.118 16.472 11.737 20.273l112.677 56.976 56.976 112.677c3.868 7.552 11.795 12.137 20.273 11.737l126.548-7.044 105.633 69.78c7.077 4.843 16.397 4.843 23.474 0l105.633-69.78 126.548 7.044c8.494 0.492 16.463-4.126 20.273-11.737l56.976-112.677 112.677-56.976c7.544-3.876 12.137-11.795 11.737-20.273l-7.044-126.548 69.78-105.633c4.693-7.119 4.693-16.355 0-23.474zM912.709 611.925c-2.601 3.818-3.81 8.411-3.409 13.021l6.61 119.712-106.483 53.775c-4.060 2.034-7.352 5.335-9.386 9.395l-53.783 106.483-119.712-6.61c-4.585-0.167-9.111 1.017-13.021 3.409l-99.873 65.946-99.865-65.946c-3.468-2.342-7.552-3.609-11.737-3.626h-1.067l-119.721 6.619-53.775-106.492c-2.034-4.060-5.327-7.352-9.395-9.386l-106.7-53.567 6.619-119.712c0.167-4.585-1.025-9.111-3.418-13.021l-65.937-99.873 65.937-99.873c2.609-3.81 3.818-8.411 3.418-13.012l-6.619-119.721 106.492-53.775c4.060-2.034 7.352-5.327 9.386-9.386l53.775-106.492 119.721 6.619c4.576 0.158 9.103-1.025 13.021-3.418l99.865-65.937 99.873 65.937c3.818 2.609 8.419 3.818 13.021 3.418l119.712-6.619 53.783 106.492c2.034 4.060 5.327 7.352 9.386 9.386l106.483 53.775-6.61 119.721c-0.167 4.576 1.025 9.103 3.409 13.012l65.946 99.873zM912.709 611.925z"></path></g>
</svg>
