<svg width="1025" height="1024" xmlns="http://www.w3.org/2000/svg" xml:space="preserve" version="1.1">

 <g>
  <title>Layer 1</title>
  <path stroke="null" id="svg_1" d="m387.45799,1.4118c-18.52474,0 -37.04948,4.63119 -50.94304,18.52474l-203.77216,203.77216c-27.78711,27.78711 -27.78711,74.09897 0,101.88608l125.04201,125.04201c-41.68067,46.31186 -60.20541,101.88608 -55.57423,157.46031l-41.68067,41.68067c-18.52474,18.52474 -27.78711,46.31186 -23.15593,74.09897l-129.67319,129.67319c-9.26237,9.26237 -9.26237,23.15593 0,32.4183c9.26237,9.26237 23.15593,9.26237 32.4183,0l115.77964,-115.77964c0,4.63119 4.63119,4.63119 9.26237,9.26237l83.36134,83.36134c4.63119,4.63119 4.63119,4.63119 9.26237,4.63119l-115.77964,115.77964c-9.26237,9.26237 -9.26237,23.15593 0,32.4183c9.26237,9.26237 23.15593,9.26237 32.4183,0l129.67319,-129.67319c23.15593,4.63119 50.94304,-4.63119 69.46778,-23.15593l0,0l41.68067,-41.68067c55.57423,4.63119 115.77964,-13.89356 157.46031,-55.57423l125.04201,125.04201c27.78711,27.78711 74.09897,27.78711 101.88608,0l203.77216,-203.77216c27.78711,-27.78711 27.78711,-74.09897 0,-101.88608l-560.37345,-565.00463c-13.89356,-13.89356 -37.04948,-18.52474 -55.57423,-18.52474zm0,41.68067c9.26237,0 13.89356,4.63119 18.52474,9.26237l23.15593,23.15593l-240.82165,245.45283l-23.15593,-23.15593c-9.26237,-9.26237 -9.26237,-27.78711 0,-41.68067l203.77216,-203.77216c4.63119,-4.63119 13.89356,-9.26237 18.52474,-9.26237zm78.73015,64.8366l449.225,449.225l-37.04948,37.04948l-449.225,-453.85618l37.04948,-32.4183zm-69.46778,64.8366l449.225,449.225l-37.04948,37.04948l-444.59381,-449.225l32.4183,-37.04948zm-64.8366,69.46778l449.225,449.225l-37.04948,37.04948l-449.225,-453.85618l37.04948,-32.4183zm-64.8366,64.8366l449.225,449.225l-46.31186,46.31186l-449.225,-449.225l46.31186,-46.31186zm23.15593,180.61624l245.45283,245.45283c-37.04948,32.4183 -87.99253,50.94304 -134.30438,46.31186l-9.26237,0l-55.57423,55.57423c-9.26237,9.26237 -23.15593,13.89356 -37.04948,13.89356c0,0 0,0 0,0c-4.63119,0 -4.63119,0 -9.26237,0c0,0 0,0 0,0c-4.63119,0 -9.26237,-4.63119 -13.89356,-9.26237l-78.73015,-78.73015c-9.26237,-13.89356 -13.89356,-18.52474 -13.89356,-23.15593c0,0 0,0 0,0c0,-4.63119 0,-9.26237 -4.63119,-13.89356c0,0 0,0 0,0c0,-13.89356 4.63119,-27.78711 13.89356,-37.04948l55.57423,-55.57423l0,-9.26237c-4.63119,-46.31186 9.26237,-97.2549 41.68067,-134.30438zm657.62835,101.88608l23.15593,23.15593c9.26237,9.26237 9.26237,27.78711 0,41.68067l-199.14098,199.14098l-4.63119,4.63119c-9.26237,9.26237 -27.78711,9.26237 -41.68067,0l-23.15593,-23.15593l245.45283,-245.45283z"/>
 </g>
</svg>