<?xml version="1.0" encoding="utf-8"?>
<!-- Generator: Adobe Illustrator 17.0.0, SVG Export Plug-In . SVG Version: 6.00 Build 0)  -->
<!DOCTYPE svg PUBLIC "-//W3C//DTD SVG 1.1//EN" "http://www.w3.org/Graphics/SVG/1.1/DTD/svg11.dtd">
<svg version="1.1" id="Layer_1" xmlns="http://www.w3.org/2000/svg" xmlns:xlink="http://www.w3.org/1999/xlink" x="0px" y="0px"
	 width="1025px" height="1024px" viewBox="0 0 1025 1024" enable-background="new 0 0 1025 1024" xml:space="preserve">
<g><path d="M672.772 511.932l276.040-372.648-185.708-139.284h-492.274l-195.642 148.924 273.002 363.412-189.284 255.438-74.486 97.868 162.246 1.168 44.32 156.082 74.494-97.88 145.434-200.894 155.708 202.022 74.526 97.86 44.316-156.066 162.26-1.172-74.682-98.058-200.27-256.772zM702.286 41.060l-79.412 109.19h-225.54l-87.352-109.19h392.304zM592.27 191.308l-81.872 109.166-81.872-109.166h163.744zM132.524 156.884l135.202-102.92 103.516 129.394 113.378 151.172-110.616 143.8-241.48-321.446zM510.378 656.176l-0.498-0.648-177.22 244.816-24.61 32.332-30.298-106.696-110.934-0.8 24.922-32.746 198.434-267.782 120.016-156.020 0.206 0.276 163.99-218.656h-0.744l78.128-107.424 139.752 104.816-260.898 352.214-120.246 156.318zM754.374 827.1l-30.302 106.712-24.858-32.642-162.906-211.362 110.792-144.030 193.422 247.99 24.776 32.53-110.924 0.802z"></path></g>
</svg>
