<?xml version="1.0" encoding="utf-8"?>
<!-- Generator: Adobe Illustrator 17.0.0, SVG Export Plug-In . SVG Version: 6.00 Build 0)  -->
<!DOCTYPE svg PUBLIC "-//W3C//DTD SVG 1.1//EN" "http://www.w3.org/Graphics/SVG/1.1/DTD/svg11.dtd">
<svg version="1.1" id="Layer_1" xmlns="http://www.w3.org/2000/svg" xmlns:xlink="http://www.w3.org/1999/xlink" x="0px" y="0px"
	 width="1025px" height="1024px" viewBox="0 0 1025 1024" enable-background="new 0 0 1025 1024" xml:space="preserve">
<g>
	<path fill="rgb(0, 0, 0)" d="M138.854 61.449c-3.92 0.24-7.68 0.96-11.52 1.92-14.96 3.92-27.92 13.44-36.48 27.52h-0.64c-0.4 0.64-0.64 1.2-0.64 1.28l-20.48 35.84c-16.64 28.88-6.16 66.16 22.4 83.2v0.64c0.16 0.080 0.48-0.080 0.64 0l356.48 202.24c27.52 15.68 61.44 5.6 79.36-19.84l1.28 1.28c0 0 1.041-0.88 1.92-1.92l0.64-1.28c0 0 0.401-0.8 0.64-1.28l0.64-0.64c55.599 25.44 110.481 52.719 163.84 82.56l-606.72 314.24c-44.64 23.441-61.84 79.518-38.4 124.16 0.080 0.158 0.24 0.64 0.64 1.28v0.64h0.64c25.6 43.439 82 58.24 125.44 32.64 0.64-0.401 0.56-0.559 0.64-0.64l670.72-387.2c3.119 3.358 14.558 15.68 32 30.080 20.079 16.559 45.44 36.48 80.64 36.48 11.038 0.158 21.359-5.679 26.961-15.202 5.598-9.6 5.598-21.44 0-31.040-5.602-9.519-15.923-15.356-26.961-15.198-5.76 0-26.001-9.519-41.6-22.4-13.679-11.281-22.562-21.039-24.96-23.68 11.358-21.521 11.2-47.121-0.64-68.48h-0.64v-0.64c-15.202-25.68-43.601-38.48-71.68-35.2-8.721 1.040-17.442 4-25.6 8.32-24.879-22.64-50.56-44.48-77.44-64.64-37.999-28.56-86.562-49.52-129.92-66.56-43.362-17.040-82.799-30.88-96-38.4l-320-181.76c-10.88-6.4-23.36-9.040-35.2-8.32zM138.214 102.409c5.040-1.28 10.4-0.32 15.36 2.56l320 182.4c22.4 12.72 59.678 23.76 101.76 40.32 42.078 16.56 88.081 37.2 120.32 61.44 20.719 15.52 40.081 32.88 59.52 49.92l-18.56 10.24c-66.159-38.24-133.841-73.76-203.52-104.96l-17.28-7.040-8.96 16-8.32 14.72-0.64 0.64-0.64 1.92-0.64 0.64c-5.76 10.080-17.442 13.44-27.52 7.68l-356.48-202.24v-0.64h-0.64c-10-5.76-12.8-17.52-7.040-27.52l19.84-35.2c0.72-1.2 1.2-1.52 0.64-0.64v-0.64c2.88-4.96 7.76-8.32 12.8-9.6zM833.894 452.489c2.001 0.162 3.759 0.721 5.76 1.28 7.919 2.159 15.279 7.599 19.84 15.36 4.881 9.361 5.12 20.16 0 29.44l-0.64 0.64c-2.799 5.359-7.040 9.6-12.16 12.8l-688 398.080c-0.64 0.401-1.2 0.559-1.28 0.64-24.4 14.319-54.8 6.481-69.12-17.92-0.080-0.162-0.24 0-0.64-0.64-13.12-25.041-3.28-55.279 21.76-68.48l705.92-366.72c5.841-3.281 12.48-4.881 18.56-4.48zM819.174 471.049c-11.281 0-20.48 9.199-20.48 20.48s9.199 20.48 20.48 20.48c11.281 0 20.48-9.199 20.48-20.48s-9.199-20.48-20.48-20.48zM143.334 839.689c-11.28 0-20.48 9.199-20.48 20.48s9.2 20.48 20.48 20.48c11.28 0 20.48-9.199 20.48-20.48s-9.2-20.48-20.48-20.48z"></path>
</g>
</svg>
