<?xml version="1.0" encoding="utf-8"?>
<!-- Generator: Adobe Illustrator 17.0.0, SVG Export Plug-In . SVG Version: 6.00 Build 0)  -->
<!DOCTYPE svg PUBLIC "-//W3C//DTD SVG 1.1//EN" "http://www.w3.org/Graphics/SVG/1.1/DTD/svg11.dtd">
<svg version="1.1" id="Layer_1" xmlns="http://www.w3.org/2000/svg" xmlns:xlink="http://www.w3.org/1999/xlink" x="0px" y="0px"
	 width="1025px" height="1024px" viewBox="0 0 1025 1024" enable-background="new 0 0 1025 1024" xml:space="preserve">
<g><path d="M512.138 996.324c-3.847 0-7.708-0.083-11.582-0.277-126.135-6.172-226.067-109.942-226.067-237.052 0-91.051 51.276-170.127 126.527-209.924l1.291-0.623v-411.094c0-60.574 49.105-109.679 109.679-109.679s109.679 49.105 109.679 109.679v0 411.108c76.268 40.617 127.395 119.46 127.792 210.28l0 0.055c0 0.021 0 0.045 0 0.069 0 131.095-106.234 237.378-237.311 237.457l-0.008 0zM512 55.351c-45.267 0.055-81.948 36.736-82.003 81.998l-0 0.005v419.66c-0.019 5.467-3.205 10.186-7.819 12.418l-0.083 0.036c-71.336 34.482-119.67 106.287-119.67 189.38 0 115.806 93.879 209.685 209.685 209.685 115.804 0 209.682-93.877 209.685-209.681l0-0c-0.348-83.030-48.636-154.7-118.6-188.794l-1.249-0.55c-4.696-2.268-7.883-6.987-7.901-12.452l-0-0.002v-419.702c-0.055-45.281-36.76-81.972-82.041-82.003l-0.003-0z"></path><path d="M512 907.527c-80.88 0-146.446-65.566-146.446-146.446s65.566-146.446 146.446-146.446c80.88 0 146.446 65.566 146.446 146.446v0c-0.087 80.845-65.601 146.359-146.438 146.446l-0.008 0zM512 642.311c-65.595 0-118.77 53.175-118.77 118.77s53.175 118.77 118.77 118.77c65.595 0 118.77-53.175 118.77-118.77v0c-0.071-65.566-53.204-118.699-118.763-118.77l-0.007-0z"></path><path d="M512 642.311c-7.642 0-13.838-6.195-13.838-13.838v0-448.581c0-7.642 6.195-13.838 13.838-13.838s13.838 6.195 13.838 13.838v0 448.581c0 7.642-6.195 13.838-13.838 13.838v0z"></path><path d="M356.906 166.054h-55.351c-7.642 0-13.838-6.195-13.838-13.838s6.195-13.838 13.838-13.838v0h55.351c7.642 0 13.838 6.195 13.838 13.838s-6.195 13.838-13.838 13.838v0z"></path><path d="M356.906 249.081h-27.676c-7.642 0-13.838-6.195-13.838-13.838s6.195-13.838 13.838-13.838v0h27.676c7.642 0 13.838 6.195 13.838 13.838s-6.195 13.838-13.838 13.838v0z"></path><path d="M356.906 332.108h-55.351c-7.642 0-13.838-6.195-13.838-13.838s6.195-13.838 13.838-13.838v0h55.351c7.642 0 13.838 6.195 13.838 13.838s-6.195 13.838-13.838 13.838v0z"></path><path d="M356.906 415.135h-27.676c-7.642 0-13.838-6.195-13.838-13.838s6.195-13.838 13.838-13.838v0h27.676c7.642 0 13.838 6.195 13.838 13.838s-6.195 13.838-13.838 13.838v0z"></path><path d="M356.906 498.162h-55.351c-7.642 0-13.838-6.195-13.838-13.838s6.195-13.838 13.838-13.838v0h55.351c7.642 0 13.838 6.195 13.838 13.838s-6.195 13.838-13.838 13.838v0z"></path></g>
</svg>
