<?xml version="1.0" encoding="utf-8"?>
<!-- Generator: Adobe Illustrator 17.0.0, SVG Export Plug-In . SVG Version: 6.00 Build 0)  -->
<!DOCTYPE svg PUBLIC "-//W3C//DTD SVG 1.1//EN" "http://www.w3.org/Graphics/SVG/1.1/DTD/svg11.dtd">
<svg version="1.1" id="Layer_1" xmlns="http://www.w3.org/2000/svg" xmlns:xlink="http://www.w3.org/1999/xlink" x="0px" y="0px"
	 width="1025px" height="1024px" viewBox="0 0 1025 1024" enable-background="new 0 0 1025 1024" xml:space="preserve">
<g><path d="M331.638 996.324c-41.241-0.634-79.968-10.789-114.27-28.357l1.464 0.681c-9.545-4.712-16.847-12.755-20.485-22.577l-0.092-0.283-0.567-1.591c-49.512-138.060-44.516-254.326 14.848-345.572 3.529-4.58 68.387-89.448 8.303-209.616-2.015-3.888-3.197-8.488-3.197-13.364 0-0.045 0-0.090 0-0.135l-0 0.007c0.291-29.876 3.805-184.804 44.987-304.059 7.725-22.391 28.267-38.34 52.642-39.145l0.094-0.002c66.076-2.325 344.894-9.161 501.663 0.097 16.144 0.993 29.286 12.71 32.438 28.071l0.039 0.228c6.889 34.968 10.83 75.173 10.83 116.3s-3.942 81.333-11.468 120.261l0.638-3.961c-3.147 15.987-16.771 27.974-33.301 28.573l-0.062 0.002c-19.069 0.816-188.776 11.264-276.051 124.97-13.934 18.489-24.823 40.18-31.403 63.671l-0.327 1.366c-3.155 11.070-7.376 25.531-13.049 44.752-24.677 92.981-38.849 199.73-38.849 309.788 0 22.068 0.57 44.004 1.695 65.792l-0.126-3.052c0.041 0.679 0.064 1.473 0.064 2.273 0 13.944-7.112 26.227-17.907 33.42l-0.147 0.092c-30.168 19.675-67.096 31.377-106.756 31.377-0.58 0-1.159-0.003-1.738-0.007l0.088 0.001zM603.717 55.351c-124.195 0-246.535 3.155-287.357 4.594-12.792 0.433-23.524 8.789-27.474 20.296l-0.063 0.212c-39.742 115.214-43.202 266.185-43.478 295.272 68.456 137.313-7.126 234.939-10.378 239.035-81.214 124.928-28.547 271.803-11.236 320.069l0.581 1.591c1.17 3.198 3.475 5.745 6.415 7.203l0.075 0.034c100.075 47.99 169.043 14.737 194.048-1.799 3.377-2.306 5.565-6.137 5.565-10.479 0-0.306-0.011-0.609-0.032-0.909l0.002 0.040c-1.128-19.925-1.771-43.239-1.771-66.702 0-111.931 14.631-220.445 42.085-323.734l-1.984 8.774c5.646-19.138 9.853-33.612 12.994-44.558 7.93-28.401 20.408-53.178 36.772-74.857l-0.406 0.562c92.963-121.095 263.569-134.338 296.822-135.763 3.613-0.082 6.605-2.647 7.339-6.052l0.009-0.051c6.605-33.441 10.385-71.889 10.385-111.221 0-39.174-3.749-77.472-10.909-114.555l0.607 3.776c-0.602-3.384-3.436-5.948-6.901-6.129l-0.018-0.001c-59.060-3.473-135.735-4.65-211.691-4.65z"></path><path d="M678.442 274.819h-321.923c-13.834-0.016-25.045-11.226-25.060-25.059l-0-0.001v-132.221c0.016-13.834 11.226-25.045 25.059-25.060l321.925-0c13.834 0.016 25.045 11.226 25.060 25.059l0 0.001v132.221c-0.024 13.831-11.229 25.037-25.058 25.060l-0.002 0zM359.133 247.144h316.693v-126.99h-316.693z"></path><path d="M345.337 141.727h344.313v27.676h-344.313z"></path><path d="M787.926 314.672l-27.191-5.12c7.883-39.612 12.393-85.154 12.393-131.749 0-46.333-4.46-91.625-12.975-135.469l0.72 4.451 27.205-5.12c8.097 40.921 12.731 87.97 12.731 136.101 0 48.419-4.689 95.743-13.638 141.542l0.755-4.637z"></path><path d="M493.042 559.381q-4.594 0-9.382-0.194l-0.18-27.676h0.72c3.563 0.28 7.716 0.44 11.906 0.44 27.862 0 54.072-7.071 76.935-19.515l-0.846 0.421c0.37-0.252 0.61-0.672 0.61-1.147 0-0.261-0.072-0.505-0.198-0.714l0.003 0.006c-11.974-32.622-19.629-70.313-21.231-109.564l-0.024-0.737 27.676-1.273c1.259 36.34 8.098 70.685 19.682 102.761l-0.738-2.34c1.567 3.468 2.48 7.518 2.48 11.782 0 10.593-5.635 19.869-14.071 24.995l-0.13 0.073c-25.632 14.308-56.234 22.733-88.804 22.733-1.55 0-3.096-0.019-4.636-0.057l0.228 0.004z"></path><path d="M627.532 222.208h-6.213c-7.642 0-13.838-6.195-13.838-13.838s6.195-13.838 13.838-13.838v0h6.255c7.642 0 13.838 6.195 13.838 13.838s-6.195 13.838-13.838 13.838v0z"></path><path d="M556.281 222.208h-6.241c-7.642 0-13.838-6.195-13.838-13.838s6.195-13.838 13.838-13.838v0h6.241c7.642 0 13.838 6.195 13.838 13.838s-6.195 13.838-13.838 13.838v0z"></path><path d="M484.947 222.208h-6.158c-7.642 0-13.838-6.195-13.838-13.838s6.195-13.838 13.838-13.838v0h6.227c7.642 0 13.838 6.195 13.838 13.838s-6.195 13.838-13.838 13.838v0z"></path><path d="M413.668 222.208h-6.241c-7.642 0-13.838-6.195-13.838-13.838s6.195-13.838 13.838-13.838v0h6.241c7.642 0 13.838 6.195 13.838 13.838s-6.195 13.838-13.838 13.838v0z"></path><path d="M462.696 654.156c-0.012 0-0.026 0-0.040 0-0.689 0-1.366-0.050-2.028-0.147l0.075 0.009c-22.147-3.327-47.705-5.228-73.706-5.228-9.046 0-18.039 0.23-26.972 0.685l1.254-0.051c-0.207 0.011-0.449 0.017-0.692 0.017-7.652 0-13.855-6.203-13.855-13.855 0-7.409 5.815-13.459 13.13-13.836l0.034-0.001c8.163-0.436 17.719-0.685 27.334-0.685 27.307 0 54.146 2.004 80.377 5.874l-2.973-0.36c6.757 0.99 11.886 6.746 11.886 13.699 0 7.637-6.187 13.829-13.822 13.838l-0.001 0z"></path><path d="M451.556 732.561c-0.023 0-0.049 0-0.076 0-0.903 0-1.786-0.091-2.638-0.264l0.085 0.014c-20.485-4.325-44.023-6.801-68.139-6.801-9.926 0-19.754 0.42-29.468 1.242l1.268-0.086c-0.379 0.037-0.82 0.058-1.266 0.058-7.644 0-13.841-6.197-13.841-13.841 0-7.198 5.495-13.113 12.519-13.778l0.056-0.004c9.195-0.809 19.895-1.27 30.702-1.27 25.978 0 51.333 2.664 75.808 7.734l-2.408-0.417c6.403 1.299 11.154 6.882 11.154 13.575 0 7.614-6.149 13.791-13.752 13.838l-0.004 0z"></path><path d="M444.859 810.98c-0.016 0-0.034 0-0.053 0-0.793 0-1.57-0.071-2.324-0.206l0.079 0.012c-19.825-3.795-42.628-5.966-65.938-5.966-11.771 0-23.412 0.554-34.899 1.636l1.468-0.112c-0.349 0.031-0.754 0.049-1.164 0.049-7.642 0-13.838-6.195-13.838-13.838 0-7.048 5.269-12.865 12.083-13.728l0.068-0.007c10.888-1.069 23.535-1.679 36.325-1.679 24.913 0 49.285 2.313 72.915 6.735l-2.44-0.38c6.586 1.144 11.531 6.817 11.531 13.644 0 7.634-6.182 13.824-13.812 13.838l-0.001 0z"></path><path d="M442.811 889.399c-0.026 0-0.057 0-0.088 0-0.593 0-1.177-0.040-1.749-0.118l0.066 0.007c-19.656-2.987-42.336-4.694-65.415-4.694-14.776 0-29.389 0.699-43.806 2.067l1.84-0.141c-0.376 0.036-0.814 0.057-1.256 0.057-7.642 0-13.838-6.195-13.838-13.838 0-7.032 5.245-12.838 12.035-13.722l0.070-0.007c13.417-1.317 29.002-2.068 44.764-2.068 24.386 0 48.352 1.798 71.772 5.269l-2.65-0.323c6.683 1.058 11.731 6.778 11.731 13.677 0 7.515-5.99 13.63-13.456 13.833l-0.019 0z"></path></g>
</svg>
