<svg width="1025" height="1024" xmlns="http://www.w3.org/2000/svg" xml:space="preserve" version="1.1">

 <g>
  <title>Layer 1</title>
  <g stroke="null" id="svg_5">
   <path stroke="null" id="svg_1" d="m358.49399,1023.30009l308.01208,0c258.73015,0 357.29402,-104.72411 357.29402,-357.29402l0,-308.01208c0,-258.73015 -104.72411,-357.29402 -357.29402,-357.29402l-308.01208,0c-258.73015,0 -357.29402,104.72411 -357.29402,357.29402l0,308.01208c0,258.73015 98.56387,357.29402 357.29402,357.29402z"/>
   <g stroke="null" id="svg_2">
    <path stroke="null" id="svg_3" d="m296.89157,512.00003l147.8458,147.8458l289.53136,-289.53136"/>
    <path stroke="null" id="svg_4" fill="#FFFFFF" d="m438.57713,702.96752c-12.32048,0 -24.64097,-6.16024 -30.80121,-12.32048l-147.8458,-147.8458c-18.48073,-18.48073 -18.48073,-49.28193 0,-67.76266s49.28193,-18.48073 67.76266,0l110.88435,110.88435l258.73015,-252.56991c18.48073,-18.48073 49.28193,-18.48073 67.76266,0s18.48073,49.28193 0,67.76266l-289.53136,289.53136c-12.32048,6.16024 -24.64097,12.32048 -36.96145,12.32048z" class="st0"/>
   </g>
  </g>
 </g>
</svg>