<?xml version="1.0" encoding="utf-8"?>
<!-- Generator: Adobe Illustrator 17.0.0, SVG Export Plug-In . SVG Version: 6.00 Build 0)  -->
<!DOCTYPE svg PUBLIC "-//W3C//DTD SVG 1.1//EN" "http://www.w3.org/Graphics/SVG/1.1/DTD/svg11.dtd">
<svg version="1.1" id="Layer_1" xmlns="http://www.w3.org/2000/svg" xmlns:xlink="http://www.w3.org/1999/xlink" x="0px" y="0px"
	 width="1025px" height="1024px" viewBox="0 0 1025 1024" enable-background="new 0 0 1025 1024" xml:space="preserve">
<g><path d="M998.4 691.2h-25.6v-185.76c0-30.4-12.32-60-33.76-81.44l-134.24-134.24c-21.44-21.44-51.2-33.76-81.44-33.76h-57.76v-64c0-49.44-40.16-89.6-89.6-89.6h-486.4c-49.44 0-89.6 40.16-89.6 89.6v486.4c0 49.44 40.16 89.6 89.6 89.6h12.8c0 84.8 68.8 153.6 153.6 153.6s153.6-68.8 153.6-153.6h204.8c0 84.8 68.8 153.6 153.6 153.6s153.6-68.8 153.6-153.6h76.8c14.080 0 25.6-11.52 25.6-25.6v-25.6c0-14.080-11.52-25.6-25.6-25.6zM256 844.8c-42.4 0-76.8-34.4-76.8-76.8s34.4-76.8 76.8-76.8 76.8 34.4 76.8 76.8-34.4 76.8-76.8 76.8zM588.8 691.2h-200.48c-26.56-45.76-75.52-76.8-132.32-76.8s-105.76 31.040-132.32 76.8h-34.080c-7.040 0-12.8-5.76-12.8-12.8v-486.4c0-7.040 5.76-12.8 12.8-12.8h486.4c7.040 0 12.8 5.76 12.8 12.8v499.2zM665.6 332.8h57.76c10.080 0 20 4.16 27.2 11.2l116.8 116.8h-201.76v-128zM768 844.8c-42.4 0-76.8-34.4-76.8-76.8s34.4-76.8 76.8-76.8 76.8 34.4 76.8 76.8-34.4 76.8-76.8 76.8zM896 683.36c-27.52-41.44-74.56-68.96-128-68.96-39.52 0-75.2 15.36-102.4 39.84v-116.64h230.4v145.76z"></path></g>
</svg>
