<svg width="1025" height="1024" xmlns="http://www.w3.org/2000/svg" xml:space="preserve" version="1.1">

 <g>
  <title>Layer 1</title>
  <g stroke="null" id="svg_1">
   <path stroke="null" id="svg_2" d="m887.24279,1022.70397l-751.67013,0c-46.38012,0 -79.93881,-11.70652 -102.68291,-35.9c-22.40963,-23.859 -32.88975,-57.52919 -32.88975,-105.80465l0,-192.32141c0,-48.38695 10.48012,-82.05714 32.88975,-105.80465c22.7441,-24.19348 56.30279,-35.9 102.68291,-35.9l751.55864,0c46.38012,0 79.93881,11.70652 102.68291,35.9c22.40963,23.859 32.88975,57.52919 32.88975,105.80465l0,192.20992c0,48.38695 -10.48012,82.05714 -32.88975,105.80465c-22.63261,24.19348 -56.1913,36.01149 -102.57142,36.01149zm-751.67013,-404.37668c-25.64286,0 -42.25497,4.34814 -50.72826,13.49037c-8.91925,9.47671 -13.49037,28.6531 -13.49037,56.97173l0,192.20992c0,28.31863 4.57112,47.38354 13.49037,56.97173c8.47329,9.03074 25.0854,13.49037 50.72826,13.49037l751.55864,0c25.64286,0 42.25497,-4.34814 50.72826,-13.49037c8.91925,-9.47671 13.49037,-28.6531 13.49037,-56.97173l0,-192.32141c0,-28.31863 -4.57112,-47.38354 -13.49037,-56.97173c-8.47329,-9.03074 -25.0854,-13.49037 -50.72826,-13.49037l-751.55864,0l0,0.11149z"/>
   <path stroke="null" id="svg_3" d="m887.24279,475.61922l-751.67013,0c-46.38012,0 -79.93881,-11.70652 -102.68291,-35.9c-22.40963,-23.859 -32.88975,-57.52919 -32.88975,-105.80465l0,-192.20992c0,-48.38695 10.48012,-82.05714 32.88975,-105.80465c22.7441,-24.19348 56.30279,-35.9 102.68291,-35.9l751.55864,0c46.38012,0 79.93881,11.70652 102.68291,35.9c22.40963,23.859 32.88975,57.52919 32.88975,105.80465l0,192.20992c0,48.38695 -10.48012,82.05714 -32.88975,105.80465c-22.63261,24.19348 -56.1913,35.9 -102.57142,35.9zm-751.67013,-404.37668c-25.64286,0 -42.25497,4.34814 -50.72826,13.49037c-8.91925,9.47671 -13.49037,28.6531 -13.49037,56.97173l0,192.20992c0,28.31863 4.57112,47.38354 13.49037,56.97173c8.47329,9.03074 25.0854,13.49037 50.72826,13.49037l751.55864,0c25.64286,0 42.25497,-4.34814 50.72826,-13.49037c8.91925,-9.47671 13.49037,-28.6531 13.49037,-56.97173l0,-192.20992c0,-28.31863 -4.57112,-47.38354 -13.49037,-56.97173c-8.47329,-9.03074 -25.0854,-13.49037 -50.72826,-13.49037l-751.55864,0z"/>
  </g>
 </g>
</svg>