<svg width="1025" height="1024" xmlns="http://www.w3.org/2000/svg" xml:space="preserve" version="1.1">
 <g>
  <title>Layer 1</title>
  <g stroke="null" id="svg_1">
   <path stroke="null" id="svg_2" d="m886.51206,472.32434c-0.71396,0 -1.32592,0 -2.03988,0l-193.38065,0c-47.42722,0 -80.37128,-9.58744 -103.62592,-30.08823c-24.17258,-21.31675 -35.7999,-53.24088 -35.7999,-97.30229l0,-217.04326c0,-43.95942 11.72931,-75.67956 35.7999,-97.0983c23.25464,-20.70478 56.1987,-30.29222 103.62592,-30.29222l193.48264,0c47.42722,0 80.37128,9.58744 103.62592,30.29222c24.07059,21.41874 35.7999,53.13888 35.7999,97.0983l0,217.45124c0,41.51156 -10.40339,72.10977 -31.82213,93.42652c-23.05065,22.84666 -56.70867,33.55603 -105.6658,33.55603zm-195.42053,-406.54814c-29.68026,0 -49.97707,4.69172 -60.27846,13.87119c-3.4678,3.05982 -13.87119,12.34128 -13.87119,48.34516l0,216.94127c0,36.20787 10.40339,45.48933 13.87119,48.44716c10.3014,9.07747 30.5982,13.6672 60.27846,13.6672l193.48264,0c0.10199,0 0.10199,0 0.20399,0c30.7002,0.20399 51.40498,-4.69172 61.2984,-14.58514c8.4655,-8.4655 12.64726,-23.8666 12.64726,-47.12123l0,-217.45124c0,-36.00389 -10.40339,-45.28534 -13.87119,-48.34516c-10.3014,-9.17946 -30.5982,-13.87119 -60.27846,-13.87119l-193.48264,0l0,0.10199z"/>
   <path stroke="null" id="svg_3" d="m884.57417,1023.49999l-193.48264,0c-47.52921,0 -81.90119,-11.21934 -105.05383,-34.37198s-34.37198,-57.52462 -34.37198,-105.05383l0,-193.48264c0,-47.52921 11.21934,-81.90119 34.37198,-105.05383s57.52462,-34.37198 105.05383,-34.37198l193.48264,0c47.52921,0 81.90119,11.21934 105.05383,34.37198s34.37198,57.52462 34.37198,105.05383l0,193.48264c0,47.52921 -11.21934,81.90119 -34.37198,105.05383s-57.52462,34.37198 -105.05383,34.37198zm-193.48264,-407.05811c-58.23858,0 -74.14965,15.91107 -74.14965,74.14965l0,193.48264c0,58.23858 15.91107,74.14965 74.14965,74.14965l193.48264,0c58.23858,0 74.14965,-15.91107 74.14965,-74.14965l0,-193.48264c0,-58.23858 -15.91107,-74.14965 -74.14965,-74.14965l-193.48264,0z"/>
   <path stroke="null" id="svg_4" d="m335.84638,472.32434c-0.71396,0 -1.32592,0 -2.03988,0l-193.38065,0c-47.42722,0 -80.37128,-9.58744 -103.62592,-30.08823c-24.07059,-21.31675 -35.7999,-53.24088 -35.7999,-97.40428l0,-216.94127c0,-43.95942 11.72931,-75.67956 35.7999,-97.0983c23.25464,-20.70478 56.1987,-30.29222 103.62592,-30.29222l193.48264,0c47.42722,0 80.37128,9.58744 103.62592,30.29222c24.07059,21.41874 35.7999,53.13888 35.7999,97.0983l0,217.45124c0,41.51156 -10.40339,72.10977 -31.82213,93.42652c-23.15264,22.84666 -56.70867,33.55603 -105.6658,33.55603zm-195.42053,-406.54814c-29.68026,0 -49.97707,4.69172 -60.27846,13.87119c-3.4678,2.95783 -13.87119,12.23928 -13.87119,48.24317l0,216.94127c0,36.20787 10.40339,45.48933 13.87119,48.44716c10.3014,9.07747 30.5982,13.6672 60.27846,13.6672l193.48264,0c0.10199,0 0.10199,0 0.20399,0c30.80219,0.20399 51.40498,-4.69172 61.2984,-14.58514c8.4655,-8.4655 12.64726,-23.8666 12.64726,-47.12123l0,-217.34924c0,-36.00389 -10.40339,-45.28534 -13.87119,-48.34516c-10.3014,-9.17946 -30.5982,-13.87119 -60.27846,-13.87119l-193.48264,0l0,0.10199z"/>
   <path stroke="null" id="svg_5" d="m333.90849,1023.49999l-193.48264,0c-47.52921,0 -81.90119,-11.21934 -105.05383,-34.37198c-23.15264,-23.15264 -34.37198,-57.52462 -34.37198,-105.05383l0,-193.48264c0,-47.52921 11.21934,-81.90119 34.37198,-105.05383c23.15264,-23.15264 57.52462,-34.37198 105.05383,-34.37198l193.48264,0c47.52921,0 81.90119,11.21934 105.05383,34.37198c23.15264,23.15264 34.37198,57.52462 34.37198,105.05383l0,193.48264c0,47.52921 -11.21934,81.90119 -34.37198,105.05383c-23.25464,23.15264 -57.52462,34.37198 -105.05383,34.37198zm-193.48264,-407.05811c-58.23858,0 -74.14965,15.91107 -74.14965,74.14965l0,193.48264c0,58.23858 15.91107,74.14965 74.14965,74.14965l193.48264,0c58.23858,0 74.14965,-15.91107 74.14965,-74.14965l0,-193.48264c0,-58.23858 -15.91107,-74.14965 -74.14965,-74.14965l-193.48264,0z"/>
  </g>
 </g>

</svg>