<svg width="1025" height="1024" xmlns="http://www.w3.org/2000/svg" xml:space="preserve" version="1.1">

 <g>
  <title>Layer 1</title>
  <path stroke="null" id="svg_1" clip-rule="evenodd" fill-rule="evenodd" d="m1017.65249,504.51625c-24.9458,-29.93496 -59.86992,-47.39702 -99.7832,-47.39702c-37.4187,0 -74.8374,14.96748 -99.7832,44.90244c-17.46206,17.46206 -39.91328,27.44038 -62.3645,27.44038c-22.45122,0 -44.90244,-9.97832 -62.3645,-29.93496c-24.9458,-29.93496 -59.86992,-47.39702 -99.7832,-47.39702s-74.8374,14.96748 -99.7832,44.90244c-17.46206,17.46206 -39.91328,27.44038 -62.3645,27.44038c-22.45122,0 -44.90244,-9.97832 -62.3645,-29.93496c0,0 0,0 0,0c-24.9458,-29.93496 -59.86992,-47.39702 -99.7832,-47.39702c-37.4187,0 -74.8374,14.96748 -99.7832,44.90244c-17.46206,14.96748 -39.91328,24.9458 -62.3645,24.9458c-22.45122,0 -44.90244,-9.97832 -62.3645,-29.93496c-9.97832,-9.97832 -24.9458,-12.4729 -34.92412,-2.49458c-9.97832,9.97832 -12.4729,24.9458 -2.49458,34.92412c24.9458,29.93496 59.86992,47.39702 99.7832,47.39702s74.8374,-14.96748 99.7832,-44.90244c17.46206,-17.46206 39.91328,-27.44038 62.3645,-27.44038c22.45122,0 44.90244,9.97832 62.3645,29.93496c0,0 0,0 0,0c24.9458,29.93496 59.86992,47.39702 99.7832,47.39702c37.4187,0 74.8374,-14.96748 99.7832,-44.90244c17.46206,-17.46206 39.91328,-27.44038 62.3645,-27.44038c22.45122,0 44.90244,9.97832 62.3645,29.93496c24.9458,29.93496 59.86992,47.39702 99.7832,47.39702c37.4187,0 74.8374,-14.96748 99.7832,-44.90244c17.46206,-17.46206 39.91328,-27.44038 62.3645,-27.44038c22.45122,0 44.90244,9.97832 62.3645,29.93496c9.97832,9.97832 24.9458,12.4729 34.92412,2.49458c9.97832,-4.98916 12.4729,-22.45122 2.49458,-32.42954z" class="st0"/>
 </g>
</svg>