<svg width="1025" height="1024" xmlns="http://www.w3.org/2000/svg" xml:space="preserve" version="1.1">

 <g>
  <title>Layer 1</title>
  <path stroke="null" id="svg_1" clip-rule="evenodd" fill-rule="evenodd" d="m518.74057,1017.48585c29.95472,-24.96226 47.4283,-59.90943 47.4283,-99.84905c0,-37.44339 -14.97736,-74.88679 -44.93207,-99.84905c-17.47358,-17.47358 -27.45849,-39.93962 -27.45849,-62.40566c0,-22.46604 9.98491,-44.93207 29.95472,-62.40566c29.95472,-24.96226 47.4283,-59.90943 47.4283,-99.84905s-14.97736,-74.88679 -44.93207,-99.84905c-17.47358,-17.47358 -24.96226,-39.93962 -24.96226,-62.40566c0,-22.46604 9.98491,-44.93207 29.95472,-62.40566c0,0 0,0 0,0c29.95472,-24.96226 47.4283,-59.90943 47.4283,-99.84905s-14.97736,-74.88679 -44.93207,-99.84905c-17.47358,-17.47358 -27.45849,-39.93962 -27.45849,-62.40566c0,-22.46604 9.98491,-44.93207 29.95472,-62.40566c9.98491,-9.98491 12.48113,-24.96226 2.49623,-34.94717c-9.98491,-9.98491 -24.96226,-12.48113 -34.94717,-2.49623c-29.95472,24.96226 -47.4283,59.90943 -47.4283,99.84905c0,37.44339 14.97736,74.88679 44.93207,99.84905c17.47358,17.47358 27.45849,39.93962 27.45849,62.40566c0,22.46604 -9.98491,44.93207 -29.95472,62.40566c0,0 0,0 0,0c-29.95472,24.96226 -47.4283,59.90943 -47.4283,99.84905c0,37.44339 14.97736,74.88679 44.93207,99.84905c17.47358,17.47358 27.45849,39.93962 27.45849,62.40566c0,22.46604 -9.98491,44.93207 -29.95472,62.40566c-29.95472,24.96226 -47.4283,59.90943 -47.4283,99.84905c0,37.44339 14.97736,74.88679 44.93207,99.84905c17.47358,17.47358 27.45849,39.93962 27.45849,62.40566c0,22.46604 -9.98491,44.93207 -29.95472,62.40566c-9.98491,9.98491 -12.48113,24.96226 -2.49623,34.94717s22.46604,12.48113 32.45094,2.49623z" class="st0"/>
 </g>
</svg>