<?xml version="1.0" encoding="utf-8"?>
<!-- Generator: Adobe Illustrator 17.0.0, SVG Export Plug-In . SVG Version: 6.00 Build 0)  -->
<!DOCTYPE svg PUBLIC "-//W3C//DTD SVG 1.1//EN" "http://www.w3.org/Graphics/SVG/1.1/DTD/svg11.dtd">
<svg version="1.1" id="Layer_1" xmlns="http://www.w3.org/2000/svg" xmlns:xlink="http://www.w3.org/1999/xlink" x="0px" y="0px"
	 width="1025px" height="1024px" viewBox="0 0 1025 1024" enable-background="new 0 0 1025 1024" xml:space="preserve">
<g>
	<path fill="rgb(0, 0, 0)" d="M1010.198 247.242c-21.313-72.525-66.108-130.75-126.126-163.95-56.202-31.089-122.627-37.538-187.031-18.166-66.077 19.876-129.746 66.397-185.038 135-55.292-68.603-118.961-115.122-185.038-135-64.407-19.372-130.83-12.921-187.031 18.166-60.022 33.2-104.817 91.426-126.13 163.95-23.020 78.319-17.162 166.825 16.94 255.954l0.502 1.161c62.119 128.614 136.567 225.302 239.046 309.759-32.675 8.66-60.214 19.446-77.939 30.758l16.133 25.288c17.105-10.913 46.97-21.85 81.815-30.149 1.023 7.016 2.506 13.902 4.48 20.623 2.392 8.14 5.449 15.881 9.111 23.15-16.082 8.429-32.806 17.804-50.595 28.351l15.299 25.801c18.351-10.883 35.508-20.463 51.962-29.012 8.897 10.392 19.412 19.064 31.244 25.606 25.631 14.179 55.872 17.135 85.134 8.335 5.196-1.562 10.349-3.5 15.452-5.779 16.576 9.445 34.214 19.171 52.545 28.965l7.068 3.78 7.069-3.78c18.324-9.793 35.963-19.516 52.544-28.965 5.103 2.28 10.258 4.218 15.452 5.779 11.048 3.324 22.234 4.97 33.261 4.97 18.18 0 35.921-4.477 51.875-13.306 11.831-6.542 22.345-15.215 31.242-25.606 16.454 8.547 33.61 18.13 51.963 29.012l15.299-25.801c-17.788-10.548-34.511-19.922-50.595-28.351 3.661-7.269 6.717-15.013 9.111-23.15 1.975-6.719 3.457-13.606 4.479-20.623 34.847 8.3 64.712 19.236 81.815 30.149l16.134-25.288c-17.725-11.313-45.265-22.099-77.942-30.758 56.356-46.511 104.289-96.947 145.933-153.494l-24.154-17.788c-40.426 54.89-87.050 103.852-141.961 149.032-2.092-14.532-5.969-29.308-11.63-44.105l-0.502-1.164c-6.040-12.5-11.693-21.578-16.237-28.873-9.578-15.377-14.386-23.094-14.386-48.165 0-37.629-11.697-72.572-31.629-101.407 22.039-29.087 42.973-68.191 59.602-111.616 18.254-47.67 29.226-95.084 30.897-133.501 2.44-56.147-15.543-75.017-31.062-80.956-47.128-18.058-107.777 66.588-143.356 159.505-12.223 31.918-21.185 63.73-26.286 93.053-11.923-2.514-24.276-3.845-36.937-3.845s-25.012 1.331-36.936 3.845c-5.103-29.321-14.065-61.133-26.287-93.053-35.578-92.918-96.243-177.539-143.356-159.505-24.933 9.545-35.286 42.853-29.94 96.319l29.848-2.984c-4.321-43.231 4.102-62.751 10.817-65.322 6.655-2.542 23.045 5.915 43.287 30.542 22.419 27.282 44.201 66.941 61.331 111.674 12.049 31.471 20.732 62.688 25.367 91.058-23.333 9.281-44.261 23.345-61.578 40.968-18.808-26.186-36.709-60.461-51.283-98.52-10.641-27.798-18.862-56.164-23.77-82.030l-29.468 5.59c5.231 27.589 13.956 57.728 25.225 87.164 16.628 43.428 37.562 82.532 59.602 111.616-19.935 28.835-31.631 63.777-31.631 101.407 0 25.071-4.806 32.788-14.386 48.165-4.544 7.293-10.199 16.372-16.237 28.873l-0.502 1.164c-5.663 14.801-9.541 29.583-11.633 44.119-99.423-81.71-171.637-175.316-231.936-299.992-31.534-82.735-37.052-164.397-15.952-236.187 19.072-64.899 58.802-116.805 111.868-146.16 49.78-27.537 106.446-32.96 163.868-15.69 64.746 19.478 127.575 67.784 181.693 139.701l11.985 15.926 11.985-15.926c54.121-71.917 116.947-120.223 181.695-139.701 57.422-17.27 114.093-11.849 163.868 15.69 53.066 29.354 92.795 81.261 111.867 146.16 21.102 71.79 15.583 153.452-15.951 236.187-13.037 26.954-26.902 52.879-41.217 77.075l25.815 15.277c14.845-25.089 29.208-51.964 42.693-79.88l0.502-1.162c34.108-89.13 39.965-177.636 16.946-255.955zM512 935.807c-10.25-5.523-20.223-11.003-29.92-16.421 10.399-7.827 20.425-17.162 29.92-27.939 9.498 10.776 19.523 20.114 29.923 27.939-9.699 5.418-19.671 10.899-29.923 16.421zM603.236 412.307c17.129-44.732 38.912-84.392 61.332-111.674 20.237-24.623 36.621-33.088 43.287-30.542 6.661 2.55 13.202 19.799 11.816 51.642-1.533 35.278-11.811 79.343-28.94 124.079-14.575 38.060-32.475 72.334-51.283 98.52-17.318-17.623-38.245-31.686-61.58-40.968 4.636-28.372 13.318-59.587 25.367-91.058zM344.303 733.585c10.573-16.97 18.924-30.373 18.924-64.026 0-82.033 66.74-148.776 148.776-148.776s148.776 66.74 148.776 148.776c0 33.651 8.351 47.053 18.924 64.026 4.303 6.913 9.175 14.73 14.406 25.485 5.949 15.694 9.366 30.561 10.719 44.447-12.148-2.081-24.197-3.753-35.549-4.909l-3.036 29.844c12.145 1.234 25.153 3.092 38.211 5.448-1.768 13.603-5.672 25.825-11.109 36.452-12.047-5.769-23.849-11.045-35.587-15.903l-11.466 27.72c9.591 3.968 19.24 8.239 29.052 12.846-5.464 5.352-11.414 9.818-17.655 13.271-32.215 17.818-83.13 14.815-130.684-45.729v-54.876c12.699-2.839 24.771-9.268 35.498-19.040l-20.198-22.177c-9.267 8.439-19.744 12.899-30.299 12.899s-21.033-4.46-30.298-12.899l-20.198 22.177c10.726 9.772 22.799 16.201 35.498 19.040v54.876c-47.555 60.544-98.469 63.553-130.684 45.729-6.243-3.453-12.192-7.919-17.655-13.271 9.81-4.607 19.461-8.878 29.052-12.846l-11.466-27.72c-11.738 4.856-23.539 10.131-35.587 15.903-5.437-10.627-9.341-22.849-11.109-36.452 13.057-2.354 26.066-4.214 38.211-5.448l-3.036-29.844c-11.355 1.153-23.404 2.828-35.549 4.909 1.356-13.885 4.769-28.753 10.719-44.447 5.228-10.755 10.097-18.572 14.403-25.485z"></path>
	<path fill="rgb(0, 0, 0)" d="M587.908 727.103c8.127 0 14.996 5.043 14.996 11.016h29.997c0-22.614-20.184-41.012-44.993-41.012s-44.996 18.399-44.996 41.012h29.997c0-5.972 6.87-11.016 14.999-11.016z"></path>
	<path fill="rgb(0, 0, 0)" d="M436.093 727.103c8.129 0 14.998 5.043 14.998 11.016h29.997c0-22.614-20.186-41.012-44.995-41.012-24.81 0-44.993 18.399-44.993 41.012h29.997c0-5.972 6.868-11.016 14.996-11.016z"></path>
	<path fill="rgb(0, 0, 0)" d="M865.563 167.562h29.997v29.997h-29.997v-29.997z"></path>
	<path fill="rgb(0, 0, 0)" d="M895.549 227.556h29.997v29.997h-29.997v-29.997z"></path>
	<path fill="rgb(0, 0, 0)" d="M892.362 618.881l16.319-25.167 25.165 16.317-16.317 25.167-25.166-16.317z"></path>
</g>
</svg>
