<?xml version="1.0" encoding="utf-8"?>
<!-- Generator: Adobe Illustrator 17.0.0, SVG Export Plug-In . SVG Version: 6.00 Build 0)  -->
<!DOCTYPE svg PUBLIC "-//W3C//DTD SVG 1.1//EN" "http://www.w3.org/Graphics/SVG/1.1/DTD/svg11.dtd">
<svg version="1.1" id="Layer_1" xmlns="http://www.w3.org/2000/svg" xmlns:xlink="http://www.w3.org/1999/xlink" x="0px" y="0px"
	 width="1025px" height="1024px" viewBox="0 0 1025 1024" enable-background="new 0 0 1025 1024" xml:space="preserve">
<g>
	<path fill="rgb(0, 0, 0)" d="M1001.551 463.183c-6.991-9.263-14.223-18.848-15.375-26.287-1.248-7.921 2.752-19.552 6.624-30.784 5.632-16.288 11.983-34.752 6.272-52.352-5.807-17.937-22.001-29.248-36.288-39.232-9.6-6.703-19.505-13.632-23.008-20.48-3.584-7.008-3.377-19.232-3.185-31.040 0.288-17.312 0.609-36.913-10.351-51.985-11.008-15.135-29.824-20.879-46.415-25.935-11.249-3.424-22.897-6.993-28.384-12.48-5.504-5.504-9.057-17.152-12.48-28.401-5.056-16.591-10.801-35.407-25.952-46.415-15.057-10.96-34.673-10.656-51.969-10.352-11.808 0.224-24.047 0.4-31.040-3.184-6.847-3.488-13.775-13.408-20.479-23.008-9.969-14.288-21.28-30.464-39.217-36.288-17.615-5.712-36.113 0.64-52.416 6.24-11.232 3.872-22.897 7.856-30.784 6.64-7.439-1.168-17.024-8.4-26.304-15.376-13.952-10.528-29.792-22.464-48.8-22.464s-34.848 11.936-48.817 22.464c-9.263 6.992-18.848 14.208-26.287 15.376-7.887 1.264-19.535-2.768-30.784-6.64-16.303-5.616-34.767-11.968-52.352-6.272-17.937 5.824-29.248 22-39.232 36.288-6.703 9.584-13.632 19.504-20.48 22.992-7.008 3.584-19.247 3.36-31.040 3.184-17.312-0.336-36.913-0.624-51.985 10.352-15.135 11.008-20.879 29.824-25.935 46.416-3.424 11.264-6.993 22.895-12.48 28.399-5.504 5.505-17.152 9.057-28.416 12.497-16.592 5.056-35.392 10.801-46.416 25.935-10.96 15.057-10.64 34.673-10.352 51.985 0.192 11.825 0.384 24.032-3.184 31.057-3.488 6.831-13.408 13.759-22.992 20.463-14.288 9.984-30.464 21.295-36.304 39.232-5.712 17.615 0.656 36.081 6.272 52.384 3.872 11.249 7.888 22.863 6.64 30.784-1.168 7.439-8.384 17.024-15.376 26.287-10.544 13.969-22.48 29.809-22.48 48.817s11.936 34.848 22.464 48.815c6.992 9.265 14.208 18.865 15.376 26.305l31.616-4.977c-2.4-15.345-12.080-28.175-21.44-40.591-7.872-10.449-16.016-21.248-16.016-29.553s8.144-19.104 16.016-29.553c9.36-12.416 19.024-25.247 21.44-40.591 2.48-15.776-2.848-31.232-8-46.176-4.176-12.113-8.496-24.657-6.080-32.064 2.512-7.729 13.536-15.424 24.192-22.88 12.8-8.945 26.048-18.191 33.168-32.143 7.2-14.112 6.944-30.385 6.672-46.129-0.208-12.896-0.416-26.208 4.24-32.625 4.721-6.479 17.504-10.383 29.888-14.159 15.008-4.593 30.543-9.327 41.696-20.48 11.151-11.153 15.887-26.671 20.463-41.679 3.776-12.369 7.665-25.169 14.161-29.889 6.415-4.672 19.744-4.464 32.625-4.24 15.744 0.256 32 0.528 46.127-6.672 13.952-7.12 23.2-20.352 32.16-33.168 7.441-10.656 15.153-21.664 22.88-24.176 7.392-2.432 19.936 1.92 32.049 6.080 14.959 5.152 30.399 10.464 46.176 8 15.328-2.4 28.175-12.080 40.591-21.44 10.432-7.872 21.231-16.016 29.536-16.016s19.104 8.144 29.553 16.016c12.416 9.36 25.247 19.024 40.591 21.44 15.744 2.432 31.232-2.848 46.176-8 12.128-4.176 24.64-8.512 32.081-6.080 7.712 2.512 15.424 13.52 22.88 24.176 8.943 12.8 18.207 26.048 32.143 33.168 14.112 7.2 30.449 6.976 46.129 6.672 12.895-0.192 26.223-0.432 32.639 4.24 6.481 4.72 10.369 17.503 14.161 29.889 4.576 15.008 9.312 30.543 20.465 41.696 11.135 11.151 26.671 15.887 41.679 20.463 12.352 3.776 25.152 7.68 29.871 14.159 4.672 6.417 4.449 19.729 4.241 32.625-0.256 15.744-0.512 32.017 6.688 46.129 7.121 13.952 20.352 23.199 33.152 32.143 10.656 7.456 21.664 15.151 24.192 22.895 2.4 7.409-1.903 19.936-6.080 32.049-5.152 14.944-10.464 30.4-8 46.176 2.415 15.328 12.096 28.177 21.44 40.576 7.855 10.464 16 21.263 16 29.568s-8.143 19.104-16.017 29.568c-9.343 12.399-19.008 25.231-21.439 40.576l31.631 4.977c1.152-7.441 8.384-17.025 15.375-26.305 10.513-13.967 22.449-29.807 22.449-48.815s-11.936-34.848-22.449-48.817zM870.464 808.335c-15.008 4.577-30.543 9.312-41.681 20.465-11.151 11.136-15.887 26.671-20.479 41.679-3.761 12.369-7.665 25.153-14.161 29.873-6.4 4.657-19.808 4.431-32.608 4.239-15.744-0.256-32-0.511-46.144 6.689-13.935 7.119-23.185 20.352-32.128 33.152-7.456 10.655-15.153 21.663-22.897 24.192-7.424 2.432-19.935-1.888-32.063-6.080-14.944-5.137-30.417-10.369-46.177-8-15.343 2.415-28.175 12.096-40.575 21.439-10.449 7.873-21.248 16.017-29.553 16.017s-19.104-8.143-29.568-16.017c-12.399-9.343-25.248-19.008-40.576-21.439-15.729-2.369-31.232 2.863-46.176 8-12.113 4.175-24.623 8.512-32.064 6.080-7.729-2.513-15.439-13.537-22.88-24.192-8.96-12.817-18.208-26.049-32.143-33.169-14.112-7.2-30.4-6.944-46.112-6.673-12.896 0.16-26.225 0.433-32.641-4.255-6.479-4.721-10.383-17.504-14.159-29.873-4.593-15.008-9.327-30.543-20.48-41.681-11.153-11.151-26.671-15.887-41.696-20.479-12.369-3.761-25.169-7.665-29.872-14.161l-25.872 18.848c11.008 15.121 29.824 20.864 46.4 25.92 11.264 3.439 22.912 6.993 28.416 12.497s9.056 17.135 12.497 28.399c5.056 16.591 10.799 35.392 25.935 46.4 15.055 10.993 34.673 10.624 52 10.351 11.793-0.127 24.032-0.384 31.040 3.185 6.833 3.488 13.76 13.408 20.463 23.008 9.984 14.289 21.297 30.464 39.232 36.305 17.585 5.664 36.065-0.64 52.369-6.273 11.249-3.855 22.897-7.983 30.784-6.624 7.439 1.153 17.024 8.385 26.287 15.377 13.969 10.528 29.809 22.464 48.817 22.464s34.848-11.936 48.815-22.449c9.265-6.991 18.865-14.223 26.305-15.375 7.807-1.376 19.535 2.752 30.784 6.624 16.319 5.632 34.799 12 52.351 6.272 17.937-5.807 29.248-22.016 39.232-36.305 6.705-9.583 13.649-19.503 20.465-22.991 7.008-3.601 19.2-3.409 31.040-3.185 17.199 0.273 36.896 0.609 51.985-10.351 15.119-11.008 20.864-29.807 25.919-46.4 3.441-11.249 6.993-22.912 12.497-28.399 5.504-5.504 17.137-9.057 28.384-12.48 16.591-5.056 35.407-10.816 46.415-25.952l-25.871-18.817c-4.687 6.465-17.487 10.353-29.856 14.144z"></path>
	<path fill="rgb(0, 0, 0)" d="M128 736v-32c0-8.847-7.168-16-16-16h-32v32h16v16c0 8.832-7.184 16-16 16s-16-7.168-16-16v-96c0-8.832 7.184-16 16-16s16 7.168 16 16v16h32v-16c0-26.464-21.536-48-48-48s-48 21.536-48 48v96c0 26.464 21.536 48 48 48s48-21.536 48-48zM144 592v144c0 26.464 21.536 48 48 48s48-21.536 48-48v-144h-32v144c0 8.832-7.183 16-16 16s-16-7.168-16-16v-144h-32zM256 640v144h32v-32h32v32h32v-144c0-26.464-21.536-48-48-48s-48 21.536-48 48zM320 640v80h-32v-80c0-8.832 7.185-16 16-16s16 7.168 16 16zM480 640v144h32v-32h32v32h32v-144c0-26.464-21.536-48-48-48s-48 21.536-48 48zM528 624c8.832 0 16 7.168 16 16v80h-32v-80c0-8.832 7.183-16 16-16zM368 608v79.936c0 0.047 0 0.079 0 0.111v95.953h32v-50.383l35.505 44.383c3.039 3.793 7.631 6.001 12.495 6.001h16v-32h-8.32l-38.944-48.687c26.752-4.209 47.264-27.409 47.264-55.313 0-30.88-25.12-56-56-56h-24c-8.832 0-16 7.153-16 16zM400 624h8c13.233 0 24 10.767 24 24s-10.767 24-24 24h-8v-48zM656 684.928l-33.135-82.863c-2.865-7.153-10.481-11.136-17.888-9.777-7.537 1.44-12.977 8.049-12.977 15.712v176h32v-92.928l33.135 82.863c2.481 6.176 8.433 10.065 14.848 10.065 1.009 0 2.033-0.096 3.040-0.288 7.537-1.44 12.977-8.047 12.977-15.712v-176h-32v92.928zM768 624h32v-32h-96v32h32v160h32v-160zM896 624v-32h-64c-8.847 0-16 7.153-16 16v160c0 8.847 7.153 16 16 16h64v-32h-48v-48h48v-32h-48v-48h48zM912 608v160c0 8.847 7.151 16 16 16h64v-32h-48v-48h48v-32h-48v-48h48v-32h-64c-8.849 0-16 7.153-16 16z"></path>
	<path fill="rgb(0, 0, 0)" d="M912 512c0-220.559-179.439-400-400-400-220.559 0-400 179.441-400 400 0 16.113 1.088 32.928 3.216 49.984l31.745-3.968c-1.969-15.744-2.961-31.232-2.961-46.016 0-202.912 165.088-368 368-368 202.927 0 368 165.088 368 368 0 14.784-0.992 30.272-2.976 46.016l31.744 3.968c2.161-17.056 3.232-33.871 3.232-49.984zM756.271 828.657l-19.567-25.313c-64.945 50.144-142.624 76.657-224.704 76.657-82.065 0-159.759-26.513-224.687-76.657l-19.569 25.313c70.592 54.527 155.040 83.343 244.256 83.343s173.679-28.817 244.271-83.343z"></path>
	<path fill="rgb(0, 0, 0)" d="M352 336h-32v32h16v160h32v-176c0-8.832-7.168-16-16-16zM440 336c-30.88 0-56 25.12-56 56v80c0 30.88 25.12 56 56 56s56-25.12 56-56v-80c0-30.88-25.12-56-56-56zM464 472c0 13.231-10.769 24-24 24s-24-10.769-24-24v-80c0-13.233 10.769-24 24-24s24 10.767 24 24v80zM568 336c-30.88 0-56 25.12-56 56v80c0 30.88 25.12 56 56 56s56-25.12 56-56v-80c0-30.88-25.12-56-56-56zM592 472c0 13.231-10.767 24-24 24s-24-10.769-24-24v-80c0-13.233 10.767-24 24-24s24 10.767 24 24v80z"></path>
	<path fill="rgb(0, 0, 0)" d="M673.663 504.85l64-128 28.623 14.304-64 128-28.623-14.304z"></path>
	<path fill="rgb(0, 0, 0)" d="M688 400h-32v32h32v-32z"></path>
	<path fill="rgb(0, 0, 0)" d="M784 464h-32v32h32v-32z"></path>
</g>
</svg>
