<?xml version="1.0" encoding="utf-8"?>
<!-- Generator: Adobe Illustrator 17.0.0, SVG Export Plug-In . SVG Version: 6.00 Build 0)  -->
<!DOCTYPE svg PUBLIC "-//W3C//DTD SVG 1.1//EN" "http://www.w3.org/Graphics/SVG/1.1/DTD/svg11.dtd">
<svg version="1.1" id="Layer_1" xmlns="http://www.w3.org/2000/svg" xmlns:xlink="http://www.w3.org/1999/xlink" x="0px" y="0px"
	 width="1025px" height="1024px" viewBox="0 0 1025 1024" enable-background="new 0 0 1025 1024" xml:space="preserve">
<g>
	<path fill="rgb(0, 0, 0)" d="M972.607 136.62c-8.253-32.086-27.759-59.826-54.926-78.112-31.469-21.164-69.060-28.126-105.841-19.61-36.266 8.398-67.736 31.694-86.342 63.922-14.446 25.052-20.398 53.446-17.213 82.1 0.631 5.716-0.973 11.281-4.5 15.642-44.026 54.264-65.697 80.984-113.188 139.54l-98.748 121.75h-412.433c-16.84 0-30.54 13.708-30.54 30.56v56.54c0 16.623 1.1 33.288 3.272 49.527 1.008 7.538 7.448 13.014 14.85 13.014 0.662 0 1.332-0.044 2.006-0.133 8.212-1.098 13.978-8.644 12.88-16.854-1.996-14.929-3.008-30.254-3.008-45.553v-56.54c0-0.297 0.252-0.559 0.54-0.559h812.693c0.303 0 0.559 0.256 0.559 0.559v56.54c0 14.854-0.974 29.882-2.895 44.666-1.069 8.215 4.726 15.74 12.942 16.809 8.214 1.060 15.74-4.728 16.808-12.942 2.086-16.060 3.146-32.39 3.146-48.532v-56.54c0-16.851-13.709-30.56-30.56-30.56h-66.876c24.028-62.785 36.312-94.866 59.948-156.559 2.001-5.226 6.098-9.432 11.516-11.83 28.575-12.586 51.238-33.994 65.542-61.906 14.94-29.148 18.621-62.863 10.369-94.938zM935.542 217.871c-11.127 21.711-28.742 38.358-50.962 48.146-12.806 5.668-22.542 15.809-27.416 28.548-24.945 65.106-37.247 97.235-64.052 167.286h-262.639l83.42-102.852c47.492-58.554 69.164-85.274 113.202-139.556 8.614-10.655 12.522-24.084 11.004-37.828-2.474-22.268 2.156-44.334 13.381-63.804 14.674-25.416 38.514-43.064 67.127-49.69 28.598-6.626 57.833-1.198 82.326 15.274 21.060 14.176 36.196 35.73 42.619 60.696 6.424 24.968 3.579 51.168-8.009 73.78z"></path>
	<path fill="rgb(0, 0, 0)" d="M896.355 639.747c-7.916-2.433-16.312 2.015-18.744 9.934-28.439 92.589-95.255 169.169-183.315 210.106-10.66 4.956-17.546 15.8-17.546 27.629v48.6c0 0.3-0.246 0.545-0.545 0.545h-305.216c-8.284 0-15 6.716-15 15s6.716 15 15 15h305.213c16.844 0 30.546-13.705 30.546-30.546v-48.6c0-0.228 0.116-0.388 0.195-0.424 95.756-44.517 168.415-127.803 199.347-228.502 2.432-7.918-2.016-16.311-9.934-18.743z"></path>
	<path fill="rgb(0, 0, 0)" d="M412.605 777.521c28.626-24.237 51.914-54.542 67.895-88.632 5.183-11.040 4.622-23.964-1.501-34.574-6.126-10.614-17.042-17.569-29.18-18.606-5.366-0.463-10.824-0.765-16.221-0.892-8.338-0.224-15.154 6.36-15.35 14.642-0.195 8.283 6.362 15.154 14.642 15.351 4.772 0.111 9.595 0.378 14.359 0.79 5.108 0.435 8.255 5.938 6.093 10.546-15.128 32.268-37.62 60.722-65.393 82.848-14.941-9.876-31.411-18.538-48.398-25.286-3.514-1.391-7.141-2.742-10.81-4.014-0.207-0.072-0.417-0.136-0.626-0.207-8.292-10.807-19.104-19.117-31.314-24.383 24.108-16.38 51.402-28.474 80.906-34.959 8.090-1.78 13.207-9.78 11.428-17.873-1.78-8.092-9.784-13.203-17.873-11.428-10.913 2.4-21.686 5.512-32.2 9.292-6.684-36.915-21.277-72.221-42.794-103.081-6.984-10.012-18.464-15.99-30.711-15.99-12.251 0-23.73 5.978-30.715 15.991-21.522 30.87-36.119 66.19-42.799 103.121-35.322-12.672-73.218-17.686-110.728-14.467-12.16 1.037-23.076 7.992-29.202 18.606-6.124 10.61-6.684 23.534-1.504 34.566 15.986 34.099 39.276 64.407 67.898 88.64-28.622 24.257-51.91 54.56-67.902 88.631-5.178 11.063-4.61 24.004 1.524 34.619 6.126 10.604 17.038 17.551 29.18 18.586 7.404 0.634 14.816 0.95 22.226 0.95 30.144 0 60.158-5.23 88.514-15.41 6.682 36.92 21.277 72.23 42.789 103.087 6.982 10.029 18.467 16.014 30.719 16.014 12.253 0 23.738-5.985 30.714-16.005 21.518-30.862 36.111-66.175 42.796-103.094 35.38 12.704 73.261 17.668 110.73 14.458 12.15-1.036 23.060-7.985 29.188-18.586 6.132-10.615 6.702-23.555 1.518-34.633-15.983-34.057-39.268-64.353-67.898-88.617zM217.906 690.95c0.157-6.065 0.553-12.172 1.18-18.228 4.029-38.894 17.988-76.413 40.364-108.507 1.912-2.743 4.646-3.15 6.106-3.15 1.458 0 4.195 0.41 6.104 3.15 20.366 29.21 33.757 62.916 39.040 98.060-20.96 10.483-39.252 22.954-55.492 37.060-13.645 1.796-26.207 7.069-36.74 14.934-0.425-5.743-0.643-11.514-0.643-17.274 0-2.008 0.026-4.024 0.081-6.044zM77.766 676.138c-1.41-3.002-0.398-5.565 0.33-6.828 0.73-1.265 2.45-3.428 5.772-3.711 35.5-3.041 71.392 2.204 104.457 15.192-1.353 22.060 0.041 44.434 4.344 66.58-5.024 12.101-7.062 25.477-5.455 39.311-47.174-22.822-86.298-61.167-109.448-110.546zM198.025 870.184c-35.67 15.959-75.141 22.623-114.165 19.282-5.116-0.438-8.258-5.96-6.094-10.582 15.128-32.234 37.622-60.687 65.393-82.842 29.934 19.782 53.317 26.824 59.918 29.571 8.131 10.537 18.852 18.971 31.214 24.328-4.754 3.223-9.646 6.295-14.648 9.192-6.885 3.99-13.957 7.606-21.618 11.052zM312.026 882.322c0 0.004 0 0.010 0 0.017-4.035 38.885-17.99 76.402-40.37 108.502-1.915 2.746-4.643 3.155-6.1 3.155s-4.186-0.41-6.104-3.164c-20.366-29.211-33.757-62.917-39.040-98.060 20.714-10.337 38.502-22.479 55.459-37.047 13.528-1.752 26.124-6.922 36.78-14.858 0.422 5.719 0.636 11.47 0.636 17.206 0 8.038-0.424 16.198-1.26 24.25zM313.723 785.978c-0.797 4.604-2.258 9.052-4.37 13.293-0.001 0.001-0.001 0.004-0.001 0.006-8.334 16.737-25.119 27.136-43.808 27.136-26.952 0-48.878-21.929-48.878-48.881 0-26.962 21.926-48.9 48.878-48.9 16.421 0 31.653 8.172 40.755 21.874 5.329 8 8.145 17.347 8.145 27.026 0 2.865-0.241 5.684-0.721 8.445zM453.009 885.763c-2.127 3.684-5.565 3.607-5.765 3.706-35.506 3.040-71.4-2.208-104.458-15.206 1.316-21.418 0.056-43.945-4.332-66.532 5.267-12.662 6.959-26.382 5.466-39.34 50.849 24.956 87.588 63.968 109.42 110.482 1.422 3.037 0.404 5.622-0.33 6.89z"></path>
	<path fill="rgb(0, 0, 0)" d="M217.965 243.081c-27.752 0-50.327 22.578-50.327 50.328s22.578 50.328 50.327 50.328c27.75 0 50.328-22.577 50.328-50.328s-22.575-50.328-50.328-50.328zM217.965 313.737c-11.208 0-20.328-9.12-20.328-20.328s9.12-20.328 20.328-20.328c11.209 0 20.329 9.12 20.329 20.328s-9.12 20.328-20.329 20.328z"></path>
	<path fill="rgb(0, 0, 0)" d="M379.628 171.612c-27.749 0-50.327 22.578-50.327 50.328s22.575 50.328 50.327 50.328c27.75 0 50.328-22.578 50.328-50.328s-22.578-50.328-50.328-50.328zM379.628 242.268c-11.208 0-20.328-9.12-20.328-20.328s9.119-20.328 20.328-20.328c11.209 0 20.329 9.12 20.329 20.328s-9.12 20.328-20.329 20.328z"></path>
	<path fill="rgb(0, 0, 0)" d="M253.303 0c-27.75 0-50.328 22.578-50.328 50.328s22.578 50.328 50.328 50.328c27.749 0 50.327-22.578 50.327-50.328s-22.578-50.328-50.327-50.328zM253.303 70.656c-11.208 0-20.328-9.12-20.328-20.328s9.12-20.328 20.328-20.328c11.208 0 20.328 9.12 20.328 20.328s-9.12 20.328-20.328 20.328z"></path>
</g>
</svg>
