<svg width="1025" height="1024" xmlns="http://www.w3.org/2000/svg" xml:space="preserve" enable-background="new 0 0 1025 1024" version="1.1">

 <g>
  <title>Layer 1</title>
  <g stroke="null" id="svg_7">
   <path stroke="null" id="svg_2" d="m563.58222,1022.91246l-102.1645,0c-28.37903,0 -52.5012,-18.44637 -61.01491,-46.8254c-18.44637,-63.85281 -68.10967,-114.93506 -150.40885,-157.5036c-22.70322,-11.35161 -35.47378,-32.63588 -35.47378,-56.75806l0,-15.60847c0,-35.47378 28.37903,-63.85281 63.85281,-63.85281l468.25396,0c17.02742,0 32.63588,7.09476 45.40644,18.44637c11.35161,11.35161 18.44637,28.37903 18.44637,45.40644l0,15.60847c0,24.12217 -14.18951,45.40644 -35.47378,56.75806c-82.29918,42.56854 -131.96248,93.65079 -150.40885,157.5036c-7.09476,28.37903 -32.63588,46.8254 -61.01491,46.8254zm-285.20923,-297.97979c-11.35161,0 -21.28427,9.93266 -21.28427,21.28427l0,15.60847c0,8.51371 4.25685,15.60847 12.77056,19.86532c93.65079,48.24435 148.9899,107.84031 171.69312,183.04473c2.8379,9.93266 11.35161,15.60847 19.86532,15.60847l102.1645,0c9.93266,0 17.02742,-5.67581 19.86532,-15.60847c21.28427,-75.20442 78.04233,-134.80038 171.69312,-183.04473c7.09476,-4.25685 12.77056,-11.35161 12.77056,-19.86532l0,-15.60847c0,-5.67581 -2.8379,-11.35161 -5.67581,-15.60847c-4.25685,-4.25685 -9.93266,-5.67581 -15.60847,-5.67581l-468.25396,0z"/>
   <path stroke="null" id="svg_3" d="m325.19839,469.52143c-31.21693,0 -62.43386,-12.77056 -82.29918,-38.31169c-45.40644,-59.59596 -38.31169,-129.12458 19.86532,-208.58585c4.25685,-5.67581 11.35161,-8.51371 18.44637,-8.51371c85.13708,8.51371 164.59836,41.14959 242.64069,103.58345c5.67581,4.25685 8.51371,9.93266 8.51371,17.02742c0,7.09476 -2.8379,12.77056 -8.51371,17.02742l-133.38143,97.90765c-18.44637,12.77056 -42.56854,19.86532 -65.27176,19.86532zm-34.05483,-211.42376c-52.5012,78.04233 -32.63588,120.61087 -12.77056,147.57094c18.44637,25.54112 59.59596,28.37903 87.97499,8.51371l110.67821,-80.88023c-59.59596,-42.56854 -122.02982,-66.69071 -185.88263,-75.20442z"/>
   <path stroke="null" id="svg_4" d="m699.80156,469.52143c-22.70322,0 -45.40644,-7.09476 -65.27176,-21.28427l-133.38143,-97.90765c-5.67581,-4.25685 -8.51371,-9.93266 -8.51371,-17.02742c0,-7.09476 2.8379,-12.77056 8.51371,-17.02742c78.04233,-61.01491 157.5036,-95.06974 242.64069,-103.58345c7.09476,0 14.18951,2.8379 18.44637,8.51371c58.17701,79.46128 65.27176,148.9899 19.86532,208.58585c-19.86532,26.96008 -51.08225,39.73064 -82.29918,39.73064zm-151.8278,-136.21933l110.67821,80.88023c28.37903,19.86532 69.52862,15.60847 87.97499,-8.51371c19.86532,-25.54112 39.73064,-69.52862 -12.77056,-147.57094c-63.85281,8.51371 -124.86772,32.63588 -185.88263,75.20442z"/>
   <path stroke="null" id="svg_5" d="m746.62695,256.67872c-9.93266,0 -18.44637,-7.09476 -21.28427,-17.02742l-42.56854,-212.84271c-1.41895,-11.35161 5.67581,-22.70322 17.02742,-25.54112c11.35161,-1.41895 22.70322,5.67581 25.54112,17.02742l42.56854,212.84271c2.8379,11.35161 -5.67581,22.70322 -17.02742,25.54112c-1.41895,0 -2.8379,0 -4.25685,0z"/>
   <path stroke="null" id="svg_6" d="m278.373,256.67872c-1.41895,0 -2.8379,0 -4.25685,0c-11.35161,-2.8379 -18.44637,-14.18951 -17.02742,-25.54112l42.56854,-212.84271c2.8379,-11.35161 14.18951,-18.44637 25.54112,-17.02742c11.35161,2.8379 18.44637,14.18951 17.02742,25.54112l-42.56854,212.84271c-2.8379,9.93266 -11.35161,17.02742 -21.28427,17.02742z"/>
  </g>
 </g>
</svg>