<svg width="1025" height="1024" xmlns="http://www.w3.org/2000/svg" version="1.1" xml:space="preserve">
 <g>
  <title>Layer 1</title>
  <g stroke="null" id="svg_8">
   <path stroke="null" d="m235.30172,414.4815c0,-3.07145 -1.53572,-7.67862 -4.60717,-10.75007c-3.07145,-3.07145 -6.1429,-4.60717 -10.75007,-4.60717l0,0c-3.07145,0 -7.67862,1.53572 -10.75007,4.60717c-3.07145,3.07145 -4.60717,6.1429 -4.60717,9.21435c0,1.53572 -13.82152,182.75121 -30.71449,261.07316c-4.60717,24.57159 -7.67862,55.28608 -12.2858,92.14347c-6.1429,55.28608 -13.82152,130.53658 -33.78594,230.35867c0,4.60717 0,7.67862 3.07145,10.75007c1.53572,6.1429 6.1429,9.21435 9.21435,9.21435c1.53572,0 1.53572,0 3.07145,0c3.07145,0 7.67862,-1.53572 9.21435,-3.07145c3.07145,-1.53572 4.60717,-4.60717 4.60717,-9.21435c19.96442,-101.35781 27.64304,-178.14404 33.78594,-233.43012c4.60717,-36.85739 7.67862,-66.03615 12.2858,-90.60774c6.1429,-29.17876 10.75007,-69.1076 16.89297,-110.57216c3.07145,18.42869 6.1429,36.85739 9.21435,55.28608c18.42869,101.35781 4.60717,195.03701 -6.1429,276.4304c-4.60717,35.32166 -9.21435,67.57188 -10.75007,98.28637c0,1.53572 0,4.60717 0,6.1429c0,1.53572 1.53572,3.07145 3.07145,4.60717c1.53572,1.53572 3.07145,3.07145 4.60717,3.07145c1.53572,1.53572 3.07145,1.53572 6.1429,1.53572c1.53572,0 4.60717,0 6.1429,-1.53572c1.53572,0 3.07145,-1.53572 4.60717,-3.07145c1.53572,-1.53572 3.07145,-3.07145 3.07145,-4.60717c1.53572,-1.53572 1.53572,-3.07145 1.53572,-6.1429c1.53572,-29.17876 6.1429,-61.42898 10.75007,-96.75064c12.2858,-84.46485 24.57159,-181.21549 6.1429,-287.18047c-16.89297,-87.53629 -23.03587,-199.64418 -23.03587,-201.1799z" id="svg_1"/>
   <path stroke="null" d="m266.01621,158.01552c78.32195,-12.2858 168.92969,-24.57159 168.92969,-141.28665c0,-4.60717 -1.53572,-7.67862 -4.60717,-10.75007c-1.53572,-1.53572 -6.1429,-3.07145 -9.21435,-3.07145c-4.60717,0 -7.67862,1.53572 -10.75007,4.60717c-3.07145,3.07145 -4.60717,6.1429 -4.60717,10.75007c0,84.46485 -55.28608,96.75064 -144.3581,110.57216c-56.8218,6.1429 -121.32223,16.89297 -165.85824,59.89325c-72.17905,72.17905 -62.9647,215.00142 -56.8218,330.18076c3.07145,55.28608 6.1429,107.50071 0,138.2152c-33.78594,139.75093 -33.78594,336.32366 -33.78594,345.538c0,4.60717 1.53572,7.67862 4.60717,10.75007c1.53572,1.53572 6.1429,3.07145 9.21435,3.07145s7.67862,-1.53572 10.75007,-4.60717c3.07145,-3.07145 4.60717,-6.1429 4.60717,-10.75007c0,-1.53572 0,-202.71563 33.78594,-339.3951c9.21435,-33.78594 4.60717,-86.00057 1.53572,-147.42955c-6.1429,-109.03644 -15.35724,-244.18019 47.60746,-307.14489c36.85739,-33.78594 93.67919,-41.46456 148.96527,-49.14318z" id="svg_2"/>
   <path stroke="null" d="m861.8773,767.69813c-4.60717,-38.39311 -7.67862,-67.57188 -12.2858,-92.14347c-15.35724,-78.32195 -30.71449,-259.53743 -30.71449,-261.07316c0,-3.07145 -1.53572,-7.67862 -4.60717,-9.21435c-3.07145,-3.07145 -6.1429,-4.60717 -10.75007,-4.60717l0,0c-3.07145,0 -7.67862,1.53572 -10.75007,4.60717c-3.07145,3.07145 -4.60717,6.1429 -4.60717,10.75007c0,1.53572 -7.67862,113.64361 -23.03587,205.78708c-18.42869,105.96499 -6.1429,201.1799 6.1429,287.18047c4.60717,33.78594 9.21435,66.03615 10.75007,96.75064c0,1.53572 0,4.60717 1.53572,6.1429c1.53572,1.53572 1.53572,3.07145 3.07145,4.60717c1.53572,1.53572 3.07145,3.07145 4.60717,3.07145c1.53572,0 4.60717,1.53572 6.1429,1.53572c1.53572,0 4.60717,0 6.1429,-1.53572c1.53572,-1.53572 3.07145,-1.53572 4.60717,-3.07145c1.53572,-1.53572 3.07145,-3.07145 3.07145,-4.60717c0,-1.53572 1.53572,-4.60717 0,-6.1429c-1.53572,-30.71449 -6.1429,-62.9647 -10.75007,-98.28637c-10.75007,-82.92912 -24.57159,-176.60831 -6.1429,-276.4304c3.07145,-18.42869 6.1429,-36.85739 9.21435,-55.28608c4.60717,41.46456 10.75007,82.92912 16.89297,110.57216c4.60717,24.57159 7.67862,53.75036 12.2858,90.60774c6.1429,55.28608 13.82152,132.0723 33.78594,233.43012c0,3.07145 3.07145,6.1429 4.60717,9.21435c1.53572,-3.07145 6.1429,-3.07145 9.21435,-3.07145c1.53572,0 1.53572,0 3.07145,0c4.60717,0 7.67862,-3.07145 9.21435,-6.1429c1.53572,-3.07145 3.07145,-7.67862 3.07145,-10.75007c-19.96442,-101.35781 -27.64304,-176.60831 -33.78594,-231.89439z" id="svg_3"/>
   <path stroke="null" d="m984.73526,655.59024c-7.67862,-29.17876 -4.60717,-81.3934 0,-138.2152c7.67862,-115.17933 16.89297,-258.00171 -56.8218,-330.18076c-43.00028,-43.00028 -107.50071,-52.21463 -164.32252,-59.89325c-89.07202,-12.2858 -144.3581,-24.57159 -144.3581,-110.57216c0,-4.60717 -1.53572,-7.67862 -4.60717,-10.75007c-3.07145,-1.53572 -7.67862,-3.07145 -12.2858,-3.07145s-7.67862,1.53572 -10.75007,4.60717c-1.53572,1.53572 -3.07145,6.1429 -3.07145,9.21435c0,115.17933 90.60774,129.00085 170.46541,139.75093c55.28608,7.67862 110.57216,15.35724 147.42955,52.21463c62.9647,62.9647 53.75036,198.10845 47.60746,307.14489c-4.60717,59.89325 -7.67862,112.10789 1.53572,147.42955c33.78594,136.67948 33.78594,336.32366 33.78594,339.3951c0,4.60717 1.53572,7.67862 4.60717,10.75007c3.07145,3.07145 6.1429,4.60717 10.75007,4.60717c4.60717,0 7.67862,-1.53572 10.75007,-4.60717s4.60717,-6.1429 4.60717,-10.75007c-1.53572,-9.21435 -1.53572,-205.78708 -35.32166,-347.07373z" id="svg_4"/>
   <path stroke="null" d="m511.73212,460.55324c-4.60717,0 -7.67862,1.53572 -10.75007,4.60717c-3.07145,3.07145 -4.60717,6.1429 -4.60717,10.75007l0,445.36009c0,4.60717 1.53572,7.67862 4.60717,10.75007c3.07145,3.07145 6.1429,4.60717 10.75007,4.60717s7.67862,-1.53572 10.75007,-4.60717c3.07145,-3.07145 4.60717,-6.1429 4.60717,-10.75007l0,-445.36009c0,-4.60717 -1.53572,-7.67862 -4.60717,-10.75007c-3.07145,-3.07145 -6.1429,-4.60717 -10.75007,-4.60717z" id="svg_5"/>
   <path stroke="null" d="m425.73156,268.58768c-1.53572,0 -4.60717,0 -6.1429,0c-1.53572,0 -3.07145,1.53572 -4.60717,3.07145c-1.53572,1.53572 -3.07145,3.07145 -3.07145,4.60717s-1.53572,3.07145 -1.53572,6.1429l-7.67862,58.35753c-1.53572,18.42869 -7.67862,36.85739 -18.42869,52.21463c-9.21435,15.35724 -23.03587,29.17876 -38.39311,39.92884l-27.64304,19.96442c-3.07145,1.53572 -6.1429,6.1429 -6.1429,9.21435c0,4.60717 0,7.67862 3.07145,10.75007c1.53572,3.07145 6.1429,6.1429 9.21435,6.1429c4.60717,0 7.67862,0 10.75007,-3.07145l27.64304,-19.96442c18.42869,-13.82152 35.32166,-29.17876 46.07173,-49.14318c12.2858,-19.96442 19.96442,-41.46456 21.50014,-64.50043l7.67862,-58.35753c0,-4.60717 0,-7.67862 -3.07145,-10.75007c-1.53572,-3.07145 -4.60717,-4.60717 -9.21435,-4.60717z" id="svg_6"/>
   <path stroke="null" d="m705.23341,452.87461l-27.64304,-19.96442c-15.35724,-10.75007 -27.64304,-24.57159 -38.39311,-39.92884c-9.21435,-15.35724 -15.35724,-33.78594 -18.42869,-52.21463l-7.67862,-58.35753c0,-1.53572 -1.53572,-4.60717 -1.53572,-6.1429c-1.53572,-1.53572 -1.53572,-3.07145 -3.07145,-4.60717c-1.53572,-1.53572 -3.07145,-1.53572 -4.60717,-3.07145c-1.53572,0 -4.60717,0 -6.1429,0c-1.53572,0 -4.60717,1.53572 -6.1429,1.53572c-1.53572,1.53572 -3.07145,3.07145 -4.60717,4.60717c-1.53572,1.53572 -1.53572,3.07145 -3.07145,4.60717c0,1.53572 0,4.60717 0,6.1429l7.67862,58.35753c3.07145,23.03587 10.75007,44.53601 21.50014,64.50043c12.2858,19.96442 27.64304,36.85739 46.07173,49.14318l27.64304,19.96442c3.07145,1.53572 7.67862,3.07145 10.75007,3.07145c4.60717,0 7.67862,-3.07145 9.21435,-6.1429c1.53572,-3.07145 3.07145,-7.67862 3.07145,-10.75007c0,-6.1429 -1.53572,-9.21435 -4.60717,-10.75007l0,0z" id="svg_7"/>
  </g>
 </g>

</svg>