<svg width="1025" height="1024" xmlns="http://www.w3.org/2000/svg" version="1.1" xml:space="preserve">
 <g>
  <title>Layer 1</title>
  <g stroke="null" id="svg_14">
   <path stroke="null" id="svg_1" d="m324.48797,185.89568c8.51375,1.41896 15.60855,-4.25688 17.02751,-12.77063c7.09479,-49.66356 42.56876,-97.90815 87.97544,-120.61149c63.85314,-31.21709 143.31483,-28.37918 212.84381,8.51375c41.1498,21.28438 72.3669,49.66356 90.81336,79.46169c7.09479,12.77063 12.77063,28.37918 17.02751,49.66356c4.25688,18.44646 32.63605,14.18959 29.79813,-5.67584c-4.25688,-24.1223 -11.35167,-43.98772 -21.28438,-59.59627c-22.70334,-35.47397 -56.75835,-66.69106 -103.58399,-90.81336c-76.62377,-41.1498 -166.01817,-43.98772 -238.38507,-8.51375c-53.92043,26.96022 -96.4892,83.71857 -103.58399,143.31483c-2.83792,8.51375 2.83792,15.60855 11.35167,17.02751z"/>
   <path stroke="null" id="svg_2" d="m821.12353,554.82496c5.67584,-11.35167 8.51375,-17.02751 9.93271,-19.86542l0,0c36.89293,-78.04273 32.63605,-175.95089 -14.18959,-249.73674c-45.40668,-70.94794 -119.19254,-113.5167 -188.72151,-156.08546c-45.40668,-28.37918 -96.4892,-59.59627 -153.24755,-53.92043c-29.79813,4.25688 -56.75835,18.44646 -75.20481,43.98772c-11.35167,15.60855 -18.44646,32.63605 -21.28438,51.08252c-28.37918,15.60855 -58.17731,36.89293 -85.13753,62.43419c-61.01523,58.17731 -93.65128,141.89588 -82.29961,225.61444c4.25688,26.96022 11.35167,52.50147 22.70334,76.62377c0,0 9.93271,19.86542 9.93271,19.86542l-1.41896,9.93271c-5.67584,68.11002 -9.93271,146.15275 17.02751,217.10069c29.79813,75.20481 100.74607,154.6665 191.55943,210.0059c1.41896,1.41896 49.66356,31.21709 82.29961,31.21709l0,0c31.21709,0 79.46169,-29.79813 82.29961,-31.21709c90.81336,-56.75835 161.7613,-134.80108 191.55943,-210.0059c26.96022,-72.3669 21.28438,-151.82859 14.18959,-227.0334zm-563.32663,-42.56876c-2.83792,-8.51375 -7.09479,-17.02751 -9.93271,-26.96022c-7.09479,-26.96022 -9.93271,-55.33939 -7.09479,-83.71857c2.83792,-28.37918 9.93271,-55.33939 22.70334,-79.46169c11.35167,-24.1223 28.37918,-46.82564 48.2446,-65.2721c21.28438,-19.86542 43.98772,-36.89293 68.11002,-52.50147c8.51375,51.08252 43.98772,79.46169 78.04273,103.58399c15.60855,11.35167 31.21709,21.28438 45.40668,31.21709c-36.89293,25.54126 -76.62377,46.82564 -114.93566,63.85314c-35.47397,17.02751 -72.3669,34.05501 -103.58399,61.01523c-12.77063,12.77063 -21.28438,31.21709 -26.96022,48.2446zm520.75786,-48.2446c-28.37918,-25.54126 -63.85314,-42.56876 -93.65128,-56.75835c-7.09479,-4.25688 -17.02751,0 -19.86542,7.09479c-4.25688,7.09479 0,17.02751 7.09479,19.86542c28.37918,14.18959 61.01523,29.79813 87.97544,52.50147c12.77063,11.35167 18.44646,28.37918 25.54126,46.82564c2.83792,7.09479 4.25688,12.77063 7.09479,19.86542c0,0 1.41896,14.18959 1.41896,14.18959c5.67584,63.85314 9.93271,139.05796 -14.18959,202.9111c-34.05501,82.29961 -114.93566,154.6665 -181.62672,195.81631c-18.44646,11.35167 -49.66356,26.96022 -66.69106,26.96022c0,0 0,0 0,0c0,0 0,0 0,0c-15.60855,0 -48.2446,-15.60855 -66.69106,-26.96022c-65.2721,-41.1498 -146.15275,-113.5167 -178.7888,-195.81631c-26.96022,-68.11002 -19.86542,-143.31483 -12.77063,-214.26277c2.83792,-7.09479 5.67584,-14.18959 8.51375,-21.28438c7.09479,-18.44646 12.77063,-36.89293 25.54126,-46.82564c25.54126,-22.70334 58.17731,-38.31189 90.81336,-53.92043c24.1223,-11.35167 46.82564,-22.70334 70.94794,-35.47397c21.28438,-12.77063 43.98772,-25.54126 63.85314,-41.1498c26.96022,17.02751 53.92043,32.63605 79.46169,46.82564c7.09479,4.25688 17.02751,1.41896 19.86542,-5.67584c4.25688,-7.09479 1.41896,-17.02751 -5.67584,-19.86542c-46.82564,-25.54126 -93.65128,-55.33939 -148.99067,-93.65128c-38.31189,-26.96022 -59.59627,-48.2446 -66.69106,-83.71857c-5.67584,-34.05501 9.93271,-65.2721 38.31189,-82.29961c9.93271,-5.67584 21.28438,-9.93271 32.63605,-11.35167c43.98772,-7.09479 89.3944,21.28438 130.54421,46.82564c65.2721,41.1498 137.639,79.46169 178.7888,146.15275c38.31189,62.43419 45.40668,144.73379 15.60855,211.42485c-5.67584,-17.02751 -12.77063,-34.05501 -28.37918,-48.2446z"/>
   <path stroke="null" id="svg_3" d="m533.07491,749.22231c12.77063,0 25.54126,-5.67584 34.05501,-14.18959c5.67584,-5.67584 5.67584,-15.60855 0,-21.28438c-5.67584,-5.67584 -15.60855,-5.67584 -21.28438,0c-2.83792,2.83792 -8.51375,5.67584 -12.77063,5.67584s-9.93271,-1.41896 -12.77063,-5.67584c-5.67584,-5.67584 -15.60855,-5.67584 -21.28438,0c-5.67584,5.67584 -5.67584,15.60855 0,21.28438c8.51375,9.93271 19.86542,14.18959 34.05501,14.18959z"/>
   <path stroke="null" id="svg_4" d="m447.93738,642.8004c2.83792,2.83792 7.09479,4.25688 9.93271,4.25688c4.25688,0 7.09479,-1.41896 9.93271,-4.25688c5.67584,-5.67584 5.67584,-15.60855 0,-21.28438c-12.77063,-12.77063 -29.79813,-19.86542 -48.2446,-19.86542c-18.44646,0 -35.47397,7.09479 -48.2446,19.86542c-5.67584,5.67584 -5.67584,15.60855 0,21.28438c5.67584,5.67584 15.60855,5.67584 21.28438,0c7.09479,-7.09479 17.02751,-11.35167 26.96022,-11.35167c12.77063,0 21.28438,4.25688 28.37918,11.35167z"/>
   <path stroke="null" id="svg_5" d="m384.08424,556.24391c1.41896,0 2.83792,0 4.25688,-1.41896c28.37918,-8.51375 58.17731,-9.93271 80.88065,0c7.09479,2.83792 17.02751,-1.41896 19.86542,-8.51375c2.83792,-7.09479 -1.41896,-17.02751 -8.51375,-19.86542c-29.79813,-11.35167 -66.69106,-11.35167 -100.74607,0c-8.51375,2.83792 -12.77063,11.35167 -9.93271,18.44646c2.83792,7.09479 8.51375,11.35167 14.18959,11.35167z"/>
   <path stroke="null" id="svg_6" d="m642.33473,601.65059c-18.44646,0 -35.47397,7.09479 -48.2446,19.86542c-5.67584,5.67584 -5.67584,15.60855 0,21.28438c5.67584,5.67584 15.60855,5.67584 21.28438,0c7.09479,-7.09479 17.02751,-11.35167 26.96022,-11.35167c9.93271,0 19.86542,4.25688 26.96022,11.35167c2.83792,2.83792 7.09479,4.25688 9.93271,4.25688c4.25688,0 7.09479,-1.41896 9.93271,-4.25688c5.67584,-5.67584 5.67584,-15.60855 0,-21.28438c-11.35167,-12.77063 -28.37918,-19.86542 -46.82564,-19.86542z"/>
   <path stroke="null" id="svg_7" d="m584.15742,526.44578c-7.09479,2.83792 -11.35167,11.35167 -8.51375,19.86542c2.83792,7.09479 11.35167,11.35167 19.86542,8.51375c22.70334,-8.51375 52.50147,-8.51375 80.88065,0c1.41896,0 2.83792,1.41896 4.25688,1.41896c5.67584,0 12.77063,-4.25688 14.18959,-9.93271c2.83792,-8.51375 -1.41896,-15.60855 -9.93271,-18.44646c-35.47397,-12.77063 -72.3669,-12.77063 -100.74607,-1.41896z"/>
   <path stroke="null" id="svg_8" d="m643.75369,757.73606c-7.09479,-2.83792 -15.60855,-2.83792 -22.70334,2.83792c-35.47397,26.96022 -87.97544,25.54126 -87.97544,25.54126c0,0 0,0 0,0c0,0 -52.50147,0 -87.97544,-25.54126c-7.09479,-4.25688 -15.60855,-5.67584 -22.70334,-2.83792c-7.09479,2.83792 -12.77063,9.93271 -12.77063,18.44646c-1.41896,22.70334 1.41896,79.46169 61.01523,112.09774c19.86542,9.93271 41.1498,15.60855 62.43419,15.60855c21.28438,0 42.56876,-5.67584 62.43419,-15.60855c59.59627,-31.21709 62.43419,-87.97544 61.01523,-112.09774c-1.41896,-8.51375 -5.67584,-15.60855 -12.77063,-18.44646zm-62.43419,103.58399c-29.79813,17.02751 -66.69106,17.02751 -97.90815,0c-34.05501,-18.44646 -42.56876,-46.82564 -45.40668,-69.52898c41.1498,24.1223 89.3944,24.1223 93.65128,24.1223c4.25688,0 52.50147,0 93.65128,-24.1223c-1.41896,22.70334 -9.93271,51.08252 -43.98772,69.52898z"/>
   <path stroke="null" id="svg_9" d="m239.35044,878.34755c-45.40668,-21.28438 -56.75835,-69.52898 -58.17731,-69.52898c-1.41896,-7.09479 -7.09479,-11.35167 -14.18959,-11.35167c-7.09479,0 -12.77063,4.25688 -14.18959,11.35167c0,0 -11.35167,48.2446 -58.17731,69.52898c-4.25688,1.41896 -7.09479,7.09479 -7.09479,12.77063c0,5.67584 2.83792,11.35167 8.51375,12.77063c45.40668,22.70334 56.75835,69.52898 58.17731,69.52898c1.41896,7.09479 7.09479,11.35167 14.18959,11.35167c7.09479,0 12.77063,-4.25688 14.18959,-11.35167c0,0 11.35167,-48.2446 58.17731,-69.52898c5.67584,-2.83792 8.51375,-7.09479 8.51375,-12.77063c-1.41896,-5.67584 -4.25688,-11.35167 -9.93271,-12.77063zm-70.94794,55.33939c-8.51375,-14.18959 -19.86542,-29.79813 -36.89293,-42.56876c17.02751,-12.77063 29.79813,-28.37918 36.89293,-42.56876c8.51375,14.18959 19.86542,29.79813 36.89293,42.56876c-17.02751,12.77063 -29.79813,28.37918 -36.89293,42.56876z"/>
   <path stroke="null" id="svg_10" d="m111.64416,779.02044c7.09479,0 12.77063,-4.25688 14.18959,-11.35167c0,0 4.25688,-14.18959 12.77063,-32.63605c4.25688,-7.09479 1.41896,-17.02751 -5.67584,-19.86542c-7.09479,-4.25688 -17.02751,-1.41896 -19.86542,5.67584c0,1.41896 -1.41896,1.41896 -1.41896,2.83792c-11.35167,-21.28438 -28.37918,-45.40668 -56.75835,-66.69106c28.37918,-19.86542 46.82564,-45.40668 56.75835,-65.2721c11.35167,19.86542 28.37918,45.40668 56.75835,66.69106c-2.83792,1.41896 -5.67584,4.25688 -7.09479,5.67584c-7.09479,5.67584 -7.09479,14.18959 -2.83792,21.28438c5.67584,7.09479 14.18959,7.09479 21.28438,2.83792c7.09479,-5.67584 15.60855,-11.35167 25.54126,-15.60855c5.67584,-2.83792 8.51375,-7.09479 8.51375,-12.77063c0,-5.67584 -2.83792,-11.35167 -8.51375,-12.77063c-62.43419,-29.79813 -78.04273,-95.07024 -79.46169,-96.4892c-1.41896,-7.09479 -7.09479,-11.35167 -14.18959,-11.35167c0,0 0,0 0,0c-7.09479,0 -12.77063,4.25688 -14.18959,11.35167c0,0 -17.02751,65.2721 -79.46169,96.4892c-5.67584,2.83792 -8.51375,7.09479 -8.51375,12.77063c0,5.67584 2.83792,11.35167 8.51375,12.77063c62.43419,29.79813 78.04273,95.07024 79.46169,96.4892c1.41896,4.25688 7.09479,9.93271 14.18959,9.93271z"/>
   <path stroke="null" id="svg_11" d="m1007.00713,641.38144c-45.40668,-21.28438 -56.75835,-69.52898 -58.17731,-69.52898c-1.41896,-7.09479 -7.09479,-11.35167 -14.18959,-11.35167c-7.09479,0 -12.77063,4.25688 -14.18959,11.35167c0,0 -11.35167,48.2446 -58.17731,69.52898c-5.67584,2.83792 -8.51375,7.09479 -8.51375,12.77063c0,5.67584 2.83792,11.35167 8.51375,12.77063c45.40668,22.70334 56.75835,69.52898 58.17731,69.52898c1.41896,7.09479 7.09479,11.35167 14.18959,11.35167c7.09479,0 12.77063,-4.25688 14.18959,-11.35167c0,0 11.35167,-48.2446 58.17731,-69.52898c5.67584,-2.83792 8.51375,-7.09479 8.51375,-12.77063c0,-5.67584 -2.83792,-9.93271 -8.51375,-12.77063zm-70.94794,55.33939c-8.51375,-14.18959 -19.86542,-29.79813 -36.89293,-42.56876c17.02751,-12.77063 29.79813,-28.37918 36.89293,-42.56876c8.51375,14.18959 19.86542,29.79813 36.89293,42.56876c-17.02751,14.18959 -29.79813,29.79813 -36.89293,42.56876z"/>
   <path stroke="null" id="svg_12" d="m902.00418,811.65649l-17.02751,0l0,-17.02751c0,-8.51375 -7.09479,-15.60855 -15.60855,-15.60855c-8.51375,0 -15.60855,7.09479 -15.60855,15.60855l0,17.02751l-17.02751,0c-8.51375,0 -15.60855,7.09479 -15.60855,15.60855s7.09479,15.60855 15.60855,15.60855l17.02751,0l0,17.02751c0,8.51375 7.09479,15.60855 15.60855,15.60855c8.51375,0 15.60855,-7.09479 15.60855,-15.60855l0,-17.02751l17.02751,0c8.51375,0 15.60855,-7.09479 15.60855,-15.60855c-1.41896,-8.51375 -8.51375,-15.60855 -15.60855,-15.60855z"/>
   <path stroke="null" id="svg_13" d="m91.77873,446.98409l17.02751,0l0,17.02751c0,8.51375 7.09479,15.60855 15.60855,15.60855c8.51375,0 15.60855,-7.09479 15.60855,-15.60855l0,-17.02751l17.02751,0c8.51375,0 15.60855,-7.09479 15.60855,-15.60855c0,-8.51375 -7.09479,-15.60855 -15.60855,-15.60855l-18.44646,0l0,-17.02751c0,-8.51375 -7.09479,-15.60855 -15.60855,-15.60855c-8.51375,0 -15.60855,7.09479 -15.60855,15.60855l0,17.02751l-15.60855,0c-8.51375,0 -15.60855,7.09479 -15.60855,15.60855c0,8.51375 7.09479,15.60855 15.60855,15.60855z"/>
  </g>
 </g>

</svg>