<svg width="1025" height="1024" xmlns="http://www.w3.org/2000/svg" version="1.1" xml:space="preserve">
 <g>
  <title>Layer 1</title>
  <g stroke="null" id="svg_6">
   <path stroke="null" id="svg_1" d="m979.62426,380.90276c-26.92808,-26.92808 -63.77704,-43.93529 -102.04326,-43.93529c-26.92808,0 -58.10797,2.83454 -90.70512,11.33814c-14.17268,2.83454 -29.76262,5.66907 -45.35256,5.66907l0,-60.94251c0,-38.26622 -28.34535,-69.44611 -62.35977,-69.44611c-12.75541,0 -24.09355,4.2518 -34.01442,11.33814c-5.66907,-31.17989 -31.17989,-53.85617 -62.35977,-53.85617c-12.75541,0 -24.09355,4.2518 -32.59715,9.92087l0,-28.34535c0,-38.26622 -28.34535,-69.44611 -62.35977,-69.44611c-34.01442,0 -62.35977,29.76262 -62.35977,68.02884c-9.92087,-7.08634 -21.25901,-9.92087 -32.59715,-9.92087c-36.84896,-1.41727 -65.19431,29.76262 -65.19431,68.02884l0,35.43169c-38.26622,4.2518 -70.86338,14.17268 -97.79146,28.34535c-38.26622,21.25901 -62.35977,51.02163 -69.44611,90.70512c-1.41727,8.50361 4.2518,15.58994 11.33814,17.00721c1.41727,0 1.41727,0 2.83454,0c7.08634,0 12.75541,-5.66907 14.17268,-12.75541c9.92087,-55.27344 63.77704,-80.78425 114.79867,-90.70512c-14.17268,21.25901 -28.34535,45.35256 -39.68349,68.02884c-21.25901,42.51803 -21.25901,93.53966 0,136.05769l26.92808,52.4389c-32.59715,9.92087 -72.28065,22.67628 -111.96414,58.10797c-73.69791,66.61158 -72.28065,160.15124 -63.77704,209.7556c1.41727,4.2518 0,8.50361 -2.83454,12.75541c-2.83454,2.83454 -7.08634,5.66907 -11.33814,5.66907c-7.08634,0 -14.17268,-5.66907 -14.17268,-14.17268c-5.66907,-58.10797 -26.92808,-110.54687 -42.51803,-145.97856c-24.09355,-49.60436 -9.92087,-109.1296 34.01442,-141.72676c4.2518,-2.83454 8.50361,-5.66907 12.75541,-8.50361c29.76262,-21.25901 62.35977,-43.93529 82.20152,-82.20152c4.2518,-7.08634 1.41727,-17.00721 -5.66907,-19.84175c-7.08634,-4.2518 -17.00721,-1.41727 -19.84175,5.66907c-18.42448,32.59715 -46.76983,52.4389 -75.11518,73.69791c-4.2518,2.83454 -8.50361,5.66907 -12.75541,8.50361c-56.6907,41.10076 -73.69791,116.21594 -43.93529,178.57571c15.58994,31.17989 35.43169,80.78425 39.68349,134.64042c2.83454,24.09355 22.67628,41.10076 45.35256,41.10076c12.75541,0 25.51082,-5.66907 34.01442,-15.58994c8.50361,-9.92087 12.75541,-22.67628 9.92087,-36.84896c-7.08634,-43.93529 -9.92087,-126.13681 53.85617,-182.82752c36.84896,-32.59715 73.69791,-43.93529 106.29507,-52.4389l19.84175,39.68349c14.17268,26.92808 21.25901,56.6907 21.25901,87.87059l0,38.26622l-19.84175,0c-22.67628,0 -41.10076,18.42448 -41.10076,41.10076l0,107.71234c0,22.67628 18.42448,41.10076 41.10076,41.10076l35.43169,0c8.50361,0 15.58994,-7.08634 15.58994,-15.58994s-7.08634,-15.58994 -15.58994,-15.58994l-35.43169,0c-7.08634,0 -11.33814,-5.66907 -11.33814,-11.33814l0,-104.8778c0,-7.08634 5.66907,-11.33814 11.33814,-11.33814l389.74858,0c7.08634,0 11.33814,5.66907 11.33814,11.33814l0,107.71234c0,7.08634 -5.66907,11.33814 -11.33814,11.33814l-297.62619,0c-8.50361,0 -15.58994,7.08634 -15.58994,15.58994s7.08634,15.58994 15.58994,15.58994l296.20892,0c22.67628,0 41.10076,-18.42448 41.10076,-41.10076l0,-109.1296c0,-22.67628 -18.42448,-41.10076 -41.10076,-41.10076l-9.92087,0l15.58994,-104.8778c1.41727,-8.50361 -4.2518,-15.58994 -12.75541,-17.00721c-8.50361,-1.41727 -15.58994,4.2518 -17.00721,12.75541l-17.00721,107.71234l-297.62619,0l0,-38.26622c0,-35.43169 -8.50361,-69.44611 -24.09355,-100.626l-59.52524,-119.05048c-17.00721,-34.01442 -17.00721,-75.11518 0,-110.54687c9.92087,-21.25901 22.67628,-41.10076 35.43169,-62.35977l0,59.52524c0,8.50361 7.08634,15.58994 15.58994,15.58994c8.50361,0 15.58994,-7.08634 15.58994,-15.58994l0,-147.39583c0,-21.25901 14.17268,-39.68349 32.59715,-39.68349c18.42448,0 32.59715,18.42448 32.59715,39.68349l0,148.81309c0,8.50361 7.08634,15.58994 15.58994,15.58994s15.58994,-7.08634 15.58994,-15.58994l0,-205.5038c0,-21.25901 14.17268,-39.68349 32.59715,-39.68349c18.42448,0 32.59715,18.42448 32.59715,39.68349l0,205.5038c0,8.50361 7.08634,15.58994 15.58994,15.58994s15.58994,-7.08634 15.58994,-15.58994l0,-119.05048c0,-21.25901 14.17268,-39.68349 32.59715,-39.68349c18.42448,0 32.59715,18.42448 32.59715,39.68349l0,119.05048c0,8.50361 7.08634,15.58994 15.58994,15.58994s15.58994,-7.08634 15.58994,-15.58994l0,-75.11518c0,-21.25901 14.17268,-39.68349 32.59715,-39.68349c18.42448,0 32.59715,18.42448 32.59715,39.68349l0,128.97135c0,72.28065 -9.92087,121.88501 -12.75541,145.97856c-1.41727,8.50361 4.2518,15.58994 12.75541,17.00721c8.50361,1.41727 15.58994,-4.2518 17.00721,-12.75541l5.66907,-38.26622c0,0 0,-1.41727 0,-1.41727c26.92808,5.66907 60.94251,19.84175 90.70512,56.6907c24.09355,29.76262 56.6907,48.1871 85.03605,63.77704c26.92808,14.17268 52.4389,28.34535 68.02884,51.02163c5.66907,8.50361 17.00721,12.75541 26.92808,9.92087c9.92087,-2.83454 17.00721,-12.75541 17.00721,-24.09355l0,-205.5038c-1.41727,-38.26622 -15.58994,-75.11518 -43.93529,-103.46053zm12.75541,294.79165c-18.42448,-21.25901 -43.93529,-35.43169 -68.02884,-48.1871c-26.92808,-14.17268 -55.27344,-29.76262 -75.11518,-56.6907c-36.84896,-45.35256 -77.94972,-62.35977 -110.54687,-68.02884c2.83454,-26.92808 4.2518,-53.85617 4.2518,-80.78425l0,-38.26622c18.42448,-1.41727 35.43169,-2.83454 52.4389,-7.08634c29.76262,-7.08634 58.10797,-9.92087 83.61879,-9.92087c63.77704,1.41727 114.79867,53.85617 114.79867,117.63321l0,191.33112l-1.41727,0z"/>
   <path stroke="null" id="svg_2" d="m917.26449,501.37051c-8.50361,0 -14.17268,7.08634 -14.17268,15.58994c0,8.50361 7.08634,14.17268 15.58994,14.17268c1.41727,0 22.67628,-1.41727 28.34535,29.76262c1.41727,7.08634 7.08634,11.33814 14.17268,11.33814c1.41727,0 1.41727,0 2.83454,0c8.50361,-1.41727 12.75541,-9.92087 11.33814,-17.00721c-8.50361,-43.93529 -41.10076,-53.85617 -58.10797,-53.85617z"/>
   <path stroke="null" id="svg_3" d="m110.83924,596.32743c-4.2518,-9.92087 -18.42448,-11.33814 -25.51082,-2.83454c-8.50361,9.92087 -15.58994,25.51082 -12.75541,46.76983c1.41727,7.08634 7.08634,12.75541 14.17268,12.75541c1.41727,0 2.83454,0 4.2518,-1.41727c7.08634,-2.83454 11.33814,-9.92087 9.92087,-17.00721c0,-9.92087 4.2518,-17.00721 8.50361,-21.25901c2.83454,-5.66907 4.2518,-11.33814 1.41727,-17.00721z"/>
   <path stroke="null" id="svg_4" d="m170.36448,514.12592c-8.50361,7.08634 -7.08634,19.84175 2.83454,24.09355c7.08634,4.2518 18.42448,7.08634 31.17989,7.08634c4.2518,0 9.92087,0 15.58994,-1.41727c7.08634,-1.41727 12.75541,-8.50361 12.75541,-15.58994c-1.41727,-8.50361 -8.50361,-15.58994 -18.42448,-14.17268c-12.75541,2.83454 -22.67628,0 -28.34535,-2.83454c-4.2518,-1.41727 -9.92087,-1.41727 -15.58994,2.83454l0,0z"/>
   <path stroke="null" id="svg_5" d="m818.05576,427.67259c4.2518,-7.08634 1.41727,-15.58994 -5.66907,-19.84175c-7.08634,-4.2518 -17.00721,-1.41727 -19.84175,5.66907c-1.41727,1.41727 -22.67628,41.10076 7.08634,76.53245c2.83454,4.2518 7.08634,5.66907 11.33814,5.66907c2.83454,0 7.08634,-1.41727 9.92087,-2.83454c7.08634,-5.66907 7.08634,-14.17268 2.83454,-21.25901c-17.00721,-19.84175 -5.66907,-42.51803 -5.66907,-43.93529z"/>
  </g>
 </g>

</svg>