<svg width="1025" height="1024" xmlns="http://www.w3.org/2000/svg" xml:space="preserve" version="1.1">
 <title>Layer 1</title>

 <g>
  <title>Layer 1</title>
  <g stroke="null" id="svg_6">
   <path stroke="null" id="svg_1" d="m445.88552,571.52784c4.25199,0 8.50397,-1.41733 11.33863,-4.25199c85.03974,-82.20508 177.16613,-172.91414 223.93799,-219.686c8.50397,-8.50397 18.42528,-15.59062 31.18124,-19.84261c11.33863,-4.25199 24.09459,-7.08665 35.43323,-7.08665l0,0l0,0l0,0l0,0l0,0l0,0c1.41733,0 1.41733,0 2.83466,0c9.9213,1.41733 19.84261,4.25199 28.34658,7.08665c5.66932,1.41733 9.9213,4.25199 14.17329,5.66932c1.41733,1.41733 4.25199,1.41733 5.66932,2.83466c0,0 1.41733,0 1.41733,1.41733l0,0l0,0l18.42528,12.75596c1.41733,0 1.41733,1.41733 2.83466,1.41733l174.33147,110.55166c1.41733,1.41733 4.25199,1.41733 5.66932,2.83466c1.41733,0 4.25199,0 5.66932,0s4.25199,-1.41733 5.66932,-2.83466s2.83466,-2.83466 4.25199,-4.25199c1.41733,-1.41733 1.41733,-4.25199 2.83466,-5.66932c0,-1.41733 0,-4.25199 0,-5.66932s-1.41733,-4.25199 -2.83466,-5.66932s-2.83466,-2.83466 -4.25199,-4.25199l-171.49681,-109.13434l-29.76391,-75.11844c-1.41733,-1.41733 -1.41733,-4.25199 -2.83466,-5.66932c0,-4.25199 -2.83466,-5.66932 -4.25199,-5.66932c-1.41733,-1.41733 -4.25199,-1.41733 -5.66932,-1.41733c-1.41733,0 -4.25199,0 -5.66932,1.41733c-1.41733,1.41733 -4.25199,1.41733 -5.66932,2.83466c-1.41733,1.41733 -2.83466,2.83466 -2.83466,5.66932s-1.41733,4.25199 -1.41733,5.66932c0,1.41733 0,4.25199 1.41733,5.66932l15.59062,38.26788c-5.66932,-1.41733 -12.75596,-4.25199 -19.84261,-5.66932c-5.66932,-1.41733 -12.75596,-2.83466 -17.00795,-4.25199s-9.9213,-1.41733 -14.17329,-1.41733c-34.0159,0 -65.19714,12.75596 -89.29173,36.85055c-46.77186,46.77186 -138.89824,137.48092 -223.93799,219.686c-2.83466,2.83466 -4.25199,7.08665 -4.25199,11.33863s1.41733,8.50397 4.25199,11.33863c1.41733,1.41733 2.83466,2.83466 5.66932,4.25199c0,-1.41733 1.41733,0 4.25199,0z"/>
   <path stroke="null" id="svg_2" d="m399.11366,615.46504c2.83466,0 5.66932,-1.41733 8.50397,-2.83466c2.83466,-1.41733 4.25199,-4.25199 5.66932,-7.08665s1.41733,-5.66932 1.41733,-8.50397c0,-2.83466 -1.41733,-5.66932 -4.25199,-8.50397c-1.41733,-1.41733 -4.25199,-2.83466 -7.08665,-4.25199s-5.66932,-1.41733 -7.08665,0c-2.83466,0 -5.66932,1.41733 -7.08665,2.83466c-1.41733,1.41733 -4.25199,4.25199 -4.25199,5.66932c-1.41733,2.83466 -1.41733,5.66932 -1.41733,8.50397s1.41733,5.66932 2.83466,7.08665c1.41733,2.83466 2.83466,4.25199 5.66932,5.66932c2.83466,0 4.25199,1.41733 7.08665,1.41733z"/>
   <path stroke="null" id="svg_3" d="m1017.06912,720.34738c-49.60652,-52.44117 -93.54372,-99.21303 -128.97694,-140.31557c-34.0159,-38.26788 -77.9531,-92.12639 -99.21303,-127.55961c-4.25199,-7.08665 -9.9213,-11.33863 -15.59062,-15.59062c-9.9213,-5.66932 -21.25994,-7.08665 -32.59857,-4.25199s-19.84261,9.9213 -26.92925,18.42528c-9.9213,15.59062 -29.76391,46.77186 -49.60652,75.11844c-11.33863,15.59062 -21.25994,29.76391 -28.34658,41.10254c-7.08665,9.9213 -14.17329,18.42528 -22.67726,26.92925c-12.75596,12.75596 -34.0159,26.92925 -60.94515,42.51987c-22.67726,12.75596 -48.18919,24.09459 -72.28378,36.85055c-17.00795,8.50397 -32.59857,15.59062 -46.77186,22.67726c-21.25994,11.33863 -36.85055,19.84261 -49.60652,28.34658c-14.17329,9.9213 -24.09459,21.25994 -29.76391,35.43323c-4.25199,12.75596 -7.08665,24.09459 -9.9213,34.0159s-5.66932,18.42528 -8.50397,25.51192c-1.41733,5.66932 -5.66932,11.33863 -8.50397,17.00795c-4.25199,4.25199 -8.50397,8.50397 -12.75596,9.9213c-4.25199,1.41733 -9.9213,2.83466 -14.17329,2.83466l0,0c-15.59062,0 -34.0159,-5.66932 -42.51987,-8.50397c-21.25994,-7.08665 -43.9372,-9.9213 -66.61446,-5.66932c-1.41733,0 -2.83466,0 -4.25199,1.41733c-17.00795,7.08665 -36.85055,11.33863 -55.27583,11.33863c-19.84261,0 -38.26788,-4.25199 -55.27583,-11.33863l-19.84261,-8.50397c-7.08665,-2.83466 -12.75596,-8.50397 -17.00795,-17.00795l94.96104,-14.17329c1.41733,0 2.83466,0 4.25199,-1.41733l0,0c2.83466,-1.41733 32.59857,-12.75596 66.61446,-28.34658c21.25994,-9.9213 39.68521,-18.42528 53.8585,-26.92925c19.84261,-11.33863 34.0159,-19.84261 42.51987,-28.34658c17.00795,-14.17329 38.26788,-34.0159 65.19714,-59.52782c1.41733,-1.41733 2.83466,-2.83466 4.25199,-5.66932c1.41733,-1.41733 1.41733,-4.25199 1.41733,-5.66932c0,-1.41733 0,-4.25199 -1.41733,-5.66932c-1.41733,-1.41733 -1.41733,-4.25199 -2.83466,-5.66932c-1.41733,-1.41733 -2.83466,-2.83466 -5.66932,-4.25199c-1.41733,-1.41733 -4.25199,-1.41733 -5.66932,-1.41733s-4.25199,0 -5.66932,1.41733s-4.25199,1.41733 -5.66932,2.83466c-26.92925,24.09459 -48.18919,43.9372 -65.19714,58.11049c-7.08665,5.66932 -21.25994,14.17329 -36.85055,24.09459c-25.51192,14.17329 -55.27583,26.92925 -76.53577,36.85055c-12.75596,5.66932 -22.67726,9.9213 -28.34658,12.75596c-8.50397,4.25199 -11.33863,5.66932 -14.17329,5.66932l-109.13434,15.59062c-4.25199,0 -7.08665,2.83466 -9.9213,5.66932s-4.25199,7.08665 -4.25199,11.33863c0,12.75596 4.25199,25.51192 9.9213,35.43323c7.08665,9.9213 17.00795,18.42528 28.34658,24.09459l21.25994,7.08665c21.25994,8.50397 43.9372,14.17329 68.03179,14.17329c22.67726,0 46.77186,-4.25199 68.03179,-12.75596c17.00795,-2.83466 34.0159,-1.41733 49.60652,4.25199c12.75596,4.25199 32.59857,9.9213 52.44117,9.9213c9.9213,0 19.84261,-1.41733 29.76391,-5.66932c9.9213,-4.25199 17.00795,-11.33863 24.09459,-19.84261c9.9213,-12.75596 14.17329,-26.92925 18.42528,-39.68521c1.41733,-5.66932 2.83466,-9.9213 4.25199,-15.59062c2.83466,-9.9213 5.66932,-19.84261 8.50397,-31.18124c0,-2.83466 2.83466,-7.08665 8.50397,-11.33863c8.50397,-8.50397 24.09459,-18.42528 45.35453,-29.76391c17.00795,-8.50397 35.43323,-17.00795 55.27583,-26.92925c15.59062,-7.08665 32.59857,-15.59062 49.60652,-24.09459c32.59857,-17.00795 69.44912,-36.85055 93.54372,-60.94515c8.50397,-9.9213 17.00795,-19.84261 25.51192,-31.18124c26.92925,-36.85055 62.36248,-89.29173 80.78775,-119.05564c1.41733,-1.41733 2.83466,-2.83466 4.25199,-4.25199c1.41733,-1.41733 4.25199,-1.41733 5.66932,-1.41733c1.41733,0 4.25199,0 5.66932,1.41733c1.41733,1.41733 2.83466,2.83466 4.25199,4.25199c18.42528,31.18124 52.44117,73.70111 103.46502,131.8116c36.85055,41.10254 80.78775,89.29173 130.39427,141.7329c1.41733,1.41733 2.83466,2.83466 5.66932,4.25199c1.41733,1.41733 4.25199,1.41733 5.66932,1.41733s4.25199,0 5.66932,-1.41733s4.25199,-1.41733 5.66932,-2.83466c1.41733,-1.41733 2.83466,-2.83466 4.25199,-5.66932c1.41733,-1.41733 1.41733,-4.25199 1.41733,-5.66932c0,-1.41733 0,-4.25199 -1.41733,-5.66932c-2.83466,1.41733 -4.25199,-1.41733 -5.66932,-2.83466l0,0z"/>
   <path stroke="null" id="svg_4" d="m654.23289,288.06203c4.25199,0 8.50397,-1.41733 11.33863,-4.25199s4.25199,-7.08665 4.25199,-11.33863l0,-32.59857c0,-59.52782 38.26788,-96.37837 100.63036,-96.37837c14.17329,0 28.34658,2.83466 42.51987,9.9213c12.75596,7.08665 24.09459,15.59062 32.59857,26.92925l147.40222,195.59141c2.83466,2.83466 5.66932,5.66932 9.9213,5.66932c4.25199,0 8.50397,0 11.33863,-2.83466c2.83466,-2.83466 5.66932,-5.66932 5.66932,-9.9213c0,-4.25199 0,-8.50397 -2.83466,-11.33863l-144.56756,-195.59141c-11.33863,-15.59062 -26.92925,-28.34658 -43.9372,-36.85055c-17.00795,-8.50397 -36.85055,-12.75596 -56.69316,-12.75596c-79.37043,0 -133.22893,51.02385 -133.22893,127.55961l0,32.59857c0,4.25199 1.41733,8.50397 4.25199,11.33863c2.83466,1.41733 7.08665,4.25199 11.33863,4.25199z"/>
   <path stroke="null" id="svg_5" d="m781.7925,543.18126c0,-4.25199 -1.41733,-8.50397 -4.25199,-11.33863c-2.83466,-2.83466 -7.08665,-4.25199 -11.33863,-4.25199s-8.50397,1.41733 -11.33863,4.25199c-2.83466,2.83466 -4.25199,7.08665 -4.25199,11.33863l0,79.37043c0,1.41733 0,4.25199 1.41733,5.66932c1.41733,1.41733 1.41733,4.25199 2.83466,5.66932l2.83466,2.83466c32.59857,32.59857 49.60652,58.11049 49.60652,75.11844c0,2.83466 0,4.25199 -1.41733,5.66932c-1.41733,1.41733 -1.41733,4.25199 -4.25199,5.66932c-8.50397,8.50397 -17.00795,15.59062 -26.92925,21.25994c-11.33863,7.08665 -22.67726,15.59062 -32.59857,25.51192c-12.75596,12.75596 -22.67726,28.34658 -34.0159,45.35453c-11.33863,15.59062 -21.25994,32.59857 -34.0159,45.35453c-24.09459,24.09459 -53.8585,21.25994 -73.70111,14.17329l31.18124,-31.18124c1.41733,-1.41733 2.83466,-4.25199 4.25199,-5.66932l48.18919,-128.97694c0,-1.41733 1.41733,-4.25199 1.41733,-5.66932l0,-46.77186c0,-4.25199 -1.41733,-8.50397 -4.25199,-11.33863s-7.08665,-4.25199 -11.33863,-4.25199s-8.50397,1.41733 -11.33863,4.25199s-4.25199,7.08665 -4.25199,11.33863l0,43.9372l-45.35453,121.8903l-45.35453,45.35453c-1.41733,1.41733 -2.83466,4.25199 -4.25199,5.66932c-1.41733,2.83466 -1.41733,4.25199 -1.41733,7.08665s1.41733,4.25199 2.83466,7.08665c1.41733,1.41733 2.83466,4.25199 5.66932,5.66932c18.42528,11.33863 41.10254,18.42528 63.77981,18.42528c12.75596,0 25.51192,-2.83466 36.85055,-7.08665s22.67726,-11.33863 31.18124,-21.25994c14.17329,-14.17329 25.51192,-32.59857 36.85055,-49.60652c9.9213,-15.59062 19.84261,-31.18124 29.76391,-41.10254c8.50397,-8.50397 17.00795,-15.59062 26.92925,-21.25994c11.33863,-7.08665 22.67726,-15.59062 32.59857,-25.51192c4.25199,-4.25199 8.50397,-9.9213 9.9213,-15.59062c2.83466,-5.66932 4.25199,-12.75596 4.25199,-18.42528c0,-34.0159 -32.59857,-69.44912 -56.69316,-94.96104l0,-73.70111z"/>
  </g>
 </g>
</svg>