<?xml version="1.0" encoding="utf-8"?>
<!-- Generator: Adobe Illustrator 17.0.0, SVG Export Plug-In . SVG Version: 6.00 Build 0)  -->
<!DOCTYPE svg PUBLIC "-//W3C//DTD SVG 1.1//EN" "http://www.w3.org/Graphics/SVG/1.1/DTD/svg11.dtd">
<svg version="1.1" id="Layer_1" xmlns="http://www.w3.org/2000/svg" xmlns:xlink="http://www.w3.org/1999/xlink" x="0px" y="0px"
	 width="1025px" height="1024px" viewBox="0 0 1025 1024" enable-background="new 0 0 1025 1024" xml:space="preserve">
<g>
	<path fill="rgb(0, 0, 0)" d="M511.987 971.093c-63.147 0-126.72-23.893-176.213-71.253-125.867-121.173-264.96-314.453-212.48-544.427 47.36-208.64 229.547-302.080 388.694-302.080 0 0 0 0 0.427 0 159.147 0 341.333 93.44 388.693 302.507 52.053 229.973-87.040 422.827-212.907 544-49.493 47.36-113.067 71.253-176.213 71.253zM511.987 117.333c-124.16 0-283.733 66.133-325.974 252.16-46.080 200.96 80.214 374.187 194.56 483.84 73.813 71.253 189.44 71.253 263.253 0 113.92-109.653 240.213-282.88 194.987-483.84-42.667-186.027-202.667-252.16-326.827-252.16z"></path>
	<path fill="rgb(0, 0, 0)" d="M458.643 586.667c-8.107 0-16.213-2.987-22.613-9.387l-64-64c-12.373-12.373-12.373-32.853 0-45.227s32.853-12.373 45.227 0l41.387 41.387 148.053-148.053c12.373-12.373 32.853-12.373 45.227 0s12.373 32.853 0 45.227l-170.667 170.667c-6.4 6.4-14.507 9.387-22.613 9.387z"></path>
</g>
</svg>
