<svg width="1025" height="1024" xmlns="http://www.w3.org/2000/svg" xml:space="preserve" version="1.1">

 <g>
  <title>Layer 1</title>
  <path stroke="null" id="svg_1" clip-rule="evenodd" fill-rule="evenodd" d="m5.86057,505.75149c24.99405,-19.99524 59.98573,-29.99287 99.97622,-29.99287c37.49108,0 74.98216,9.99762 99.97622,29.99287c17.49584,12.49703 39.99049,19.99524 62.48514,17.49584c22.49465,0 44.9893,-7.49822 62.48514,-19.99524c24.99405,-19.99524 59.98573,-29.99287 99.97622,-29.99287c37.49108,0 74.98216,9.99762 99.97622,29.99287c17.49584,12.49703 39.99049,19.99524 62.48514,17.49584c22.49465,0 44.9893,-7.49822 62.48514,-19.99524l0,0c24.99405,-19.99524 59.98573,-29.99287 99.97622,-29.99287c37.49108,0 74.98216,9.99762 99.97622,29.99287c17.49584,12.49703 39.99049,19.99524 62.48514,17.49584c22.49465,0 44.9893,-7.49822 62.48514,-19.99524c9.99762,-7.49822 24.99405,-7.49822 34.99168,-2.49941s12.49703,14.99643 2.49941,22.49465c-24.99405,19.99524 -59.98573,29.99287 -99.97622,29.99287c-37.49108,0 -74.98216,-9.99762 -99.97622,-29.99287c-17.49584,-12.49703 -39.99049,-19.99524 -62.48514,-17.49584c-22.49465,0 -44.9893,7.49822 -62.48514,19.99524l0,0c-24.99405,19.99524 -59.98573,29.99287 -99.97622,29.99287c-37.49108,0 -74.98216,-9.99762 -99.97622,-29.99287c-17.49584,-12.49703 -39.99049,-19.99524 -62.48514,-17.49584c-22.49465,0 -44.9893,7.49822 -62.48514,19.99524c-24.99405,19.99524 -59.98573,29.99287 -99.97622,29.99287c-37.49108,0 -74.98216,-9.99762 -99.97622,-29.99287c-17.49584,-9.99762 -39.99049,-17.49584 -62.48514,-17.49584c-22.49465,0 -44.9893,7.49822 -62.48514,19.99524c-9.99762,7.49822 -24.99405,7.49822 -34.99168,2.49941c-9.99762,-4.99881 -9.99762,-14.99643 -2.49941,-22.49465z" class="st0"/>
 </g>
</svg>