<svg width="1025" height="1024" xmlns="http://www.w3.org/2000/svg" version="1.1" xml:space="preserve">
 <g>
  <title>Layer 1</title>
  <g stroke="null" id="svg_4">
   <path stroke="null" id="svg_1" d="m1003.31093,849.96449l-164.54934,0c173.06051,-121.99348 87.94879,-398.60659 -126.24906,-398.60659l-19.8594,0l0,-139.01582c0,-11.34823 -8.51117,-19.8594 -19.8594,-19.8594l-39.71881,0c-92.20437,0 -168.80493,69.50791 -178.73463,160.29375l-21.27793,0c-78.01908,0 -144.68994,49.64851 -168.80493,120.57495c-95.04143,5.67412 -170.22346,83.6932 -170.22346,178.73463l0,99.29702l-72.34497,0c-26.95205,1.41853 -26.95205,38.30028 0,39.71881l981.62192,0c26.95205,-2.83706 26.95205,-39.71881 0,-41.13733zm-869.55815,-99.29702c0,-70.92644 52.48557,-129.08612 119.15642,-137.59729l0,238.31284l-119.15642,0l0,-100.71554zm158.87522,-120.57495c0,-76.60055 62.41527,-139.01582 139.01582,-139.01582l19.8594,0l0,358.88778l-158.87522,0l0,-219.87196zm200.01256,219.87196l0,-378.74719c0,-76.60055 62.41527,-139.01582 139.01582,-139.01582l19.8594,0l0,377.32866c0,76.60055 -62.41527,139.01582 -139.01582,139.01582l-19.8594,0l0,1.41853zm131.92318,0c41.13733,-32.62616 66.67085,-83.6932 66.67085,-139.01582l0,-219.87196l19.8594,0c238.31284,8.51117 238.31284,350.37661 0,358.88778l-86.53026,0z"/>
   <path stroke="null" id="svg_2" d="m800.46132,431.4985c32.62616,0 59.57821,-26.95205 59.57821,-59.57821c-2.83706,-79.43761 -116.31936,-79.43761 -119.15642,0c-1.41853,32.62616 25.53352,59.57821 59.57821,59.57821zm0,-80.85614c11.34823,0 19.8594,8.51117 19.8594,19.8594c-1.41853,26.95205 -38.30028,26.95205 -39.71881,0c-1.41853,-9.9297 8.51117,-19.8594 19.8594,-19.8594z"/>
   <path stroke="null" id="svg_3" d="m895.50275,299.57532c46.81145,0 83.6932,-38.30028 83.6932,-83.6932c-4.25559,-110.64525 -163.13081,-110.64525 -167.3864,0c0,45.39292 36.88175,83.6932 83.6932,83.6932zm0,-127.66759c24.11499,0 43.97439,19.8594 43.97439,43.97439c-2.83706,58.15968 -85.11173,58.15968 -87.94879,0c0,-24.11499 19.8594,-43.97439 43.97439,-43.97439z"/>
  </g>
 </g>

</svg>